SplineFontDB: 3.0
FontName: Ewert-Regular
FullName: Ewert
FamilyName: Ewert
Weight: Book
Copyright: Copyright (c) 2011, Johan Kallas (johankallas@gmail.com), Copyright (c) 2011 Mihkel Virkus (mihkelvirkus@gmail.com) with Reserved Font Name Ewert.
Version: 1.001
ItalicAngle: 0
UnderlinePosition: -50
UnderlineWidth: 50
Ascent: 800
Descent: 200
sfntRevision: 0x00010042
LayerCount: 2
Layer: 0 1 "Back"  1
Layer: 1 1 "Fore"  0
XUID: [1021 894 848557386 11169673]
FSType: 0
OS2Version: 2
OS2_WeightWidthSlopeOnly: 0
OS2_UseTypoMetrics: 1
CreationTime: 1328285531
ModificationTime: 1328307197
PfmFamily: 17
TTFWeight: 400
TTFWidth: 5
LineGap: 0
VLineGap: 0
Panose: 2 0 0 0 0 0 0 0 0 0
OS2TypoAscent: 144
OS2TypoAOffset: 1
OS2TypoDescent: -99
OS2TypoDOffset: 1
OS2TypoLinegap: 0
OS2WinAscent: 0
OS2WinAOffset: 1
OS2WinDescent: 0
OS2WinDOffset: 1
HheadAscent: 0
HheadAOffset: 1
HheadDescent: 0
HheadDOffset: 1
OS2SubXSize: 700
OS2SubYSize: 650
OS2SubXOff: 0
OS2SubYOff: 140
OS2SupXSize: 700
OS2SupYSize: 650
OS2SupXOff: 0
OS2SupYOff: 477
OS2StrikeYSize: 50
OS2StrikeYPos: 250
OS2Vendor: 'pyrs'
OS2CodePages: 20000111.00000000
OS2UnicodeRanges: 800000a7.00000041.00000000.00000000
DEI: 91125
TtTable: prep
PUSHW_1
 511
SCANCTRL
PUSHB_1
 4
SCANTYPE
EndTTInstrs
ShortTable: maxp 16
  1
  0
  222
  238
  11
  0
  0
  2
  0
  1
  1
  0
  64
  0
  0
  0
EndShort
LangName: 1033 "" "" "" "JohanKallas,MihkelVirkus: Ewert: 2012" "" "Version 1.001" "" "Ewert is a trademark of Johan Kallas, Mihkel Virkus." "Johan Kallas, Mihkel Virkus" "Johan Kallas, Mihkel Virkus" "" "" "" "This Font Software is licensed under the SIL Open Font License, Version 1.1. This license is copied below, and is also available with a FAQ at: http://scripts.sil.org/OFL" "http://scripts.sil.org/OFL" 
GaspTable: 1 65535 15 1
Encoding: UnicodeBmp
UnicodeInterp: none
NameList: Adobe Glyph List
DisplaySize: -24
AntiAlias: 1
FitToEm: 1
BeginChars: 65540 222

StartChar: exclam
Encoding: 33 33 4
Width: 388
GlyphClass: 2
Flags: W
LayerCount: 2
Fore
SplineSet
288 70 m 2,0,-1
 288 -2 l 2,1,2
 288 -31 288 -31 262 -45.5 c 128,-1,3
 236 -60 236 -60 205 -60 c 0,4,5
 160 -60 160 -60 121 -18.5 c 128,-1,6
 82 23 82 23 82 58 c 2,7,-1
 82 130 l 2,8,9
 82 172 82 172 136 184 c 1,10,-1
 94 235 l 1,11,12
 80 471 80 471 71 526 c 2,13,-1
 68 545 l 1,14,15
 63 542 63 542 62 539 c 1,16,-1
 34 557 l 1,17,-1
 -16 617 l 1,18,19
 -10 664 -10 664 18 688 c 128,-1,20
 46 712 46 712 85.5 712 c 128,-1,21
 125 712 125 712 163 685 c 1,22,23
 201 712 201 712 244.5 712 c 128,-1,24
 288 712 288 712 337 665 c 128,-1,25
 386 618 386 618 392 557 c 1,26,-1
 364 539 l 1,27,28
 360 548 360 548 345 548 c 0,29,30
 315 548 315 548 305 486 c 128,-1,31
 295 424 295 424 282 175 c 1,32,-1
 219 175 l 1,33,34
 250 160 250 160 269 131 c 128,-1,35
 288 102 288 102 288 70 c 2,0,-1
309 632 m 1,36,37
 289 682 289 682 245.5 682 c 128,-1,38
 202 682 202 682 166 651 c 1,39,-1
 160 651 l 1,40,41
 124 682 124 682 80.5 682 c 128,-1,42
 37 682 37 682 17 632 c 1,43,44
 24 636 24 636 40 636 c 128,-1,45
 56 636 56 636 69 622.5 c 128,-1,46
 82 609 82 609 92.5 563.5 c 128,-1,47
 103 518 103 518 108.5 453 c 128,-1,48
 114 388 114 388 122 262 c 1,49,-1
 205 262 l 1,50,-1
 207 296 l 2,51,52
 220 521 220 521 233 578.5 c 128,-1,53
 246 636 246 636 293 636 c 1,54,-1
 309 632 l 1,36,37
165 27 m 128,-1,56
 221 27 221 27 221 72 c 2,57,-1
 221 116 l 2,58,59
 221 161 221 161 165 161 c 128,-1,60
 109 161 109 161 109 116 c 2,61,-1
 109 72 l 2,62,55
 109 27 109 27 165 27 c 128,-1,56
EndSplineSet
EndChar

StartChar: quotedbl
Encoding: 34 34 5
Width: 497
GlyphClass: 2
Flags: W
LayerCount: 2
Fore
SplineSet
240 470 m 1,0,-1
 100 470 l 1,1,-1
 50 530 l 1,2,-1
 50 712 l 1,3,-1
 190 712 l 1,4,-1
 240 652 l 1,5,-1
 240 470 l 1,0,-1
80 557 m 1,6,-1
 160 557 l 1,7,-1
 160 685 l 1,8,-1
 80 685 l 1,9,-1
 80 557 l 1,6,-1
460 470 m 1,10,-1
 320 470 l 1,11,-1
 270 530 l 1,12,-1
 270 712 l 1,13,-1
 410 712 l 1,14,-1
 460 652 l 1,15,-1
 460 470 l 1,10,-1
300 557 m 1,16,-1
 380 557 l 1,17,-1
 380 685 l 1,18,-1
 300 685 l 1,19,-1
 300 557 l 1,16,-1
EndSplineSet
EndChar

StartChar: numbersign
Encoding: 35 35 6
Width: 631
GlyphClass: 2
Flags: W
LayerCount: 2
Fore
SplineSet
161 285 m 1,0,-1
 61 285 l 1,1,-1
 51 225 l 1,2,-1
 152 225 l 1,3,-1
 125 47 l 1,4,-1
 191 47 l 1,5,-1
 217 225 l 1,6,-1
 321 225 l 1,7,-1
 294 47 l 1,8,-1
 360 47 l 1,9,-1
 386 225 l 1,10,-1
 485 225 l 1,11,-1
 495 285 l 1,12,-1
 395 285 l 1,13,-1
 416 419 l 1,14,-1
 514 419 l 1,15,-1
 524 479 l 1,16,-1
 425 479 l 1,17,-1
 451 652 l 1,18,-1
 384 652 l 1,19,-1
 359 479 l 1,20,-1
 256 479 l 1,21,-1
 282 652 l 1,22,-1
 215 652 l 1,23,-1
 189 479 l 1,24,-1
 90 479 l 1,25,-1
 80 419 l 1,26,-1
 180 419 l 1,27,-1
 161 285 l 1,0,-1
329 285 m 1,28,-1
 226 285 l 1,29,-1
 246 419 l 1,30,-1
 349 419 l 1,31,-1
 329 285 l 1,28,-1
270 -40 m 1,32,-1
 137 -40 l 1,33,-1
 87 20 l 1,34,-1
 104 138 l 1,35,-1
 64 138 l 1,36,-1
 14 198 l 1,37,-1
 31 312 l 1,38,-1
 130 312 l 1,39,-1
 133 332 l 1,40,-1
 93 332 l 1,41,-1
 43 392 l 1,42,-1
 60 506 l 1,43,-1
 159 506 l 1,44,-1
 186 679 l 1,45,-1
 319 679 l 1,46,-1
 349 642 l 1,47,-1
 355 679 l 1,48,-1
 488 679 l 1,49,-1
 538 619 l 1,50,-1
 520 506 l 1,51,-1
 561 506 l 1,52,-1
 611 446 l 1,53,-1
 594 332 l 1,54,-1
 494 332 l 1,55,-1
 491 312 l 1,56,-1
 532 312 l 1,57,-1
 582 252 l 1,58,-1
 565 138 l 1,59,-1
 465 138 l 1,60,-1
 439 -40 l 1,61,-1
 306 -40 l 1,62,-1
 275 -3 l 1,63,-1
 270 -40 l 1,32,-1
EndSplineSet
EndChar

StartChar: dollar
Encoding: 36 36 7
Width: 628
GlyphClass: 2
Flags: W
LayerCount: 2
Fore
SplineSet
574 161 m 2,0,-1
 576 119 l 1,1,2
 576 39 576 39 528.5 -8.5 c 128,-1,3
 481 -56 481 -56 408 -68 c 1,4,-1
 408 -160 l 1,5,-1
 278 -160 l 1,6,-1
 228 -100 l 1,7,-1
 228 -30 l 1,8,-1
 185 -5 l 1,9,10
 164 -26 164 -26 129.5 -43 c 128,-1,11
 95 -60 95 -60 68 -60 c 1,12,-1
 18 0 l 1,13,-1
 0 28 l 1,14,15
 18 38 18 38 18 72 c 2,16,-1
 18 252 l 1,17,-1
 134 252 l 1,18,-1
 184 192 l 1,19,-1
 184 161 l 1,20,-1
 188 132 l 1,21,22
 209 119 209 119 251 119 c 1,23,24
 298 122 298 122 308 161 c 1,25,26
 292 152 292 152 286 146 c 1,27,-1
 189 262 l 1,28,-1
 207 278 l 1,29,30
 163 306 163 306 138.5 324 c 128,-1,31
 114 342 114 342 78 376 c 0,32,33
 7 442 7 442 7 530 c 128,-1,34
 7 618 7 618 73.5 664.5 c 128,-1,35
 140 711 140 711 228 712 c 1,36,-1
 228 800 l 1,37,-1
 358 800 l 1,38,-1
 408 740 l 1,39,-1
 408 700 l 1,40,-1
 507 700 l 1,41,-1
 557 640 l 1,42,-1
 557 416 l 1,43,-1
 440 416 l 1,44,-1
 390 476 l 1,45,-1
 376 522 l 1,46,47
 359 531 359 531 336 531 c 128,-1,48
 313 531 313 531 297.5 515 c 128,-1,49
 282 499 282 499 282 471 c 1,50,-1
 283 462 l 1,51,52
 286 459 286 459 338.5 434.5 c 128,-1,53
 391 410 391 410 439 376.5 c 128,-1,54
 487 343 487 343 499 310 c 1,55,56
 514 312 514 312 553 312 c 1,57,-1
 603 252 l 1,58,-1
 603 179 l 1,59,60
 574 179 574 179 574 161 c 2,0,-1
328 773 m 1,61,-1
 258 773 l 1,62,-1
 258 682 l 1,63,64
 250 683 250 683 232 683 c 0,65,66
 153 683 153 683 95 643.5 c 128,-1,67
 37 604 37 604 37 538 c 0,68,69
 37 489 37 489 62.5 450.5 c 128,-1,70
 88 412 88 412 118 392.5 c 128,-1,71
 148 373 148 373 195 347 c 128,-1,72
 242 321 242 321 261 307 c 1,73,74
 279 312 279 312 297 312 c 0,75,76
 336 312 336 312 372 282 c 1,77,-1
 390 302 l 1,78,-1
 415 302 l 1,79,80
 428 285 428 285 438 279 c 1,81,82
 450 294 450 294 468 302 c 1,83,84
 447 339 447 339 400 369.5 c 128,-1,85
 353 400 353 400 310.5 417 c 128,-1,86
 268 434 268 434 234.5 463.5 c 128,-1,87
 201 493 201 493 201 531 c 0,88,89
 201 556 201 556 212 577 c 0,90,91
 235 619 235 619 288 619 c 0,92,93
 376 619 376 619 413 504 c 1,94,-1
 484 504 l 1,95,-1
 484 672 l 1,96,-1
 408 672 l 1,97,-1
 408 602 l 1,98,-1
 402 602 l 1,99,100
 368 644 368 644 328 663 c 1,101,-1
 328 773 l 1,61,-1
129 90 m 1,102,103
 214 35 214 35 258 23 c 1,104,-1
 258 -73 l 1,105,-1
 328 -73 l 1,106,-1
 328 17 l 1,107,108
 401 23 401 23 449 63.5 c 128,-1,109
 497 104 497 104 497 177 c 1,110,-1
 495 221 l 1,111,112
 495 263 495 263 528 263 c 1,113,-1
 528 288 l 1,114,115
 509 288 509 288 499.5 286.5 c 128,-1,116
 490 285 490 285 475 274 c 128,-1,117
 460 263 460 263 447 241 c 1,118,119
 423 245 423 245 403 275 c 1,120,121
 384 252 384 252 363 246 c 1,122,123
 335 288 335 288 287 288 c 0,124,125
 256 288 256 288 226 260 c 1,126,-1
 241 241 l 1,127,128
 260 256 260 256 280 256 c 128,-1,129
 300 256 300 256 315.5 244 c 128,-1,130
 331 232 331 232 334.5 216 c 128,-1,131
 338 200 338 200 338 175 c 128,-1,132
 338 150 338 150 319 121.5 c 128,-1,133
 300 93 300 93 251 90 c 1,134,135
 194 90 194 90 153 124 c 128,-1,136
 112 158 112 158 106 223 c 1,137,-1
 47 223 l 1,138,-1
 47 82 l 2,139,140
 47 41 47 41 37 32 c 1,141,142
 56 35 56 35 88.5 55 c 128,-1,143
 121 75 121 75 129 90 c 1,102,103
EndSplineSet
EndChar

StartChar: percent
Encoding: 37 37 8
Width: 902
GlyphClass: 2
Flags: W
LayerCount: 2
Fore
SplineSet
264 299 m 0,0,1
 177 299 177 299 107 347 c 128,-1,2
 37 395 37 395 37 475 c 2,3,-1
 37 596 l 2,4,5
 37 640 37 640 66.5 667.5 c 128,-1,6
 96 695 96 695 133 703.5 c 128,-1,7
 170 712 170 712 218.5 712 c 128,-1,8
 267 712 267 712 317 695 c 128,-1,9
 367 678 367 678 404.5 636 c 128,-1,10
 442 594 442 594 442 536 c 2,11,-1
 442 514 l 1,12,-1
 554 699 l 1,13,-1
 707 699 l 1,14,-1
 757 639 l 1,15,-1
 578 337 l 1,16,17
 602 341 602 341 643.5 341 c 128,-1,18
 685 341 685 341 735 324 c 128,-1,19
 785 307 785 307 822.5 265 c 128,-1,20
 860 223 860 223 860 165 c 2,21,-1
 860 44 l 2,22,23
 860 11 860 11 843.5 -13 c 128,-1,24
 827 -37 827 -37 800 -49 c 0,25,26
 747 -72 747 -72 682 -72 c 0,27,28
 595 -72 595 -72 525 -24 c 128,-1,29
 455 24 455 24 455 104 c 2,30,-1
 455 130 l 1,31,-1
 342 -60 l 1,32,-1
 189 -60 l 1,33,-1
 129 0 l 1,34,-1
 313 302 l 1,35,36
 287 299 287 299 264 299 c 0,0,1
62 595 m 2,37,-1
 62 476 l 2,38,39
 62 384 62 384 214.5 384 c 128,-1,40
 367 384 367 384 367 476 c 2,41,-1
 367 595 l 2,42,43
 367 687 367 687 214.5 687 c 128,-1,44
 62 687 62 687 62 595 c 2,37,-1
480 224 m 2,45,-1
 480 105 l 2,46,47
 480 13 480 13 632.5 13 c 128,-1,48
 785 13 785 13 785 105 c 2,49,-1
 785 224 l 2,50,51
 785 316 785 316 632.5 316 c 128,-1,52
 480 316 480 316 480 224 c 2,45,-1
176 27 m 1,53,-1
 275 27 l 1,54,-1
 661 672 l 1,55,-1
 571 672 l 1,56,-1
 176 27 l 1,53,-1
703 122 m 2,57,58
 703 89 703 89 683 71 c 128,-1,59
 663 53 663 53 631.5 53 c 128,-1,60
 600 53 600 53 581 71 c 128,-1,61
 562 89 562 89 562 122 c 2,62,-1
 562 207 l 2,63,64
 562 240 562 240 581.5 258 c 128,-1,65
 601 276 601 276 632.5 276 c 128,-1,66
 664 276 664 276 683.5 258 c 128,-1,67
 703 240 703 240 703 207 c 2,68,-1
 703 122 l 2,57,58
285 493 m 2,69,70
 285 460 285 460 265 442 c 128,-1,71
 245 424 245 424 213.5 424 c 128,-1,72
 182 424 182 424 163 442 c 128,-1,73
 144 460 144 460 144 493 c 2,74,-1
 144 578 l 2,75,76
 144 611 144 611 163.5 629 c 128,-1,77
 183 647 183 647 214.5 647 c 128,-1,78
 246 647 246 647 265.5 629 c 128,-1,79
 285 611 285 611 285 578 c 2,80,-1
 285 493 l 2,69,70
636 147 m 2,81,-1
 636 78 l 1,82,83
 678 79 678 79 678 123 c 2,84,-1
 678 191 l 1,85,86
 636 189 636 189 636 147 c 2,81,-1
218 518 m 2,87,-1
 218 449 l 1,88,89
 260 450 260 450 260 494 c 2,90,-1
 260 562 l 1,91,92
 218 560 218 560 218 518 c 2,87,-1
EndSplineSet
EndChar

StartChar: ampersand
Encoding: 38 38 9
Width: 765
GlyphClass: 2
Flags: W
LayerCount: 2
Fore
SplineSet
315 125 m 1,0,1
 331 119 331 119 358 119 c 128,-1,2
 385 119 385 119 409 135 c 1,3,-1
 333 217 l 1,4,5
 322 203 322 203 315 175 c 1,6,-1
 332 165 l 1,7,-1
 314 134 l 1,8,-1
 315 125 l 1,0,1
252 551 m 0,9,10
 252 577 252 577 270.5 594.5 c 128,-1,11
 289 612 289 612 316.5 612 c 128,-1,12
 344 612 344 612 362.5 594 c 128,-1,13
 381 576 381 576 381 537 c 0,14,15
 381 482 381 482 296 440 c 1,16,17
 252 499 252 499 252 551 c 0,9,10
567 472 m 0,18,19
 567 407 567 407 519 353 c 1,20,-1
 543 353 l 1,21,22
 557 334 557 334 568 328 c 1,23,24
 593 358 593 358 634 361 c 0,25,26
 649 362 649 362 683 362 c 1,27,-1
 733 302 l 1,28,-1
 733 230 l 1,29,30
 676 230 676 230 671 190 c 1,31,-1
 671 131 l 2,32,33
 671 118 671 118 665 100 c 1,34,35
 675 100 675 100 683 113 c 1,36,-1
 710 95 l 1,37,-1
 760 35 l 1,38,39
 747 -60 747 -60 664 -60 c 0,40,41
 627 -60 627 -60 572 -21 c 1,42,43
 503 -72 503 -72 378 -72 c 128,-1,44
 253 -72 253 -72 169.5 -5.5 c 128,-1,45
 86 61 86 61 81 180 c 1,46,-1
 70 180 l 1,47,-1
 20 240 l 1,48,-1
 20 312 l 1,49,50
 79 312 79 312 100 304 c 1,51,52
 121 359 121 359 177 403 c 1,53,54
 114 479 114 479 114 550.5 c 128,-1,55
 114 622 114 622 172 667 c 128,-1,56
 230 712 230 712 326.5 712 c 128,-1,57
 423 712 423 712 495 649 c 128,-1,58
 567 586 567 586 567 472 c 0,18,19
137 276 m 1,59,60
 151 278 151 278 170 303 c 1,61,-1
 203 303 l 1,62,63
 214 265 214 265 240 248 c 1,64,65
 248 287 248 287 283 318 c 1,66,-1
 452 134 l 1,67,-1
 432 117 l 2,68,69
 399 90 399 90 350.5 90 c 128,-1,70
 302 90 302 90 270 119 c 128,-1,71
 238 148 238 148 236 194 c 1,72,-1
 248 215 l 1,73,74
 202 234 202 234 183 275 c 1,75,76
 163 249 163 249 136 243 c 2,77,-1
 126 241 l 1,78,79
 105 274 105 274 86 281 c 0,80,81
 68 287 68 287 46 287 c 1,82,-1
 46 263 l 1,83,84
 77 263 77 263 92 243 c 128,-1,85
 107 223 107 223 109 195 c 1,86,-1
 109 189 l 2,87,88
 109 99 109 99 165 58 c 128,-1,89
 221 17 221 17 334.5 17 c 128,-1,90
 448 17 448 17 500 58 c 1,91,-1
 521 74 l 1,92,93
 580 27 580 27 616 27 c 0,94,95
 634 27 634 27 647 34.5 c 128,-1,96
 660 42 660 42 665 50 c 0,97,98
 672 61 672 61 679 79 c 1,99,100
 667 75 667 75 661 75 c 0,101,102
 627 75 627 75 571 131 c 1,103,104
 587 153 587 153 593 186 c 2,105,-1
 595 197 l 1,106,-1
 595 247 l 1,107,108
 602 313 602 313 657 313 c 1,109,-1
 657 337 l 1,110,111
 616 337 616 337 596 317 c 0,112,113
 587 307 587 307 577 291 c 1,114,115
 554 295 554 295 532 325 c 1,116,117
 521 303 521 303 496 290 c 1,118,-1
 496 256 l 1,119,-1
 495 232 l 1,120,-1
 494 216 l 2,121,122
 494 213 494 213 493 211 c 1,123,-1
 356 366 l 1,124,125
 423 398 423 398 456 442 c 128,-1,126
 489 486 489 486 489 532 c 0,127,128
 489 609 489 609 442 647.5 c 128,-1,129
 395 686 395 686 317 686 c 128,-1,130
 239 686 239 686 190.5 647 c 128,-1,131
 142 608 142 608 142 543.5 c 128,-1,132
 142 479 142 479 215 397 c 1,133,-1
 201 387 l 2,134,135
 154 354 154 354 124 289 c 1,136,-1
 137 276 l 1,59,60
EndSplineSet
EndChar

StartChar: quotesingle
Encoding: 39 39 10
Width: 299
GlyphClass: 2
Flags: W
LayerCount: 2
Fore
SplineSet
246 470 m 1,0,-1
 106 470 l 1,1,-1
 56 530 l 1,2,-1
 56 712 l 1,3,-1
 196 712 l 1,4,-1
 246 652 l 1,5,-1
 246 470 l 1,0,-1
86 557 m 1,6,-1
 166 557 l 1,7,-1
 166 685 l 1,8,-1
 86 685 l 1,9,-1
 86 557 l 1,6,-1
EndSplineSet
EndChar

StartChar: parenleft
Encoding: 40 40 11
Width: 334
GlyphClass: 2
Flags: W
LayerCount: 2
Fore
SplineSet
325 604 m 1,0,1
 187 469 187 469 187 289.5 c 128,-1,2
 187 110 187 110 325 -33 c 1,3,-1
 291 -72 l 1,4,5
 178 -24 178 -24 96 102.5 c 128,-1,6
 14 229 14 229 14 347 c 128,-1,7
 14 465 14 465 80 565 c 128,-1,8
 146 665 146 665 241 703 c 1,9,-1
 325 604 l 1,0,1
64 472.5 m 128,-1,11
 42 415 42 415 42 355.5 c 128,-1,12
 42 296 42 296 59 242.5 c 128,-1,13
 76 189 76 189 100 152 c 128,-1,14
 124 115 124 115 152 86 c 0,15,16
 198 37 198 37 231 22 c 1,17,-1
 236 28 l 1,18,19
 109 179 109 179 109 354 c 0,20,21
 109 451 109 451 154 542 c 128,-1,22
 199 633 199 633 239 664 c 1,23,-1
 234 670 l 1,24,25
 182 648 182 648 118 569 c 0,26,10
 86 530 86 530 64 472.5 c 128,-1,11
EndSplineSet
EndChar

StartChar: parenright
Encoding: 41 41 12
Width: 344
GlyphClass: 2
Flags: W
LayerCount: 2
Fore
SplineSet
17 27 m 1,0,1
 155 170 155 170 155 349.5 c 128,-1,2
 155 529 155 529 17 664 c 1,3,-1
 51 703 l 1,4,5
 152 662 152 662 239.5 542 c 128,-1,6
 327 422 327 422 327.5 301 c 128,-1,7
 328 180 328 180 265 75.5 c 128,-1,8
 202 -29 202 -29 101 -72 c 1,9,-1
 17 27 l 1,0,1
233 242.5 m 128,-1,11
 250 296 250 296 250 355.5 c 128,-1,12
 250 415 250 415 228 472.5 c 128,-1,13
 206 530 206 530 174 569 c 0,14,15
 110 648 110 648 58 670 c 1,16,-1
 53 664 l 1,17,18
 93 633 93 633 138 542 c 128,-1,19
 183 451 183 451 183 354 c 0,20,21
 183 179 183 179 56 28 c 1,22,-1
 61 22 l 1,23,24
 94 37 94 37 131 76 c 128,-1,25
 168 115 168 115 192 152 c 128,-1,10
 216 189 216 189 233 242.5 c 128,-1,11
EndSplineSet
EndChar

StartChar: asterisk
Encoding: 42 42 13
Width: 491
GlyphClass: 2
Flags: W
LayerCount: 2
Fore
SplineSet
404 332 m 1,0,-1
 450 275 l 1,1,-1
 387 166 l 1,2,-1
 304 236 l 1,3,-1
 326 131 l 1,4,-1
 200 131 l 1,5,-1
 157 181 l 1,6,-1
 140 166 l 1,7,-1
 90 226 l 1,8,-1
 27 335 l 1,9,-1
 74 351 l 1,10,-1
 27 407 l 1,11,-1
 90 516 l 1,12,-1
 171 446 l 1,13,-1
 150 551 l 1,14,-1
 279 551 l 1,15,-1
 318 500 l 1,16,-1
 337 516 l 1,17,-1
 387 456 l 1,18,-1
 450 347 l 1,19,-1
 404 332 l 1,0,-1
267 375 m 1,20,-1
 362 417 l 1,21,-1
 327 477 l 1,22,-1
 243 413 l 1,23,-1
 233 418 l 1,24,-1
 248 523 l 1,25,-1
 178 523 l 1,26,-1
 193 418 l 1,27,-1
 184 413 l 1,28,-1
 100 477 l 1,29,-1
 65 417 l 1,30,-1
 159 375 l 1,31,-1
 159 367 l 1,32,-1
 65 325 l 1,33,-1
 100 265 l 1,34,-1
 184 329 l 1,35,-1
 193 324 l 1,36,-1
 178 219 l 1,37,-1
 248 219 l 1,38,-1
 233 324 l 1,39,-1
 243 329 l 1,40,-1
 327 265 l 1,41,-1
 362 325 l 1,42,-1
 267 367 l 1,43,-1
 267 375 l 1,20,-1
EndSplineSet
EndChar

StartChar: plus
Encoding: 43 43 14
Width: 587
GlyphClass: 2
Flags: W
LayerCount: 2
Fore
SplineSet
99 444 m 1,0,-1
 208 444 l 1,1,-1
 208 553 l 1,2,-1
 352 553 l 1,3,-1
 402 493 l 1,4,-1
 402 444 l 1,5,-1
 462 444 l 1,6,-1
 512 384 l 1,7,-1
 512 240 l 1,8,-1
 402 240 l 1,9,-1
 402 130 l 1,10,-1
 258 130 l 1,11,-1
 208 190 l 1,12,-1
 208 240 l 1,13,-1
 149 240 l 1,14,-1
 99 300 l 1,15,-1
 99 444 l 1,0,-1
129 327 m 1,16,-1
 235 327 l 1,17,-1
 235 220 l 1,18,-1
 325 220 l 1,19,-1
 325 327 l 1,20,-1
 432 327 l 1,21,-1
 432 417 l 1,22,-1
 325 417 l 1,23,-1
 325 523 l 1,24,-1
 235 523 l 1,25,-1
 235 417 l 1,26,-1
 129 417 l 1,27,-1
 129 327 l 1,16,-1
EndSplineSet
EndChar

StartChar: comma
Encoding: 44 44 15
Width: 292
GlyphClass: 2
Flags: W
LayerCount: 2
Fore
SplineSet
253 70 m 2,0,-1
 253 -2 l 2,1,2
 253 -47 253 -47 237 -77.5 c 128,-1,3
 221 -108 221 -108 194 -122 c 0,4,5
 148 -145 148 -145 96 -145 c 1,6,-1
 46 -85 l 1,7,-1
 46 -12 l 1,8,9
 70 -12 70 -12 79 -10 c 1,10,11
 74 -7 74 -7 67 -2 c 128,-1,12
 60 3 60 3 48.5 20.5 c 128,-1,13
 37 38 37 38 37 58 c 2,14,-1
 37 130 l 2,15,16
 37 159 37 159 63 173.5 c 128,-1,17
 89 188 89 188 120 188 c 0,18,19
 168 188 168 188 210.5 152.5 c 128,-1,20
 253 117 253 117 253 70 c 2,0,-1
108 35 m 2,21,-1
 137 35 l 1,22,23
 132 -36 132 -36 71 -36 c 1,24,-1
 71 -61 l 1,25,26
 107 -61 107 -61 138 -40 c 0,27,28
 177 -15 177 -15 177 57 c 2,29,-1
 177 116 l 2,30,31
 177 161 177 161 120.5 161 c 128,-1,32
 64 161 64 161 64 116 c 2,33,-1
 64 72 l 2,34,35
 64 47 64 47 73 41 c 128,-1,36
 82 35 82 35 108 35 c 2,21,-1
EndSplineSet
EndChar

StartChar: hyphen
Encoding: 45 45 16
Width: 480
GlyphClass: 2
Flags: W
LayerCount: 2
Fore
SplineSet
469 240 m 1,0,-1
 76 240 l 1,1,-1
 26 300 l 1,2,-1
 26 444 l 1,3,-1
 419 444 l 1,4,-1
 469 384 l 1,5,-1
 469 240 l 1,0,-1
56 327 m 1,6,-1
 389 327 l 1,7,-1
 389 417 l 1,8,-1
 56 417 l 1,9,-1
 56 327 l 1,6,-1
EndSplineSet
EndChar

StartChar: period
Encoding: 46 46 17
Width: 302
GlyphClass: 2
Flags: W
LayerCount: 2
Fore
SplineSet
234 70 m 2,0,-1
 234 -2 l 2,1,2
 234 -31 234 -31 208 -45.5 c 128,-1,3
 182 -60 182 -60 151 -60 c 0,4,5
 106 -60 106 -60 67 -18.5 c 128,-1,6
 28 23 28 23 28 58 c 2,7,-1
 28 130 l 2,8,9
 28 159 28 159 54 173.5 c 128,-1,10
 80 188 80 188 111 188 c 0,11,12
 159 188 159 188 196.5 152.5 c 128,-1,13
 234 117 234 117 234 70 c 2,0,-1
111 27 m 128,-1,15
 167 27 167 27 167 72 c 2,16,-1
 167 116 l 2,17,18
 167 161 167 161 111 161 c 128,-1,19
 55 161 55 161 55 116 c 2,20,-1
 55 72 l 2,21,14
 55 27 55 27 111 27 c 128,-1,15
EndSplineSet
EndChar

StartChar: slash
Encoding: 47 47 18
Width: 387
GlyphClass: 2
Flags: W
LayerCount: 2
Fore
SplineSet
243 -60 m 1,0,-1
 80 -60 l 1,1,-1
 30 0 l 1,2,-1
 135 699 l 1,3,-1
 298 699 l 1,4,-1
 348 639 l 1,5,-1
 243 -60 l 1,0,-1
68 27 m 1,6,-1
 164 27 l 1,7,-1
 261 672 l 1,8,-1
 164 672 l 1,9,-1
 68 27 l 1,6,-1
EndSplineSet
EndChar

StartChar: zero
Encoding: 48 48 19
Width: 752
GlyphClass: 2
Flags: W
LayerCount: 2
Fore
SplineSet
675 471 m 2,0,-1
 675 312 l 1,1,-1
 686 312 l 1,2,-1
 736 252 l 1,3,-1
 736 179 l 1,4,5
 698 179 698 179 687 165 c 128,-1,6
 676 151 676 151 676 121 c 2,7,-1
 676 108 l 2,8,9
 676 56 676 56 650.5 19 c 128,-1,10
 625 -18 625 -18 582 -37 c 0,11,12
 501 -72 501 -72 398 -72 c 0,13,14
 254 -72 254 -72 162 -3.5 c 128,-1,15
 70 65 70 65 70 168 c 2,16,-1
 70 179 l 1,17,-1
 60 179 l 1,18,-1
 10 239 l 1,19,-1
 10 312 l 1,20,21
 54 312 54 312 71 309 c 1,22,-1
 71 531 l 2,23,24
 71 583 71 583 96.5 620.5 c 128,-1,25
 122 658 122 658 165 677 c 0,26,27
 244 712 244 712 348 712 c 0,28,29
 494 712 494 712 584.5 645.5 c 128,-1,30
 675 579 675 579 675 471 c 2,0,-1
123 279 m 1,31,32
 135 286 135 286 148 303 c 1,33,-1
 173 303 l 1,34,35
 186 285 186 285 197 279 c 1,36,37
 215 300 215 300 238 306 c 1,38,-1
 238 503 l 2,39,40
 238 554 238 554 269 582.5 c 128,-1,41
 300 611 300 611 349 611 c 128,-1,42
 398 611 398 611 428 583 c 128,-1,43
 458 555 458 555 458 503 c 2,44,-1
 458 306 l 1,45,46
 481 300 481 300 499 279 c 1,47,48
 509 285 509 285 523 303 c 1,49,-1
 548 303 l 1,50,51
 561 285 561 285 573 279 c 1,52,53
 583 292 583 292 596 299 c 1,54,-1
 596 529 l 2,55,56
 596 571 596 571 574 602 c 128,-1,57
 552 633 552 633 515 650 c 128,-1,58
 478 667 478 667 436 675 c 128,-1,59
 394 683 394 683 348 683 c 128,-1,60
 302 683 302 683 260.5 675 c 128,-1,61
 219 667 219 667 181.5 650 c 128,-1,62
 144 633 144 633 122 602 c 128,-1,63
 100 571 100 571 100 529 c 2,64,-1
 100 299 l 1,65,66
 114 290 114 290 123 279 c 1,31,32
348 18 m 128,-1,68
 411 18 411 18 464 31 c 128,-1,69
 517 44 517 44 556.5 79.5 c 128,-1,70
 596 115 596 115 596 169 c 2,71,-1
 596 179 l 2,72,73
 596 262 596 262 661 262 c 1,74,-1
 661 286 l 1,75,76
 643 286 643 286 633.5 284.5 c 128,-1,77
 624 283 624 283 608.5 272.5 c 128,-1,78
 593 262 593 262 580 241 c 1,79,80
 558 246 558 246 536 275 c 1,81,82
 518 249 518 249 490 241 c 1,83,84
 478 262 478 262 463 272.5 c 128,-1,85
 448 283 448 283 438 284.5 c 128,-1,86
 428 286 428 286 410 286 c 1,87,-1
 410 262 l 1,88,89
 443 262 443 262 457 243 c 128,-1,90
 471 224 471 224 471 205 c 0,91,92
 471 151 471 151 436 120.5 c 128,-1,93
 401 90 401 90 348 90 c 128,-1,94
 295 90 295 90 260 120.5 c 128,-1,95
 225 151 225 151 225 205 c 0,96,97
 225 224 225 224 239 243 c 128,-1,98
 253 262 253 262 286 262 c 1,99,-1
 286 286 l 1,100,101
 268 286 268 286 258 284.5 c 128,-1,102
 248 283 248 283 233 272.5 c 128,-1,103
 218 262 218 262 206 241 c 1,104,105
 180 246 180 246 160 275 c 1,106,107
 140 249 140 249 116 241 c 1,108,109
 103 262 103 262 87.5 272.5 c 128,-1,110
 72 283 72 283 62.5 284.5 c 128,-1,111
 53 286 53 286 35 286 c 1,112,-1
 35 262 l 1,113,114
 100 262 100 262 100 179 c 2,115,-1
 100 169 l 2,116,117
 100 115 100 115 139.5 79.5 c 128,-1,118
 179 44 179 44 232 31 c 128,-1,67
 285 18 285 18 348 18 c 128,-1,68
317 442 m 2,119,-1
 317 307 l 1,120,-1
 363 252 l 1,121,-1
 363 179 l 1,122,123
 346 178 346 178 336 176.5 c 128,-1,124
 326 175 326 175 314.5 166 c 128,-1,125
 303 157 303 157 303 140 c 0,126,127
 303 119 303 119 343 119 c 128,-1,128
 383 119 383 119 407.5 135.5 c 128,-1,129
 432 152 432 152 440 179 c 1,130,-1
 433 179 l 1,131,-1
 383 239 l 1,132,-1
 383 312 l 1,133,134
 415 312 415 312 429 311 c 1,135,-1
 429 502 l 2,136,137
 429 510 429 510 418 515.5 c 128,-1,138
 407 521 407 521 398 521 c 0,139,140
 361 521 361 521 339 500.5 c 128,-1,141
 317 480 317 480 317 442 c 2,119,-1
EndSplineSet
EndChar

StartChar: one
Encoding: 49 49 20
Width: 442
GlyphClass: 2
Flags: W
LayerCount: 2
Fore
SplineSet
351 312 m 1,0,-1
 359 312 l 1,1,-1
 409 252 l 1,2,-1
 409 179 l 1,3,4
 370 179 370 179 358.5 165 c 128,-1,5
 347 151 347 151 347 120 c 2,6,-1
 347 105 l 1,7,8
 354 105 354 105 359 113 c 1,9,-1
 387 95 l 1,10,-1
 437 35 l 1,11,12
 431 -12 431 -12 403 -36 c 128,-1,13
 375 -60 375 -60 335.5 -60 c 128,-1,14
 296 -60 296 -60 258 -33 c 1,15,16
 220 -60 220 -60 179.5 -60 c 128,-1,17
 139 -60 139 -60 87 -12 c 128,-1,18
 35 36 35 36 29 95 c 1,19,-1
 57 113 l 1,20,21
 61 104 61 104 76 104 c 0,22,23
 119 104 119 104 119 179 c 1,24,-1
 107 179 l 1,25,-1
 57 239 l 1,26,-1
 57 312 l 1,27,28
 98 312 98 312 115 309 c 1,29,-1
 115 463 l 1,30,-1
 76 463 l 1,31,-1
 26 523 l 1,32,-1
 26 607 l 1,33,34
 60 607 60 607 99 640 c 128,-1,35
 138 673 138 673 142 700 c 1,36,-1
 301 700 l 1,37,-1
 351 640 l 1,38,-1
 351 312 l 1,0,-1
171 279 m 1,39,40
 181 285 181 285 195 303 c 1,41,-1
 221 303 l 1,42,43
 234 285 234 285 245 279 c 1,44,45
 255 293 255 293 271 301 c 1,46,-1
 271 672 l 1,47,-1
 162 672 l 1,48,49
 156 643 156 643 116.5 614.5 c 128,-1,50
 77 586 77 586 54 586 c 1,51,-1
 54 553 l 1,52,-1
 145 553 l 1,53,-1
 145 301 l 1,54,55
 159 294 159 294 171 279 c 1,39,40
211 61 m 1,56,57
 247 30 247 30 290.5 30 c 128,-1,58
 334 30 334 30 354 80 c 1,59,60
 347 76 347 76 338 76 c 0,61,62
 268 76 268 76 268 179 c 0,63,64
 268 263 268 263 334 263 c 1,65,-1
 334 288 l 1,66,67
 315 288 315 288 305 286.5 c 128,-1,68
 295 285 295 285 280 274 c 128,-1,69
 265 263 265 263 253 241 c 1,70,71
 229 246 229 246 208 276 c 1,72,73
 187 249 187 249 163 241 c 1,74,75
 150 263 150 263 135 274 c 128,-1,76
 120 285 120 285 110 286.5 c 128,-1,77
 100 288 100 288 82 288 c 1,78,-1
 82 263 l 1,79,80
 148 263 148 263 148 179 c 0,81,82
 148 103 148 103 116 84 c 0,83,84
 101 76 101 76 78 76 c 1,85,-1
 62 80 l 1,86,87
 82 30 82 30 125.5 30 c 128,-1,88
 169 30 169 30 205 61 c 1,89,-1
 211 61 l 1,56,57
EndSplineSet
EndChar

StartChar: two
Encoding: 50 50 21
Width: 687
GlyphClass: 2
Flags: W
LayerCount: 2
Fore
SplineSet
610 472 m 0,0,1
 610 436 610 436 587.5 402 c 128,-1,2
 565 368 565 368 508 312.5 c 128,-1,3
 451 257 451 257 438 242 c 1,4,-1
 438 180 l 1,5,6
 421 179 421 179 411 177.5 c 128,-1,7
 401 176 401 176 390.5 166.5 c 128,-1,8
 380 157 380 157 380 140 c 2,9,-1
 380 134 l 1,10,11
 396 129 396 129 421 129 c 128,-1,12
 446 129 446 129 469 145.5 c 128,-1,13
 492 162 492 162 492 192 c 0,14,15
 492 206 492 206 488 221 c 1,16,-1
 488 252 l 1,17,-1
 603 252 l 1,18,-1
 653 192 l 1,19,-1
 653 11 l 2,20,21
 653 -22 653 -22 671 -34 c 1,22,-1
 653 -60 l 1,23,24
 626 -60 626 -60 598.5 -47.5 c 128,-1,25
 571 -35 571 -35 556 -20 c 1,26,27
 501 -60 501 -60 427.5 -60 c 128,-1,28
 354 -60 354 -60 304 -24 c 1,29,30
 260 -60 260 -60 196.5 -60 c 128,-1,31
 133 -60 133 -60 78 -8.5 c 128,-1,32
 23 43 23 43 23 94 c 1,33,-1
 55 113 l 1,34,35
 57 103 57 103 76 103 c 128,-1,36
 95 103 95 103 111.5 127 c 128,-1,37
 128 151 128 151 129 180 c 1,38,-1
 79 240 l 1,39,-1
 90 312 l 1,40,41
 143 312 143 312 162 306 c 1,42,43
 186 337 186 337 236 381.5 c 128,-1,44
 286 426 286 426 316 461 c 128,-1,45
 346 496 346 496 346 528 c 1,46,47
 342 529 342 529 336 529 c 0,48,49
 298 529 298 529 273 500.5 c 128,-1,50
 248 472 248 472 242 444 c 2,51,-1
 235 416 l 1,52,-1
 117 416 l 1,53,-1
 67 476 l 1,54,-1
 67 700 l 1,55,-1
 191 700 l 1,56,-1
 213 673 l 1,57,58
 266 712 266 712 338 712 c 128,-1,59
 410 712 410 712 470 683.5 c 128,-1,60
 530 655 530 655 570 599 c 128,-1,61
 610 543 610 543 610 472 c 0,0,1
198 278 m 1,62,63
 212 285 212 285 228 303 c 1,64,-1
 253 303 l 1,65,66
 264 283 264 283 277 278 c 1,67,68
 302 310 302 310 358 312 c 1,69,70
 377 333 377 333 429.5 381.5 c 128,-1,71
 482 430 482 430 506.5 464 c 128,-1,72
 531 498 531 498 531 535 c 0,73,74
 531 602 531 602 475.5 643 c 128,-1,75
 420 684 420 684 344 684 c 0,76,77
 241 684 241 684 170 601 c 1,78,-1
 166 601 l 1,79,-1
 166 672 l 1,80,-1
 90 672 l 1,81,-1
 90 504 l 1,82,-1
 164 504 l 1,83,84
 191 616 191 616 286 616 c 0,85,86
 335 616 335 616 355 586.5 c 128,-1,87
 375 557 375 557 375 527 c 128,-1,88
 375 497 375 497 354 465 c 128,-1,89
 333 433 333 433 306 409 c 0,90,91
 218 331 218 331 187 292 c 1,92,-1
 198 278 l 1,62,63
516 224 m 1,93,-1
 521 187 l 1,94,95
 521 147 521 147 490 124 c 128,-1,96
 459 101 459 101 414 101 c 128,-1,97
 369 101 369 101 336.5 126 c 128,-1,98
 304 151 304 151 304 205 c 0,99,100
 304 233 304 233 321.5 248 c 128,-1,101
 339 263 339 263 361 263 c 1,102,-1
 361 287 l 1,103,104
 345 287 345 287 335 285 c 128,-1,105
 325 283 325 283 311 272.5 c 128,-1,106
 297 262 297 262 286 241 c 1,107,108
 245 258 245 258 236 275 c 1,109,110
 212 249 212 249 183 241 c 1,111,112
 175 262 175 262 162 273 c 128,-1,113
 149 284 149 284 139.5 285.5 c 128,-1,114
 130 287 130 287 112 287 c 1,115,-1
 107 263 l 1,116,117
 163 254 163 254 163 192 c 0,118,119
 163 149 163 149 136 112 c 128,-1,120
 109 75 109 75 70 75 c 1,121,-1
 55 79 l 1,122,123
 59 58 59 58 87.5 42.5 c 128,-1,124
 116 27 116 27 145 27 c 0,125,126
 204 27 204 27 252 75 c 1,127,-1
 260 68 l 2,128,129
 307 27 307 27 375 27 c 128,-1,130
 443 27 443 27 506 75 c 1,131,132
 514 66 514 66 540.5 49.5 c 128,-1,133
 567 33 567 33 583 31 c 1,134,135
 575 39 575 39 575 82 c 2,136,-1
 575 224 l 1,137,-1
 516 224 l 1,93,-1
EndSplineSet
EndChar

StartChar: three
Encoding: 51 51 22
Width: 673
GlyphClass: 2
Flags: W
LayerCount: 2
Fore
SplineSet
587 472 m 0,0,1
 587 415 587 415 529 367 c 1,2,3
 556 343 556 343 579 311 c 1,4,5
 591 312 591 312 621 312 c 1,6,-1
 671 252 l 1,7,-1
 671 179 l 1,8,9
 633 179 633 179 621.5 164.5 c 128,-1,10
 610 150 610 150 610 121 c 2,11,-1
 610 111 l 1,12,13
 608 50 608 50 570 7 c 0,14,15
 502 -72 502 -72 375 -72 c 0,16,17
 276 -72 276 -72 205 -6 c 1,18,19
 184 -27 184 -27 150 -43.5 c 128,-1,20
 116 -60 116 -60 88 -60 c 1,21,-1
 38 0 l 1,22,-1
 21 26 l 1,23,24
 38 37 38 37 38 71 c 2,25,-1
 38 253 l 1,26,-1
 154 253 l 1,27,-1
 204 193 l 1,28,-1
 204 162 l 1,29,-1
 207 134 l 1,30,31
 227 124 227 124 262 124 c 0,32,33
 331 124 331 124 341 179 c 1,34,-1
 332 179 l 1,35,-1
 282 239 l 1,36,-1
 282 288 l 1,37,-1
 258 288 l 1,38,-1
 208 348 l 1,39,-1
 208 416 l 1,40,-1
 97 416 l 1,41,-1
 47 476 l 1,42,-1
 47 700 l 1,43,-1
 171 700 l 1,44,-1
 195 672 l 1,45,46
 254 712 254 712 332 712 c 0,47,48
 432 712 432 712 509.5 645 c 128,-1,49
 587 578 587 578 587 472 c 0,0,1
395 279 m 1,50,51
 405 285 405 285 419 303 c 1,52,-1
 435 303 l 1,53,-1
 451 285 l 1,54,-1
 468 303 l 1,55,-1
 485 303 l 1,56,57
 499 285 499 285 509 279 c 1,58,-1
 518 289 l 1,59,60
 524 294 524 294 531 299 c 1,61,62
 524 336 524 336 489.5 365 c 128,-1,63
 455 394 455 394 412 399 c 1,64,-1
 412 414 l 1,65,66
 450 432 450 432 479 464.5 c 128,-1,67
 508 497 508 497 508 535 c 0,68,69
 508 603 508 603 457.5 643.5 c 128,-1,70
 407 684 407 684 332 684 c 0,71,72
 217 684 217 684 151 601 c 1,73,-1
 146 601 l 1,74,-1
 146 672 l 1,75,-1
 70 672 l 1,76,-1
 70 504 l 1,77,-1
 142 504 l 1,78,79
 173 616 173 616 262 616 c 0,80,81
 312 616 312 616 334.5 586 c 128,-1,82
 357 556 357 556 357 525.5 c 128,-1,83
 357 495 357 495 343.5 472.5 c 128,-1,84
 330 450 330 450 310 439 c 0,85,86
 272 419 272 419 235 419 c 1,87,-1
 235 374 l 1,88,-1
 239 374 l 2,89,90
 338 374 338 374 366 301 c 1,91,92
 385 292 385 292 395 279 c 1,50,51
307 286 m 1,93,-1
 307 262 l 1,94,95
 340 262 340 262 355.5 240.5 c 128,-1,96
 371 219 371 219 371 198 c 2,97,-1
 371 191 l 2,98,99
 371 153 371 153 343 124 c 128,-1,100
 315 95 315 95 260.5 95 c 128,-1,101
 206 95 206 95 168.5 127 c 128,-1,102
 131 159 131 159 126 225 c 1,103,-1
 67 225 l 1,104,-1
 67 82 l 2,105,106
 67 38 67 38 57 31 c 1,107,108
 75 33 75 33 107.5 53.5 c 128,-1,109
 140 74 140 74 151 89 c 1,110,111
 201 48 201 48 236.5 31 c 128,-1,112
 272 14 272 14 325 14 c 0,113,114
 407 14 407 14 467.5 52.5 c 128,-1,115
 528 91 528 91 531 166 c 1,116,-1
 531 179 l 2,117,118
 531 262 531 262 596 262 c 1,119,-1
 596 286 l 1,120,121
 553 286 553 286 533 263 c 0,122,123
 525 253 525 253 518 241 c 1,124,125
 494 247 494 247 472 271 c 1,126,-1
 451 250 l 1,127,-1
 431 271 l 1,128,129
 411 249 411 249 386 241 c 1,130,131
 374 259 374 259 369 264 c 0,132,133
 349 286 349 286 307 286 c 1,93,-1
312 529 m 1,134,135
 246 529 246 529 220 442 c 1,136,137
 329 448 329 448 329 526 c 1,138,-1
 312 529 l 1,134,135
EndSplineSet
EndChar

StartChar: four
Encoding: 52 52 23
Width: 635
GlyphClass: 2
Flags: W
LayerCount: 2
Fore
SplineSet
592 499 m 1,0,-1
 536 499 l 1,1,-1
 536 312 l 1,2,-1
 586 252 l 1,3,-1
 586 180 l 1,4,5
 548 180 548 180 536.5 165.5 c 128,-1,6
 525 151 525 151 525 119 c 2,7,-1
 525 104 l 1,8,9
 531 106 531 106 536 113 c 1,10,-1
 612 34 l 1,11,12
 606 -13 606 -13 579 -36.5 c 128,-1,13
 552 -60 552 -60 514 -60 c 128,-1,14
 476 -60 476 -60 433 -35 c 1,15,16
 393 -60 393 -60 350 -60 c 128,-1,17
 307 -60 307 -60 259.5 -9 c 128,-1,18
 212 42 212 42 206 94 c 1,19,-1
 232 113 l 1,20,21
 238 103 238 103 257 103 c 128,-1,22
 276 103 276 103 288 123 c 1,23,-1
 68 123 l 1,24,-1
 18 183 l 1,25,-1
 18 297 l 1,26,-1
 192 700 l 1,27,-1
 532 700 l 1,28,-1
 592 640 l 1,29,-1
 592 499 l 1,0,-1
456 588 m 1,30,-1
 514 588 l 1,31,-1
 514 672 l 1,32,-1
 208 672 l 1,33,-1
 46 297 l 1,34,-1
 46 211 l 1,35,-1
 300 211 l 1,36,-1
 300 252 l 1,37,38
 354 263 354 263 367 303 c 1,39,-1
 396 303 l 1,40,41
 410 284 410 284 421 278 c 1,42,43
 435 296 435 296 456 304 c 1,44,-1
 456 588 l 1,30,-1
331 602 m 1,45,-1
 331 297 l 1,46,-1
 147 297 l 1,47,-1
 147 337 l 1,48,-1
 264 602 l 1,49,-1
 331 602 l 1,45,-1
387 61 m 1,50,51
 424 27 424 27 467 27 c 128,-1,52
 510 27 510 27 530 79 c 1,53,54
 525 75 525 75 514 75 c 0,55,56
 484 75 484 75 468 91.5 c 128,-1,57
 452 108 452 108 448.5 127.5 c 128,-1,58
 445 147 445 147 445 178 c 0,59,60
 445 263 445 263 510 263 c 1,61,-1
 510 287 l 1,62,63
 468 287 468 287 450 267 c 0,64,65
 440 257 440 257 430 241 c 1,66,67
 405 245 405 245 383 275 c 1,68,69
 374 255 374 255 364 247 c 128,-1,70
 354 239 354 239 331 230 c 1,71,-1
 331 178 l 2,72,73
 331 75 331 75 254 75 c 1,74,-1
 239 79 l 1,75,76
 259 27 259 27 306 27 c 0,77,78
 343 27 343 27 380 61 c 1,79,-1
 387 61 l 1,50,51
303 325 m 1,80,-1
 303 453 l 1,81,-1
 247 325 l 1,82,-1
 303 325 l 1,80,-1
EndSplineSet
EndChar

StartChar: five
Encoding: 53 53 24
Width: 681
GlyphClass: 2
Flags: W
LayerCount: 2
Fore
SplineSet
669 179 m 1,0,1
 631 179 631 179 619.5 164.5 c 128,-1,2
 608 150 608 150 608 121 c 2,3,-1
 608 111 l 1,4,5
 606 50 606 50 568 7 c 0,6,7
 500 -72 500 -72 373 -72 c 0,8,9
 274 -72 274 -72 203 -6 c 1,10,11
 182 -27 182 -27 148 -43.5 c 128,-1,12
 114 -60 114 -60 86 -60 c 1,13,-1
 36 0 l 1,14,-1
 19 26 l 1,15,16
 36 37 36 37 36 71 c 2,17,-1
 36 253 l 1,18,-1
 131 253 l 1,19,-1
 82 322 l 1,20,-1
 82 700 l 1,21,-1
 518 700 l 1,22,-1
 578 640 l 1,23,-1
 578 499 l 1,24,-1
 318 499 l 1,25,-1
 318 452 l 1,26,27
 408 448 408 448 474 410 c 128,-1,28
 540 372 540 372 575 311 c 1,29,30
 588 312 588 312 619 312 c 1,31,-1
 669 252 l 1,32,-1
 669 179 l 1,0,1
393 279 m 1,33,34
 403 285 403 285 417 303 c 1,35,-1
 433 303 l 1,36,-1
 449 285 l 1,37,-1
 466 303 l 1,38,-1
 483 303 l 1,39,40
 497 285 497 285 507 279 c 1,41,-1
 516 289 l 2,42,43
 520 293 520 293 522 294 c 1,44,45
 507 346 507 346 451 384.5 c 128,-1,46
 395 423 395 423 299 423 c 0,47,48
 280 423 280 423 250 416 c 1,49,-1
 240 413 l 1,50,-1
 240 587 l 1,51,-1
 500 587 l 1,52,-1
 500 672 l 1,53,-1
 110 672 l 1,54,-1
 110 340 l 1,55,-1
 171 340 l 1,56,57
 213 359 213 359 255 359 c 0,58,59
 340 359 340 359 361 303 c 1,60,61
 380 295 380 295 393 279 c 1,33,34
305 286 m 1,62,-1
 305 262 l 1,63,64
 338 262 338 262 353.5 240.5 c 128,-1,65
 369 219 369 219 369 198 c 2,66,-1
 369 191 l 2,67,68
 369 153 369 153 341 124 c 128,-1,69
 313 95 313 95 258.5 95 c 128,-1,70
 204 95 204 95 166.5 127 c 128,-1,71
 129 159 129 159 124 225 c 1,72,-1
 65 225 l 1,73,-1
 65 82 l 2,74,75
 65 38 65 38 55 31 c 1,76,77
 73 33 73 33 105.5 53.5 c 128,-1,78
 138 74 138 74 149 89 c 1,79,80
 199 48 199 48 234.5 31 c 128,-1,81
 270 14 270 14 323 14 c 0,82,83
 405 14 405 14 465.5 52.5 c 128,-1,84
 526 91 526 91 529 166 c 1,85,-1
 529 179 l 2,86,87
 529 262 529 262 594 262 c 1,88,-1
 594 286 l 1,89,90
 551 286 551 286 531 263 c 0,91,92
 523 253 523 253 516 241 c 1,93,94
 492 247 492 247 470 271 c 1,95,-1
 449 250 l 1,96,-1
 429 271 l 1,97,98
 409 249 409 249 384 241 c 1,99,100
 372 259 372 259 367 264 c 0,101,102
 347 286 347 286 305 286 c 1,62,-1
280 268 m 1,103,104
 256 264 256 264 232 252 c 1,105,-1
 153 252 l 1,106,-1
 202 193 l 1,107,-1
 202 162 l 1,108,-1
 205 134 l 1,109,110
 225 124 225 124 260 124 c 0,111,112
 329 124 329 124 339 179 c 1,113,-1
 330 179 l 1,114,-1
 280 239 l 1,115,-1
 280 268 l 1,103,104
EndSplineSet
EndChar

StartChar: six
Encoding: 54 54 25
Width: 718
GlyphClass: 2
Flags: W
LayerCount: 2
Fore
SplineSet
649 420 m 1,0,-1
 507 420 l 1,1,2
 576 385 576 385 619 311 c 1,3,4
 631 312 631 312 661 312 c 1,5,-1
 711 252 l 1,6,-1
 711 180 l 1,7,8
 672 180 672 180 660.5 165.5 c 128,-1,9
 649 151 649 151 649 119 c 2,10,-1
 649 107 l 2,11,12
 649 55 649 55 626 18 c 128,-1,13
 603 -19 603 -19 563 -38 c 0,14,15
 488 -72 488 -72 398 -72 c 128,-1,16
 308 -72 308 -72 240.5 -48 c 128,-1,17
 173 -24 173 -24 126 32 c 128,-1,18
 79 88 79 88 79 167 c 2,19,-1
 79 179 l 1,20,-1
 65 180 l 1,21,-1
 15 240 l 1,22,-1
 15 312 l 1,23,24
 61 312 61 312 79 309 c 1,25,-1
 79 533 l 2,26,27
 79 584 79 584 101.5 621 c 128,-1,28
 124 658 124 658 164 677 c 0,29,30
 236 712 236 712 337 712 c 0,31,32
 452 712 452 712 546 658 c 0,33,34
 592 631 592 631 620.5 583 c 128,-1,35
 649 535 649 535 649 473 c 2,36,-1
 649 420 l 1,0,-1
473 278 m 1,37,38
 482 285 482 285 495 303 c 1,39,-1
 521 303 l 1,40,41
 534 284 534 284 545 278 c 1,42,43
 557 293 557 293 571 300 c 1,44,45
 554 353 554 353 501 388.5 c 128,-1,46
 448 424 448 424 353 424 c 0,47,48
 317 424 317 424 290.5 416 c 128,-1,49
 264 408 264 408 229 379 c 1,50,-1
 229 493 l 2,51,52
 229 601 229 601 337 601 c 0,53,54
 385 601 385 601 411 580.5 c 128,-1,55
 437 560 437 560 441 508 c 1,56,-1
 571 508 l 1,57,-1
 571 532 l 2,58,59
 571 586 571 586 535.5 621.5 c 128,-1,60
 500 657 500 657 450 670 c 128,-1,61
 400 683 400 683 337 683 c 0,62,63
 240 683 240 683 173.5 647 c 128,-1,64
 107 611 107 611 107 532 c 2,65,-1
 107 299 l 1,66,67
 119 292 119 292 131 278 c 1,68,69
 144 286 144 286 154 303 c 1,70,-1
 180 303 l 1,71,72
 194 284 194 284 204 278 c 1,73,74
 217 295 217 295 238 303 c 1,75,76
 255 335 255 335 278.5 348 c 128,-1,77
 302 361 302 361 343 361 c 0,78,79
 421 361 421 361 443 302 c 1,80,81
 460 294 460 294 473 278 c 1,37,38
570 168 m 2,82,-1
 570 178 l 2,83,84
 570 263 570 263 635 263 c 1,85,-1
 635 287 l 1,86,87
 594 287 594 287 574 267 c 0,88,89
 563 257 563 257 553 241 c 1,90,91
 531 245 531 245 509 275 c 1,92,93
 489 249 489 249 464 241 c 1,94,95
 451 263 451 263 435.5 273.5 c 128,-1,96
 420 284 420 284 410 285.5 c 128,-1,97
 400 287 400 287 382 287 c 1,98,-1
 382 263 l 1,99,100
 415 263 415 263 430 243.5 c 128,-1,101
 445 224 445 224 445 205 c 0,102,103
 445 149 445 149 417.5 124 c 128,-1,104
 390 99 390 99 337 99 c 128,-1,105
 284 99 284 99 258 123.5 c 128,-1,106
 232 148 232 148 232 205 c 0,107,108
 232 233 232 233 251 248 c 128,-1,109
 270 263 270 263 293 263 c 1,110,-1
 293 287 l 1,111,112
 275 287 275 287 265 286 c 0,113,114
 237 281 237 281 213 241 c 1,115,116
 189 245 189 245 167 275 c 1,117,118
 147 249 147 249 123 241 c 1,119,120
 110 263 110 263 95 273.5 c 128,-1,121
 80 284 80 284 70.5 285.5 c 128,-1,122
 61 287 61 287 43 287 c 1,123,-1
 43 263 l 1,124,125
 106 263 106 263 106 178 c 2,126,-1
 106 168 l 2,127,128
 106 88 106 88 172.5 51.5 c 128,-1,129
 239 15 239 15 337.5 15 c 128,-1,130
 436 15 436 15 503 51.5 c 128,-1,131
 570 88 570 88 570 168 c 2,82,-1
308 450 m 1,132,133
 329 453 329 453 362.5 453 c 128,-1,134
 396 453 396 453 443 443 c 1,135,-1
 412 480 l 1,136,-1
 412 499 l 1,137,-1
 411 509 l 1,138,139
 404 511 404 511 377 511 c 0,140,141
 315 511 315 511 308 450 c 1,132,133
310 140 m 2,142,-1
 310 129 l 1,143,144
 318 127 318 127 337 127 c 0,145,146
 405 127 405 127 414 180 c 1,147,-1
 407 180 l 1,148,-1
 368 227 l 1,149,-1
 368 180 l 1,150,151
 352 179 352 179 342 177.5 c 128,-1,152
 332 176 332 176 321 166.5 c 128,-1,153
 310 157 310 157 310 140 c 2,142,-1
EndSplineSet
EndChar

StartChar: seven
Encoding: 55 55 26
Width: 583
GlyphClass: 2
Flags: W
LayerCount: 2
Fore
SplineSet
515 179 m 1,0,1
 490 179 490 179 481 178 c 0,2,3
 431 168 431 168 429 113 c 1,4,-1
 454 94 l 1,5,-1
 504 34 l 1,6,7
 489 -13 489 -13 456.5 -36.5 c 128,-1,8
 424 -60 424 -60 387 -60 c 128,-1,9
 350 -60 350 -60 313 -35 c 1,10,11
 270 -60 270 -60 231 -60 c 0,12,13
 176 -60 176 -60 136.5 -10.5 c 128,-1,14
 97 39 97 39 97 94 c 1,15,-1
 126 113 l 1,16,17
 132 103 132 103 145 103 c 0,18,19
 171 103 171 103 184.5 126 c 128,-1,20
 198 149 198 149 199 179 c 1,21,-1
 149 239 l 1,22,-1
 149 312 l 1,23,-1
 193 312 l 2,24,25
 212 312 212 312 226 309 c 1,26,-1
 264 499 l 1,27,-1
 202 499 l 1,28,-1
 202 396 l 1,29,-1
 86 396 l 1,30,-1
 36 456 l 1,31,-1
 36 700 l 1,32,-1
 525 700 l 1,33,-1
 575 640 l 1,34,-1
 575 499 l 1,35,-1
 518 499 l 1,36,-1
 474 301 l 1,37,-1
 515 252 l 1,38,-1
 515 179 l 1,0,1
269 276 m 1,39,40
 281 282 281 282 298 303 c 1,41,-1
 323 303 l 1,42,43
 333 284 333 284 343 278 c 1,44,45
 361 296 361 296 383 304 c 1,46,-1
 444 587 l 1,47,-1
 497 587 l 1,48,-1
 497 672 l 1,49,-1
 64 672 l 1,50,-1
 64 484 l 1,51,-1
 124 484 l 1,52,-1
 124 587 l 1,53,-1
 308 587 l 1,54,-1
 253 295 l 1,55,56
 262 288 262 288 269 276 c 1,39,40
174 263 m 1,57,58
 188 263 188 263 196 261 c 0,59,60
 233 253 233 253 233 204.5 c 128,-1,61
 233 156 233 156 211 115.5 c 128,-1,62
 189 75 189 75 142 75 c 1,63,-1
 126 79 l 1,64,65
 139 27 139 27 182 27 c 128,-1,66
 225 27 225 27 265 61 c 1,67,-1
 272 61 l 1,68,69
 302 27 302 27 345 27 c 128,-1,70
 388 27 388 27 416 79 c 1,71,72
 411 75 411 75 401 75 c 0,73,74
 345 75 345 75 345 134 c 0,75,76
 345 181 345 181 363 218 c 0,77,78
 384 263 384 263 440 263 c 1,79,-1
 440 288 l 1,80,81
 423 288 423 288 416 287 c 0,82,83
 378 283 378 283 345 241 c 1,84,85
 321 245 321 245 306 275 c 1,86,87
 282 249 282 249 255 241 c 1,88,89
 243 273 243 273 222 280 c 0,90,91
 206 286 206 286 174 288 c 1,92,-1
 174 263 l 1,57,58
EndSplineSet
EndChar

StartChar: eight
Encoding: 56 56 27
Width: 739
GlyphClass: 2
Flags: W
LayerCount: 2
Fore
SplineSet
663 118 m 2,0,-1
 663 108 l 2,1,2
 663 56 663 56 638.5 19 c 128,-1,3
 614 -18 614 -18 572 -37 c 0,4,5
 495 -72 495 -72 393 -72 c 0,6,7
 268 -72 268 -72 177 -18 c 0,8,9
 130 9 130 9 101.5 57 c 128,-1,10
 73 105 73 105 73 168 c 2,11,-1
 73 180 l 1,12,-1
 62 180 l 1,13,-1
 12 240 l 1,14,-1
 12 312 l 1,15,16
 64 312 64 312 83 307 c 1,17,18
 92 360 92 360 132 400 c 1,19,20
 111 420 111 420 103.5 445 c 128,-1,21
 96 470 96 470 96 520 c 2,22,-1
 96 532 l 2,23,24
 96 598 96 598 133 640 c 128,-1,25
 170 682 170 682 222.5 697 c 128,-1,26
 275 712 275 712 337.5 712 c 128,-1,27
 400 712 400 712 450.5 699 c 128,-1,28
 501 686 501 686 544.5 659.5 c 128,-1,29
 588 633 588 633 613.5 584.5 c 128,-1,30
 639 536 639 536 639 472 c 2,31,-1
 639 460 l 2,32,33
 639 412 639 412 631 387 c 128,-1,34
 623 362 623 362 602 343 c 1,35,36
 623 320 623 320 628 311 c 1,37,38
 642 312 642 312 674 312 c 1,39,-1
 724 252 l 1,40,-1
 724 180 l 1,41,42
 685 180 685 180 674 165 c 128,-1,43
 663 150 663 150 663 118 c 2,0,-1
486 278 m 1,44,45
 497 285 497 285 510 303 c 1,46,-1
 536 303 l 1,47,48
 549 284 549 284 560 278 c 1,49,50
 566 286 566 286 574 292 c 1,51,52
 566 359 566 359 509 399 c 1,53,54
 561 444 561 444 561 520 c 2,55,-1
 561 532 l 2,56,57
 561 587 561 587 526 623.5 c 128,-1,58
 491 660 491 660 444.5 673 c 128,-1,59
 398 686 398 686 343 686 c 128,-1,60
 288 686 288 686 241.5 673 c 128,-1,61
 195 660 195 660 159.5 623.5 c 128,-1,62
 124 587 124 587 124 532 c 2,63,-1
 124 520 l 2,64,65
 124 439 124 439 173 397 c 1,66,67
 119 358 119 358 112 292 c 1,68,69
 119 286 119 286 126 278 c 1,70,71
 136 286 136 286 150 303 c 1,72,-1
 176 303 l 1,73,74
 188 284 188 284 200 278 c 1,75,76
 217 299 217 299 243 307 c 1,77,78
 264 361 264 361 343 361 c 128,-1,79
 422 361 422 361 443 307 c 1,80,81
 467 300 467 300 486 278 c 1,44,45
584 169 m 2,82,-1
 584 178 l 2,83,84
 584 263 584 263 649 263 c 1,85,-1
 649 287 l 1,86,87
 608 287 608 287 588 267 c 0,88,89
 578 257 578 257 568 241 c 1,90,91
 547 245 547 245 524 275 c 1,92,93
 506 249 506 249 479 241 c 1,94,95
 466 262 466 262 450.5 273 c 128,-1,96
 435 284 435 284 425.5 285.5 c 128,-1,97
 416 287 416 287 399 287 c 1,98,-1
 399 263 l 1,99,100
 430 263 430 263 444 243 c 128,-1,101
 458 223 458 223 458 205 c 0,102,103
 458 99 458 99 343 99 c 128,-1,104
 228 99 228 99 228 205 c 0,105,106
 228 224 228 224 242 243.5 c 128,-1,107
 256 263 256 263 287 263 c 1,108,-1
 287 287 l 1,109,110
 269 287 269 287 259.5 285.5 c 128,-1,111
 250 284 250 284 235 273.5 c 128,-1,112
 220 263 220 263 207 241 c 1,113,114
 183 245 183 245 162 275 c 1,115,116
 142 249 142 249 118 241 c 1,117,118
 105 262 105 262 90 273 c 128,-1,119
 75 284 75 284 65 285.5 c 128,-1,120
 55 287 55 287 37 287 c 1,121,-1
 37 263 l 1,122,123
 102 263 102 263 102 178 c 2,124,-1
 102 169 l 2,125,126
 102 114 102 114 140 78 c 128,-1,127
 178 42 178 42 229.5 28.5 c 128,-1,128
 281 15 281 15 343 15 c 128,-1,129
 405 15 405 15 456.5 28.5 c 128,-1,130
 508 42 508 42 546 78 c 128,-1,131
 584 114 584 114 584 169 c 2,82,-1
441 506 m 0,132,133
 441 412 441 412 342.5 412 c 128,-1,134
 244 412 244 412 244 506 c 0,135,136
 244 602 244 602 342.5 602 c 128,-1,137
 441 602 441 602 441 506 c 0,132,133
305 140 m 2,138,-1
 305 132 l 1,139,140
 321 127 321 127 343 127 c 0,141,142
 417 127 417 127 429 180 c 1,143,-1
 422 180 l 1,144,-1
 372 240 l 1,145,-1
 372 272 l 1,146,147
 362 271 362 271 351 267 c 1,148,-1
 364 252 l 1,149,-1
 364 180 l 1,150,151
 305 178 305 178 305 140 c 2,138,-1
412 502 m 2,152,-1
 412 512 l 1,153,154
 400 514 400 514 393 514 c 0,155,156
 323 514 323 514 323 452 c 2,157,-1
 323 440 l 1,158,159
 329 439 329 439 343 439 c 0,160,161
 382 439 382 439 397 456 c 128,-1,162
 412 473 412 473 412 502 c 2,152,-1
EndSplineSet
EndChar

StartChar: nine
Encoding: 57 57 28
Width: 677
GlyphClass: 2
Flags: W
LayerCount: 2
Fore
SplineSet
604 452 m 2,0,-1
 604 312 l 1,1,-1
 615 312 l 1,2,-1
 665 252 l 1,3,-1
 665 179 l 1,4,5
 627 179 627 179 615.5 164.5 c 128,-1,6
 604 150 604 150 604 121 c 2,7,-1
 604 106 l 2,8,9
 604 55 604 55 581.5 18 c 128,-1,10
 559 -19 559 -19 520 -38 c 0,11,12
 446 -72 446 -72 359.5 -72 c 128,-1,13
 273 -72 273 -72 202.5 -43.5 c 128,-1,14
 132 -15 132 -15 83 41 c 128,-1,15
 34 97 34 97 34 166 c 2,16,-1
 34 220 l 1,17,-1
 144 220 l 1,18,19
 158 193 158 193 168 187 c 1,20,21
 188 213 188 213 227 218 c 1,22,23
 141 242 141 242 89.5 305 c 128,-1,24
 38 368 38 368 38 466 c 2,25,-1
 38 512 l 2,26,27
 38 567 38 567 61 607.5 c 128,-1,28
 84 648 84 648 123 670 c 0,29,30
 197 712 197 712 298 712 c 0,31,32
 409 712 409 712 502 652 c 0,33,34
 548 622 548 622 576 570 c 128,-1,35
 604 518 604 518 604 452 c 2,0,-1
67 466 m 2,36,37
 67 371 67 371 118.5 332 c 128,-1,38
 170 293 170 293 281 293 c 0,39,40
 316 293 316 293 343 301.5 c 128,-1,41
 370 310 370 310 405 339 c 1,42,-1
 405 263 l 1,43,44
 436 277 436 277 462 303 c 1,45,-1
 479 303 l 1,46,47
 493 285 493 285 503 279 c 1,48,-1
 512 289 l 1,49,50
 518 294 518 294 525 299 c 1,51,-1
 525 512 l 2,52,53
 525 602 525 602 460.5 642.5 c 128,-1,54
 396 683 396 683 298 683 c 0,55,56
 173 683 173 683 106 614 c 0,57,58
 67 573 67 573 67 512 c 2,59,-1
 67 466 l 2,36,37
524 181 m 2,60,61
 524 262 524 262 590 262 c 1,62,-1
 590 286 l 1,63,64
 547 286 547 286 527 263 c 0,65,66
 519 253 519 253 512 241 c 1,67,68
 488 247 488 247 466 271 c 1,69,70
 455 256 455 256 425.5 241.5 c 128,-1,71
 396 227 396 227 364 224 c 1,72,-1
 364 203 l 1,73,-1
 400 203 l 1,74,-1
 400 174 l 2,75,76
 400 124 400 124 368.5 98.5 c 128,-1,77
 337 73 337 73 302 73 c 128,-1,78
 267 73 267 73 243.5 88.5 c 128,-1,79
 220 104 220 104 220 135 c 0,80,81
 220 151 220 151 230.5 160.5 c 128,-1,82
 241 170 241 170 255 170 c 1,83,-1
 255 194 l 1,84,85
 237 194 237 194 227 192.5 c 128,-1,86
 217 191 217 191 201.5 180.5 c 128,-1,87
 186 170 186 170 174 149 c 1,88,89
 148 156 148 156 131 191 c 1,90,-1
 62 191 l 1,91,-1
 62 167 l 2,92,93
 62 113 62 113 97.5 78 c 128,-1,94
 133 43 133 43 183 30 c 128,-1,95
 233 17 233 17 296 17 c 0,96,97
 393 17 393 17 458.5 52.5 c 128,-1,98
 524 88 524 88 524 167 c 2,99,-1
 524 181 l 2,60,61
191 462 m 2,100,-1
 191 495 l 2,101,102
 191 551 191 551 218.5 575.5 c 128,-1,103
 246 600 246 600 299 600 c 128,-1,104
 352 600 352 600 378.5 575.5 c 128,-1,105
 405 551 405 551 405 495 c 2,106,-1
 405 462 l 2,107,108
 405 406 405 406 378.5 382 c 128,-1,109
 352 358 352 358 299 358 c 128,-1,110
 246 358 246 358 218.5 382 c 128,-1,111
 191 406 191 406 191 462 c 2,100,-1
349 512 m 0,112,113
 269 512 269 512 269 441 c 2,114,-1
 269 389 l 1,115,116
 282 386 282 386 311 386 c 128,-1,117
 340 386 340 386 358.5 402 c 128,-1,118
 377 418 377 418 377 453 c 2,119,-1
 377 510 l 1,120,121
 361 512 361 512 349 512 c 0,112,113
333 205 m 1,122,123
 304 205 304 205 291 207 c 1,124,-1
 330 160 l 1,125,-1
 330 108 l 1,126,127
 353 117 353 117 365 138 c 1,128,-1
 333 177 l 1,129,-1
 333 205 l 1,122,123
EndSplineSet
EndChar

StartChar: colon
Encoding: 58 58 29
Width: 415
GlyphClass: 2
Flags: W
LayerCount: 2
Fore
SplineSet
310 180 m 2,0,-1
 310 108 l 2,1,2
 310 79 310 79 284 64.5 c 128,-1,3
 258 50 258 50 227 50 c 0,4,5
 182 50 182 50 143 91.5 c 128,-1,6
 104 133 104 133 104 168 c 2,7,-1
 104 240 l 2,8,9
 104 269 104 269 130 283.5 c 128,-1,10
 156 298 156 298 187 298 c 0,11,12
 235 298 235 298 272.5 262.5 c 128,-1,13
 310 227 310 227 310 180 c 2,0,-1
187 137 m 128,-1,15
 243 137 243 137 243 182 c 2,16,-1
 243 226 l 2,17,18
 243 271 243 271 187 271 c 128,-1,19
 131 271 131 271 131 226 c 2,20,-1
 131 182 l 2,21,14
 131 137 131 137 187 137 c 128,-1,15
310 457 m 2,22,-1
 310 385 l 2,23,24
 310 356 310 356 284 341.5 c 128,-1,25
 258 327 258 327 227 327 c 0,26,27
 182 327 182 327 143 368.5 c 128,-1,28
 104 410 104 410 104 445 c 2,29,-1
 104 517 l 2,30,31
 104 546 104 546 130 560.5 c 128,-1,32
 156 575 156 575 187 575 c 0,33,34
 235 575 235 575 272.5 539.5 c 128,-1,35
 310 504 310 504 310 457 c 2,22,-1
187 414 m 128,-1,37
 243 414 243 414 243 459 c 2,38,-1
 243 503 l 2,39,40
 243 548 243 548 187 548 c 128,-1,41
 131 548 131 548 131 503 c 2,42,-1
 131 459 l 2,43,36
 131 414 131 414 187 414 c 128,-1,37
EndSplineSet
EndChar

StartChar: semicolon
Encoding: 59 59 30
Width: 384
GlyphClass: 2
Flags: W
LayerCount: 2
Fore
SplineSet
290 457 m 2,0,-1
 290 385 l 2,1,2
 290 356 290 356 264 341.5 c 128,-1,3
 238 327 238 327 207 327 c 0,4,5
 162 327 162 327 123 368.5 c 128,-1,6
 84 410 84 410 84 445 c 2,7,-1
 84 517 l 2,8,9
 84 546 84 546 110 560.5 c 128,-1,10
 136 575 136 575 167 575 c 0,11,12
 215 575 215 575 252.5 539.5 c 128,-1,13
 290 504 290 504 290 457 c 2,0,-1
167 414 m 128,-1,15
 223 414 223 414 223 459 c 2,16,-1
 223 503 l 2,17,18
 223 548 223 548 167 548 c 128,-1,19
 111 548 111 548 111 503 c 2,20,-1
 111 459 l 2,21,14
 111 414 111 414 167 414 c 128,-1,15
300 180 m 2,22,-1
 300 108 l 2,23,24
 300 63 300 63 284 32.5 c 128,-1,25
 268 2 268 2 242 -12 c 1,26,27
 195 -35 195 -35 143 -35 c 1,28,-1
 93 25 l 1,29,-1
 93 98 l 1,30,31
 117 98 117 98 126 100 c 1,32,33
 121 103 121 103 114 108 c 128,-1,34
 107 113 107 113 95.5 130.5 c 128,-1,35
 84 148 84 148 84 168 c 2,36,-1
 84 240 l 2,37,38
 84 269 84 269 110 283.5 c 128,-1,39
 136 298 136 298 167 298 c 0,40,41
 215 298 215 298 257.5 262.5 c 128,-1,42
 300 227 300 227 300 180 c 2,22,-1
155 145 m 2,43,-1
 184 145 l 1,44,45
 179 74 179 74 118 74 c 1,46,-1
 118 49 l 1,47,48
 154 49 154 49 186 70 c 0,49,50
 224 95 224 95 224 167 c 2,51,-1
 224 226 l 2,52,53
 224 271 224 271 167.5 271 c 128,-1,54
 111 271 111 271 111 226 c 2,55,-1
 111 182 l 2,56,57
 111 157 111 157 120 151 c 128,-1,58
 129 145 129 145 155 145 c 2,43,-1
EndSplineSet
EndChar

StartChar: less
Encoding: 60 60 31
Width: 510
GlyphClass: 2
Flags: W
LayerCount: 2
Fore
SplineSet
261 267 m 1,0,-1
 425 171 l 1,1,-1
 475 111 l 1,2,-1
 428 12 l 1,3,-1
 78 185 l 1,4,-1
 28 245 l 1,5,-1
 28 379 l 1,6,-1
 378 552 l 1,7,-1
 428 492 l 1,8,-1
 475 393 l 1,9,-1
 261 267 l 1,0,-1
155 300 m 1,10,-1
 155 324 l 1,11,-1
 393 463 l 1,12,-1
 367 519 l 1,13,-1
 55 367 l 1,14,-1
 55 257 l 1,15,-1
 367 105 l 1,16,-1
 393 161 l 1,17,-1
 155 300 l 1,10,-1
EndSplineSet
EndChar

StartChar: equal
Encoding: 61 61 32
Width: 603
GlyphClass: 2
Flags: W
LayerCount: 2
Fore
SplineSet
511 350 m 1,0,-1
 148 350 l 1,1,-1
 98 410 l 1,2,-1
 98 534 l 1,3,-1
 461 534 l 1,4,-1
 511 474 l 1,5,-1
 511 350 l 1,0,-1
128 437 m 1,6,-1
 431 437 l 1,7,-1
 431 507 l 1,8,-1
 128 507 l 1,9,-1
 128 437 l 1,6,-1
511 129 m 1,10,-1
 148 129 l 1,11,-1
 98 189 l 1,12,-1
 98 313 l 1,13,-1
 461 313 l 1,14,-1
 511 253 l 1,15,-1
 511 129 l 1,10,-1
128 216 m 1,16,-1
 431 216 l 1,17,-1
 431 286 l 1,18,-1
 128 286 l 1,19,-1
 128 216 l 1,16,-1
EndSplineSet
EndChar

StartChar: greater
Encoding: 62 62 33
Width: 497
GlyphClass: 2
Flags: W
LayerCount: 2
Fore
SplineSet
14 171 m 1,0,-1
 227 297 l 1,1,-1
 64 393 l 1,2,-1
 14 453 l 1,3,-1
 61 552 l 1,4,-1
 411 379 l 1,5,-1
 461 319 l 1,6,-1
 461 190 l 1,7,-1
 111 12 l 1,8,-1
 61 72 l 1,9,-1
 14 171 l 1,0,-1
284 324 m 1,10,-1
 284 300 l 1,11,-1
 46 161 l 1,12,-1
 72 105 l 1,13,-1
 384 257 l 1,14,-1
 384 367 l 1,15,-1
 72 519 l 1,16,-1
 46 463 l 1,17,-1
 284 324 l 1,10,-1
EndSplineSet
EndChar

StartChar: question
Encoding: 63 63 34
Width: 610
GlyphClass: 2
Flags: W
LayerCount: 2
Fore
SplineSet
357 70 m 2,0,-1
 357 -2 l 2,1,2
 357 -31 357 -31 331 -45.5 c 128,-1,3
 305 -60 305 -60 274 -60 c 0,4,5
 229 -60 229 -60 190 -18.5 c 128,-1,6
 151 23 151 23 151 58 c 2,7,-1
 151 130 l 2,8,9
 151 169 151 169 197 182 c 1,10,-1
 152 237 l 1,11,-1
 152 262 l 2,12,13
 152 306 152 306 179.5 347.5 c 128,-1,14
 207 389 207 389 240 416 c 0,15,16
 327 487 327 487 327 528 c 1,17,18
 326 529 326 529 317 529 c 0,19,20
 279 529 279 529 254 500.5 c 128,-1,21
 229 472 229 472 222 444 c 2,22,-1
 216 416 l 1,23,-1
 98 416 l 1,24,-1
 48 486 l 1,25,-1
 48 700 l 1,26,-1
 172 700 l 1,27,-1
 194 673 l 1,28,29
 248 712 248 712 326 712 c 0,30,31
 427 712 427 712 503.5 645 c 128,-1,32
 580 578 580 578 580 472 c 0,33,34
 580 422 580 422 557 382.5 c 128,-1,35
 534 343 534 343 501 319 c 128,-1,36
 468 295 468 295 435.5 276 c 128,-1,37
 403 257 403 257 380 239 c 128,-1,38
 357 221 357 221 357 202 c 2,39,-1
 357 177 l 1,40,-1
 283 177 l 1,41,42
 315 162 315 162 336 133 c 128,-1,43
 357 104 357 104 357 70 c 2,0,-1
336 586.5 m 128,-1,45
 356 557 356 557 356 529 c 128,-1,46
 356 501 356 501 337.5 475.5 c 128,-1,47
 319 450 319 450 293 427 c 128,-1,48
 267 404 267 404 241 380 c 0,49,50
 178 320 178 320 178 262 c 1,51,-1
 280 262 l 1,52,53
 280 309 280 309 358 352 c 1,54,55
 391 369 391 369 423 389.5 c 128,-1,56
 455 410 455 410 478 447 c 128,-1,57
 501 484 501 484 501 535 c 0,58,59
 501 603 501 603 450.5 643.5 c 128,-1,60
 400 684 400 684 325 684 c 0,61,62
 222 684 222 684 151 601 c 1,63,-1
 147 601 l 1,64,-1
 147 672 l 1,65,-1
 71 672 l 1,66,-1
 71 504 l 1,67,-1
 145 504 l 1,68,69
 172 616 172 616 267 616 c 0,70,44
 316 616 316 616 336 586.5 c 128,-1,45
234 27 m 128,-1,72
 290 27 290 27 290 72 c 2,73,-1
 290 116 l 2,74,75
 290 161 290 161 234 161 c 128,-1,76
 178 161 178 161 178 116 c 2,77,-1
 178 72 l 2,78,71
 178 27 178 27 234 27 c 128,-1,72
EndSplineSet
EndChar

StartChar: at
Encoding: 64 64 35
Width: 884
GlyphClass: 2
Flags: W
LayerCount: 2
Fore
SplineSet
252 343 m 0,0,1
 252 398 252 398 276 444 c 1,2,3
 222 377 222 377 222 290 c 0,4,5
 222 104 222 104 418 104 c 2,6,-1
 445 104 l 1,7,-1
 495 44 l 1,8,-1
 495 -72 l 1,9,-1
 468 -72 l 2,10,11
 377 -72 377 -72 298.5 -35.5 c 128,-1,12
 220 1 220 1 167.5 60.5 c 128,-1,13
 115 120 115 120 85.5 195.5 c 128,-1,14
 56 271 56 271 56 350 c 0,15,16
 56 500 56 500 162 606 c 128,-1,17
 268 712 268 712 418 712 c 0,18,19
 521 712 521 712 616.5 653 c 128,-1,20
 712 594 712 594 771 495.5 c 128,-1,21
 830 397 830 397 830 292 c 128,-1,22
 830 187 830 187 782.5 121 c 128,-1,23
 735 55 735 55 643.5 55 c 128,-1,24
 552 55 552 55 498 130 c 1,25,26
 470 114 470 114 444 114 c 0,27,28
 369 114 369 114 310.5 179 c 128,-1,29
 252 244 252 244 252 343 c 0,0,1
418 16 m 1,30,-1
 418 76 l 1,31,32
 293 76 293 76 218.5 154.5 c 128,-1,33
 144 233 144 233 144 348 c 128,-1,34
 144 463 144 463 224.5 543.5 c 128,-1,35
 305 624 305 624 418 624 c 128,-1,36
 531 624 531 624 611.5 543.5 c 128,-1,37
 692 463 692 463 692 350 c 0,38,39
 692 270 692 270 651 218 c 0,40,41
 627 187 627 187 592 187 c 0,42,43
 545 187 545 187 545 240 c 2,44,-1
 545 497 l 1,45,-1
 494 497 l 1,46,-1
 494 451 l 1,47,48
 447 498 447 498 399 498 c 128,-1,49
 351 498 351 498 315.5 456 c 128,-1,50
 280 414 280 414 280 343 c 0,51,52
 280 245 280 245 342 216 c 1,53,54
 369 202 369 202 394 202 c 0,55,56
 442 202 442 202 494 250 c 1,57,-1
 494 211 l 1,58,59
 502 176 502 176 523.5 158.5 c 128,-1,60
 545 141 545 141 591 141 c 0,61,62
 668 141 668 141 710 205.5 c 128,-1,63
 752 270 752 270 752 350 c 0,64,65
 752 488 752 488 654 586 c 128,-1,66
 556 684 556 684 418 684 c 128,-1,67
 280 684 280 684 182 586 c 128,-1,68
 84 488 84 488 84 347 c 128,-1,69
 84 206 84 206 173.5 111 c 128,-1,70
 263 16 263 16 418 16 c 1,30,-1
358.5 280 m 128,-1,72
 340 301 340 301 340 345.5 c 128,-1,73
 340 390 340 390 362.5 416.5 c 128,-1,74
 385 443 385 443 422 443 c 0,75,76
 498 443 498 443 498 347 c 0,77,78
 498 314 498 314 469 286.5 c 128,-1,79
 440 259 440 259 408.5 259 c 128,-1,71
 377 259 377 259 358.5 280 c 128,-1,72
664 350 m 0,80,81
 664 453 664 453 590 502 c 1,82,-1
 621 465 l 1,83,-1
 621 222 l 1,84,85
 642 240 642 240 653 279.5 c 128,-1,86
 664 319 664 319 664 350 c 0,80,81
475 352 m 2,87,-1
 475 358 l 1,88,-1
 467 358 l 2,89,90
 446 358 446 358 432.5 339.5 c 128,-1,91
 419 321 419 321 418 285 c 1,92,93
 439 290 439 290 457 311.5 c 128,-1,94
 475 333 475 333 475 352 c 2,87,-1
469 525 m 1,95,-1
 542 525 l 1,96,97
 506 536 506 536 470.5 536 c 128,-1,98
 435 536 435 536 398 526 c 1,99,100
 439 524 439 524 469 497 c 1,101,-1
 469 525 l 1,95,-1
EndSplineSet
EndChar

StartChar: A
Encoding: 65 65 36
Width: 806
GlyphClass: 2
Flags: W
LayerCount: 2
Fore
SplineSet
133 700 m 1,0,-1
 623 700 l 1,1,-1
 673 640 l 1,2,-1
 673 501 l 1,3,-1
 621 501 l 1,4,-1
 658 311 l 1,5,6
 667 312 667 312 686 312 c 1,7,-1
 736 252 l 1,8,-1
 748 180 l 1,9,10
 694 180 694 180 694 132 c 0,11,12
 694 103 694 103 701 103 c 0,13,14
 718 103 718 103 720 113 c 1,15,-1
 752 94 l 1,16,-1
 802 34 l 1,17,18
 802 -14 802 -14 778.5 -37 c 128,-1,19
 755 -60 755 -60 718.5 -60 c 128,-1,20
 682 -60 682 -60 635 -35 c 1,21,22
 598 -60 598 -60 563 -60 c 0,23,24
 508 -60 508 -60 459.5 -11 c 128,-1,25
 411 38 411 38 394 94 c 1,26,-1
 418 113 l 1,27,28
 426 103 426 103 441 103 c 0,29,30
 474 103 474 103 474 142 c 1,31,-1
 471 165 l 1,32,33
 452 175 452 175 424.5 175 c 128,-1,34
 397 175 397 175 372 159 c 128,-1,35
 347 143 347 143 338 113 c 1,36,-1
 362 94 l 1,37,-1
 412 34 l 1,38,39
 398 -13 398 -13 365.5 -36.5 c 128,-1,40
 333 -60 333 -60 296.5 -60 c 128,-1,41
 260 -60 260 -60 220 -35 c 1,42,43
 175 -60 175 -60 137 -60 c 0,44,45
 85 -60 85 -60 45.5 -10 c 128,-1,46
 6 40 6 40 6 94 c 1,47,-1
 37 113 l 1,48,49
 39 103 39 103 56.5 103 c 128,-1,50
 74 103 74 103 90.5 127 c 128,-1,51
 107 151 107 151 111 180 c 1,52,-1
 58 240 l 1,53,-1
 70 312 l 1,54,55
 113 312 113 312 135 306 c 1,56,-1
 175 510 l 1,57,-1
 133 561 l 1,58,-1
 133 700 l 1,0,-1
504 278 m 1,59,60
 513 285 513 285 524 303 c 1,61,-1
 550 303 l 1,62,63
 566 284 566 284 579 278 c 1,64,65
 583 285 583 285 595 295 c 1,66,-1
 538 590 l 1,67,-1
 595 590 l 1,68,-1
 595 672 l 1,69,-1
 161 672 l 1,70,-1
 161 590 l 1,71,-1
 218 590 l 1,72,-1
 160 295 l 1,73,74
 172 286 172 286 178 278 c 1,75,76
 190 285 190 285 206 303 c 1,77,-1
 232 303 l 1,78,79
 240 284 240 284 249 278 c 1,80,81
 287 316 287 316 377.5 316 c 128,-1,82
 468 316 468 316 504 278 c 1,59,60
582 61 m 1,83,84
 626 27 626 27 666.5 27 c 128,-1,85
 707 27 707 27 720 79 c 1,86,87
 715 75 715 75 706 75 c 0,88,89
 668 75 668 75 641.5 112.5 c 128,-1,90
 615 150 615 150 615 184 c 0,91,92
 615 255 615 255 670 263 c 1,93,-1
 666 287 l 1,94,95
 647 287 647 287 637.5 285.5 c 128,-1,96
 628 284 628 284 615 273.5 c 128,-1,97
 602 263 602 263 593 241 c 1,98,99
 570 245 570 245 541 275 c 1,100,101
 534 262 534 262 524.5 253.5 c 128,-1,102
 515 245 515 245 503 241 c 1,103,104
 464 289 464 289 377 289 c 128,-1,105
 290 289 290 289 253 241 c 1,106,107
 230 245 230 245 214 275 c 1,108,109
 190 249 190 249 164 241 c 1,110,111
 155 263 155 263 141.5 273.5 c 128,-1,112
 128 284 128 284 118 285.5 c 128,-1,113
 108 287 108 287 90 287 c 1,114,-1
 86 263 l 1,115,116
 114 259 114 259 127.5 239.5 c 128,-1,117
 141 220 141 220 141 185 c 128,-1,118
 141 150 141 150 114.5 112.5 c 128,-1,119
 88 75 88 75 51 75 c 1,120,-1
 37 79 l 1,121,122
 50 27 50 27 89.5 27 c 128,-1,123
 129 27 129 27 174 61 c 1,124,-1
 180 61 l 1,125,126
 214 27 214 27 248 27 c 0,127,128
 293 27 293 27 326 79 c 1,129,130
 318 75 318 75 308 75 c 0,131,132
 252 75 252 75 252 133 c 128,-1,133
 252 191 252 191 290 224.5 c 128,-1,134
 328 258 328 258 378 258 c 128,-1,135
 428 258 428 258 466 224.5 c 128,-1,136
 504 191 504 191 504 133 c 128,-1,137
 504 75 504 75 448 75 c 1,138,-1
 429 79 l 1,139,140
 461 27 461 27 508 27 c 0,141,142
 543 27 543 27 576 61 c 1,143,-1
 582 61 l 1,83,84
287 340 m 1,144,-1
 341 590 l 1,145,-1
 415 590 l 1,146,-1
 471 340 l 1,147,-1
 287 340 l 1,144,-1
410 485 m 1,148,-1
 384 366 l 1,149,-1
 437 366 l 1,150,-1
 410 485 l 1,148,-1
EndSplineSet
EndChar

StartChar: B
Encoding: 66 66 37
Width: 752
GlyphClass: 2
Flags: W
LayerCount: 2
Fore
SplineSet
752 179 m 1,0,1
 712 179 712 179 701 163 c 128,-1,2
 690 147 690 147 690 108 c 0,3,4
 690 -60 690 -60 420 -60 c 0,5,6
 347 -60 347 -60 313 -51 c 128,-1,7
 279 -42 279 -42 250 -21 c 1,8,9
 213 -60 213 -60 168 -60 c 0,10,11
 109 -60 109 -60 64.5 -10 c 128,-1,12
 20 40 20 40 12 95 c 1,13,-1
 39 113 l 1,14,15
 45 105 45 105 61 105 c 128,-1,16
 77 105 77 105 87 117.5 c 128,-1,17
 97 130 97 130 99 143.5 c 128,-1,18
 101 157 101 157 101 179 c 1,19,-1
 89 179 l 1,20,-1
 39 239 l 1,21,-1
 39 312 l 1,22,23
 83 312 83 312 101 309 c 1,24,-1
 101 499 l 1,25,-1
 90 499 l 1,26,-1
 40 559 l 1,27,-1
 40 700 l 1,28,-1
 402 700 l 2,29,30
 518 700 518 700 587.5 638.5 c 128,-1,31
 657 577 657 577 657 458 c 0,32,33
 657 391 657 391 620 340 c 1,34,35
 632 327 632 327 645 310 c 1,36,37
 661 312 661 312 702 312 c 1,38,-1
 752 252 l 1,39,-1
 752 179 l 1,0,1
153 279 m 1,40,41
 161 284 161 284 176 303 c 1,42,-1
 202 303 l 1,43,44
 215 285 215 285 225 279 c 1,45,46
 239 296 239 296 256 303 c 1,47,-1
 256 355 l 1,48,-1
 375 355 l 2,49,50
 447 355 447 355 470 307 c 1,51,52
 497 301 497 301 515 279 c 1,53,54
 525 287 525 287 538 303 c 1,55,-1
 565 303 l 1,56,57
 576 285 576 285 588 279 c 1,58,59
 595 289 595 289 607 297 c 1,60,61
 586 349 586 349 523 388 c 1,62,63
 579 439 579 439 579 517 c 0,64,65
 579 672 579 672 392 672 c 2,66,-1
 68 672 l 1,67,-1
 68 587 l 1,68,-1
 131 587 l 1,69,-1
 131 298 l 1,70,71
 141 293 141 293 153 279 c 1,40,41
486 205 m 0,72,73
 486 102 486 102 369.5 102 c 128,-1,74
 253 102 253 102 253 205 c 0,75,76
 253 223 253 223 267.5 242.5 c 128,-1,77
 282 262 282 262 315 262 c 1,78,-1
 315 286 l 1,79,80
 297 286 297 286 287 284.5 c 128,-1,81
 277 283 277 283 262 272.5 c 128,-1,82
 247 262 247 262 234 241 c 1,83,84
 210 246 210 246 189 275 c 1,85,86
 169 249 169 249 145 241 c 1,87,88
 132 262 132 262 117 272.5 c 128,-1,89
 102 283 102 283 92 284.5 c 128,-1,90
 82 286 82 286 64 286 c 1,91,-1
 64 262 l 1,92,93
 128 262 128 262 128 179 c 0,94,95
 128 147 128 147 124.5 128 c 128,-1,96
 121 109 121 109 105.5 93 c 128,-1,97
 90 77 90 77 60 77 c 1,98,-1
 43 79 l 1,99,100
 67 27 67 27 116 27 c 0,101,102
 139 27 139 27 156.5 38 c 128,-1,103
 174 49 174 49 196 73 c 1,104,-1
 204 73 l 1,105,106
 231 49 231 49 264.5 39 c 128,-1,107
 298 29 298 29 370 29 c 0,108,109
 612 29 612 29 612 169 c 0,110,111
 612 262 612 262 676 262 c 1,112,-1
 676 286 l 1,113,114
 658 286 658 286 648.5 284.5 c 128,-1,115
 639 283 639 283 624 272.5 c 128,-1,116
 609 262 609 262 596 241 c 1,117,118
 573 246 573 246 552 275 c 1,119,120
 532 249 532 249 505 241 c 1,121,122
 492 262 492 262 477.5 272.5 c 128,-1,123
 463 283 463 283 453.5 284.5 c 128,-1,124
 444 286 444 286 425 286 c 1,125,-1
 425 262 l 1,126,127
 458 262 458 262 472 243 c 128,-1,128
 486 224 486 224 486 205 c 0,72,73
333 407 m 2,129,-1
 256 407 l 1,130,-1
 256 587 l 1,131,-1
 333 587 l 2,132,133
 400 587 400 587 423.5 568 c 128,-1,134
 447 549 447 549 447 499 c 0,135,136
 447 407 447 407 333 407 c 2,129,-1
399 268 m 1,137,-1
 377 268 l 1,138,-1
 391 252 l 1,139,-1
 391 179 l 1,140,141
 332 177 332 177 332 140 c 2,142,-1
 332 135 l 1,143,144
 348 131 348 131 370 131 c 0,145,146
 443 131 443 131 456 179 c 1,147,-1
 449 179 l 1,148,-1
 399 239 l 1,149,-1
 399 268 l 1,137,-1
334 500 m 1,150,-1
 334 434 l 1,151,152
 395 434 395 434 409 458 c 0,153,154
 419 475 419 475 419 498 c 1,155,156
 418 500 418 500 383 500 c 2,157,-1
 334 500 l 1,150,-1
EndSplineSet
EndChar

StartChar: C
Encoding: 67 67 38
Width: 731
GlyphClass: 2
Flags: W
LayerCount: 2
Fore
SplineSet
484 278 m 1,0,1
 495 285 495 285 508 303 c 1,2,-1
 534 303 l 1,3,4
 547 284 547 284 558 278 c 1,5,6
 576 301 576 301 599.5 306.5 c 128,-1,7
 623 312 623 312 672 312 c 1,8,-1
 722 252 l 1,9,-1
 722 180 l 1,10,11
 683 180 683 180 672 165 c 128,-1,12
 661 150 661 150 661 118 c 2,13,-1
 661 108 l 2,14,15
 661 56 661 56 636.5 19 c 128,-1,16
 612 -18 612 -18 570 -37 c 0,17,18
 493 -72 493 -72 391 -72 c 0,19,20
 266 -72 266 -72 175 -18 c 0,21,22
 128 9 128 9 99.5 57 c 128,-1,23
 71 105 71 105 71 168 c 2,24,-1
 71 180 l 1,25,-1
 60 180 l 1,26,-1
 10 240 l 1,27,-1
 10 312 l 1,28,29
 53 312 53 312 71 309 c 1,30,-1
 71 531 l 2,31,32
 71 648 71 648 193 690 c 0,33,34
 255 712 255 712 329 712 c 128,-1,35
 403 712 403 712 458 698.5 c 128,-1,36
 513 685 513 685 559.5 657.5 c 128,-1,37
 606 630 606 630 633 582 c 128,-1,38
 660 534 660 534 660 471 c 2,39,-1
 660 370 l 1,40,-1
 466 370 l 1,41,-1
 416 430 l 1,42,-1
 416 502 l 1,43,-1
 415 518 l 1,44,45
 406 521 406 521 389 521 c 0,46,47
 315 521 315 521 315 442 c 2,48,-1
 315 308 l 1,49,-1
 362 252 l 1,50,-1
 362 180 l 1,51,52
 303 178 303 178 303 140 c 2,53,-1
 303 132 l 1,54,55
 319 127 319 127 341 127 c 0,56,57
 415 127 415 127 427 180 c 1,58,-1
 420 180 l 1,59,-1
 370 240 l 1,60,-1
 370 312 l 1,61,62
 404 312 404 312 420 311 c 0,63,64
 459 308 459 308 484 278 c 1,0,1
124 278 m 1,65,66
 134 286 134 286 148 303 c 1,67,-1
 174 303 l 1,68,69
 186 284 186 284 198 278 c 1,70,71
 213 297 213 297 237 305 c 1,72,-1
 237 503 l 2,73,74
 237 555 237 555 264 583 c 128,-1,75
 291 611 291 611 340 611 c 128,-1,76
 389 611 389 611 417 583.5 c 128,-1,77
 445 556 445 556 445 503 c 2,78,-1
 445 458 l 1,79,-1
 582 458 l 1,80,-1
 582 529 l 2,81,82
 582 584 582 584 544.5 620 c 128,-1,83
 507 656 507 656 455 669.5 c 128,-1,84
 403 683 403 683 348 683 c 128,-1,85
 293 683 293 683 252.5 675 c 128,-1,86
 212 667 212 667 176.5 650 c 128,-1,87
 141 633 141 633 120 602 c 128,-1,88
 99 571 99 571 99 529 c 2,89,-1
 99 299 l 1,90,91
 112 292 112 292 124 278 c 1,65,66
582 169 m 2,92,-1
 582 178 l 2,93,94
 582 263 582 263 647 263 c 1,95,-1
 647 287 l 1,96,97
 606 287 606 287 586 267 c 0,98,99
 576 257 576 257 566 241 c 1,100,101
 545 245 545 245 522 275 c 1,102,103
 504 249 504 249 477 241 c 1,104,105
 464 262 464 262 448.5 273 c 128,-1,106
 433 284 433 284 423.5 285.5 c 128,-1,107
 414 287 414 287 397 287 c 1,108,-1
 397 263 l 1,109,110
 428 263 428 263 442 243 c 128,-1,111
 456 223 456 223 456 205 c 0,112,113
 456 99 456 99 341 99 c 128,-1,114
 226 99 226 99 226 205 c 0,115,116
 226 224 226 224 240 243.5 c 128,-1,117
 254 263 254 263 285 263 c 1,118,-1
 285 287 l 1,119,120
 267 287 267 287 257.5 285.5 c 128,-1,121
 248 284 248 284 233 273.5 c 128,-1,122
 218 263 218 263 205 241 c 1,123,124
 181 245 181 245 160 275 c 1,125,126
 140 249 140 249 116 241 c 1,127,128
 103 262 103 262 88 273 c 128,-1,129
 73 284 73 284 63 285.5 c 128,-1,130
 53 287 53 287 35 287 c 1,131,-1
 35 263 l 1,132,133
 100 263 100 263 100 178 c 2,134,-1
 100 169 l 2,135,136
 100 114 100 114 138 78 c 128,-1,137
 176 42 176 42 227.5 28.5 c 128,-1,138
 279 15 279 15 341 15 c 128,-1,139
 403 15 403 15 454.5 28.5 c 128,-1,140
 506 42 506 42 544 78 c 128,-1,141
 582 114 582 114 582 169 c 2,92,-1
EndSplineSet
EndChar

StartChar: D
Encoding: 68 68 39
Width: 763
GlyphClass: 2
Flags: W
LayerCount: 2
Fore
SplineSet
692 458 m 2,0,-1
 692 312 l 1,1,-1
 705 312 l 1,2,-1
 755 252 l 1,3,-1
 755 179 l 1,4,5
 715 179 715 179 704 163 c 128,-1,6
 693 147 693 147 693 108 c 0,7,8
 693 -60 693 -60 423 -60 c 0,9,10
 350 -60 350 -60 316 -51 c 128,-1,11
 282 -42 282 -42 253 -21 c 1,12,13
 216 -60 216 -60 171 -60 c 0,14,15
 112 -60 112 -60 67.5 -10 c 128,-1,16
 23 40 23 40 15 95 c 1,17,-1
 42 113 l 1,18,19
 48 105 48 105 64 105 c 128,-1,20
 80 105 80 105 90 117.5 c 128,-1,21
 100 130 100 130 102 143.5 c 128,-1,22
 104 157 104 157 104 179 c 1,23,-1
 92 179 l 1,24,-1
 42 239 l 1,25,-1
 42 312 l 1,26,27
 86 312 86 312 104 309 c 1,28,-1
 104 499 l 1,29,-1
 96 499 l 1,30,-1
 46 559 l 1,31,-1
 46 700 l 1,32,-1
 390 700 l 2,33,34
 510 700 510 700 597 646 c 0,35,36
 641 618 641 618 666.5 569.5 c 128,-1,37
 692 521 692 521 692 458 c 2,0,-1
518 279 m 1,38,39
 528 287 528 287 541 303 c 1,40,-1
 568 303 l 1,41,42
 579 285 579 285 591 279 c 1,43,44
 601 292 601 292 614 299 c 1,45,-1
 614 517 l 2,46,47
 614 597 614 597 550 634.5 c 128,-1,48
 486 672 486 672 390 672 c 2,49,-1
 74 672 l 1,50,-1
 74 587 l 1,51,-1
 134 587 l 1,52,-1
 134 298 l 1,53,54
 144 293 144 293 156 279 c 1,55,56
 164 284 164 284 179 303 c 1,57,-1
 205 303 l 1,58,59
 218 285 218 285 228 279 c 1,60,61
 243 297 243 297 262 304 c 1,62,-1
 262 587 l 1,63,-1
 372 587 l 2,64,65
 422 587 422 587 452 561 c 128,-1,66
 482 535 482 535 482 486 c 2,67,-1
 482 305 l 1,68,69
 503 297 503 297 518 279 c 1,38,39
489 205 m 0,70,71
 489 102 489 102 372.5 102 c 128,-1,72
 256 102 256 102 256 205 c 0,73,74
 256 223 256 223 270.5 242.5 c 128,-1,75
 285 262 285 262 318 262 c 1,76,-1
 318 286 l 1,77,78
 300 286 300 286 290 284.5 c 128,-1,79
 280 283 280 283 265 272.5 c 128,-1,80
 250 262 250 262 237 241 c 1,81,82
 213 246 213 246 192 275 c 1,83,84
 172 249 172 249 148 241 c 1,85,86
 135 262 135 262 120 272.5 c 128,-1,87
 105 283 105 283 95 284.5 c 128,-1,88
 85 286 85 286 67 286 c 1,89,-1
 67 262 l 1,90,91
 131 262 131 262 131 179 c 0,92,93
 131 147 131 147 127.5 128 c 128,-1,94
 124 109 124 109 108.5 93 c 128,-1,95
 93 77 93 77 63 77 c 1,96,-1
 46 79 l 1,97,98
 70 27 70 27 119 27 c 0,99,100
 142 27 142 27 159.5 38 c 128,-1,101
 177 49 177 49 199 73 c 1,102,-1
 207 73 l 1,103,104
 234 49 234 49 267.5 39 c 128,-1,105
 301 29 301 29 373 29 c 0,106,107
 615 29 615 29 615 169 c 0,108,109
 615 262 615 262 679 262 c 1,110,-1
 679 286 l 1,111,112
 661 286 661 286 651.5 284.5 c 128,-1,113
 642 283 642 283 627 272.5 c 128,-1,114
 612 262 612 262 599 241 c 1,115,116
 576 246 576 246 555 275 c 1,117,118
 535 249 535 249 508 241 c 1,119,120
 495 262 495 262 480.5 272.5 c 128,-1,121
 466 283 466 283 456.5 284.5 c 128,-1,122
 447 286 447 286 428 286 c 1,123,-1
 428 262 l 1,124,125
 461 262 461 262 475 243 c 128,-1,126
 489 224 489 224 489 205 c 0,70,71
402 312 m 1,127,128
 439 312 439 312 454 310 c 1,129,-1
 454 482 l 1,130,-1
 453 495 l 1,131,132
 441 499 441 499 422 499 c 2,133,-1
 340 499 l 1,134,-1
 340 312 l 1,135,-1
 344 312 l 1,136,-1
 394 252 l 1,137,-1
 394 179 l 1,138,139
 335 177 335 177 335 140 c 2,140,-1
 335 135 l 1,141,142
 351 131 351 131 373 131 c 0,143,144
 446 131 446 131 459 179 c 1,145,-1
 452 179 l 1,146,-1
 402 239 l 1,147,-1
 402 312 l 1,127,128
EndSplineSet
EndChar

StartChar: E
Encoding: 69 69 40
Width: 656
GlyphClass: 2
Flags: W
LayerCount: 2
Fore
SplineSet
617 13 m 2,0,1
 617 -22 617 -22 635 -33 c 1,2,-1
 617 -60 l 1,3,4
 591 -60 591 -60 562.5 -47 c 128,-1,5
 534 -34 534 -34 518 -19 c 1,6,7
 501 -34 501 -34 460.5 -47 c 128,-1,8
 420 -60 420 -60 384 -60 c 0,9,10
 311 -60 311 -60 265 -21 c 1,11,12
 224 -60 224 -60 171.5 -60 c 128,-1,13
 119 -60 119 -60 74.5 -9.5 c 128,-1,14
 30 41 30 41 23 95 c 1,15,-1
 51 113 l 1,16,17
 56 105 56 105 71 105 c 0,18,19
 111 105 111 105 111 179 c 1,20,-1
 101 179 l 1,21,-1
 51 239 l 1,22,-1
 51 312 l 1,23,24
 93 312 93 312 110 309 c 1,25,-1
 110 499 l 1,26,-1
 82 499 l 1,27,-1
 32 559 l 1,28,-1
 32 700 l 1,29,-1
 569 700 l 1,30,-1
 619 640 l 1,31,-1
 619 396 l 1,32,-1
 503 396 l 1,33,-1
 453 456 l 1,34,-1
 453 499 l 1,35,-1
 346 499 l 1,36,-1
 346 441 l 1,37,-1
 417 441 l 1,38,-1
 467 381 l 1,39,-1
 467 265 l 1,40,-1
 392 265 l 1,41,-1
 403 252 l 1,42,-1
 403 179 l 1,43,44
 387 178 387 178 377 176.5 c 128,-1,45
 367 175 367 175 356 166 c 128,-1,46
 345 157 345 157 345 140 c 2,47,-1
 345 136 l 1,48,49
 359 131 359 131 385 131 c 128,-1,50
 411 131 411 131 434 147 c 128,-1,51
 457 163 457 163 457 192 c 0,52,53
 457 197 457 197 451 221 c 1,54,-1
 451 253 l 1,55,-1
 567 253 l 1,56,-1
 617 193 l 1,57,-1
 617 13 l 2,0,1
165 279 m 1,58,59
 175 285 175 285 189 303 c 1,60,-1
 216 303 l 1,61,62
 229 285 229 285 239 279 c 1,63,64
 250 293 250 293 266 301 c 1,65,-1
 266 353 l 1,66,-1
 389 353 l 1,67,-1
 389 413 l 1,68,-1
 266 413 l 1,69,-1
 266 587 l 1,70,-1
 481 587 l 1,71,-1
 481 484 l 1,72,-1
 541 484 l 1,73,-1
 541 672 l 1,74,-1
 60 672 l 1,75,-1
 60 587 l 1,76,-1
 140 587 l 1,77,-1
 140 300 l 1,78,79
 153 293 153 293 165 279 c 1,58,59
484 188 m 0,80,81
 484 148 484 148 453.5 125 c 128,-1,82
 423 102 423 102 379 102 c 128,-1,83
 335 102 335 102 300.5 127.5 c 128,-1,84
 266 153 266 153 266 205 c 0,85,86
 266 223 266 223 280.5 242.5 c 128,-1,87
 295 262 295 262 327 262 c 1,88,-1
 327 286 l 1,89,90
 309 286 309 286 299.5 284.5 c 128,-1,91
 290 283 290 283 275 272.5 c 128,-1,92
 260 262 260 262 248 241 c 1,93,94
 224 246 224 246 202 275 c 1,95,96
 184 249 184 249 157 241 c 1,97,98
 144 262 144 262 129 272.5 c 128,-1,99
 114 283 114 283 104.5 284.5 c 128,-1,100
 95 286 95 286 77 286 c 1,101,-1
 77 262 l 1,102,103
 111 262 111 262 126.5 238.5 c 128,-1,104
 142 215 142 215 142 173 c 128,-1,105
 142 131 142 131 128.5 104 c 128,-1,106
 115 77 115 77 72 77 c 1,107,-1
 58 79 l 1,108,109
 76 28 76 28 121 28 c 128,-1,110
 166 28 166 28 209 73 c 1,111,-1
 218 73 l 1,112,-1
 222 69 l 1,113,114
 270 29 270 29 338.5 29 c 128,-1,115
 407 29 407 29 468 76 c 1,116,117
 477 67 477 67 505 50.5 c 128,-1,118
 533 34 533 34 549 31 c 1,119,120
 540 41 540 41 540 83 c 2,121,-1
 540 223 l 1,122,-1
 479 223 l 1,123,124
 484 206 484 206 484 188 c 0,80,81
EndSplineSet
EndChar

StartChar: F
Encoding: 70 70 41
Width: 636
GlyphClass: 2
Flags: W
LayerCount: 2
Fore
SplineSet
468 265 m 1,0,-1
 394 265 l 1,1,-1
 405 252 l 1,2,-1
 405 179 l 1,3,4
 366 179 366 179 354.5 165 c 128,-1,5
 343 151 343 151 343 120 c 2,6,-1
 343 105 l 1,7,8
 350 105 350 105 355 113 c 1,9,-1
 383 95 l 1,10,-1
 433 35 l 1,11,12
 427 -12 427 -12 399 -36 c 128,-1,13
 371 -60 371 -60 331.5 -60 c 128,-1,14
 292 -60 292 -60 254 -33 c 1,15,16
 216 -60 216 -60 175.5 -60 c 128,-1,17
 135 -60 135 -60 83 -12 c 128,-1,18
 31 36 31 36 25 95 c 1,19,-1
 53 113 l 1,20,21
 57 104 57 104 72 104 c 0,22,23
 115 104 115 104 115 179 c 1,24,-1
 103 179 l 1,25,-1
 53 239 l 1,26,-1
 53 312 l 1,27,28
 94 312 94 312 111 309 c 1,29,-1
 111 499 l 1,30,-1
 83 499 l 1,31,-1
 33 559 l 1,32,-1
 33 700 l 1,33,-1
 570 700 l 1,34,-1
 620 640 l 1,35,-1
 620 396 l 1,36,-1
 504 396 l 1,37,-1
 454 456 l 1,38,-1
 454 499 l 1,39,-1
 347 499 l 1,40,-1
 347 441 l 1,41,-1
 418 441 l 1,42,-1
 468 381 l 1,43,-1
 468 265 l 1,0,-1
167 279 m 1,44,45
 177 285 177 285 191 303 c 1,46,-1
 217 303 l 1,47,48
 230 285 230 285 241 279 c 1,49,50
 251 293 251 293 267 301 c 1,51,-1
 267 353 l 1,52,-1
 390 353 l 1,53,-1
 390 413 l 1,54,-1
 267 413 l 1,55,-1
 267 587 l 1,56,-1
 482 587 l 1,57,-1
 482 484 l 1,58,-1
 542 484 l 1,59,-1
 542 672 l 1,60,-1
 61 672 l 1,61,-1
 61 587 l 1,62,-1
 141 587 l 1,63,-1
 141 301 l 1,64,65
 155 294 155 294 167 279 c 1,44,45
207 61 m 1,66,67
 243 30 243 30 286.5 30 c 128,-1,68
 330 30 330 30 350 80 c 1,69,70
 343 76 343 76 334 76 c 0,71,72
 264 76 264 76 264 179 c 0,73,74
 264 263 264 263 330 263 c 1,75,-1
 330 288 l 1,76,77
 311 288 311 288 301 286.5 c 128,-1,78
 291 285 291 285 276 274 c 128,-1,79
 261 263 261 263 249 241 c 1,80,81
 225 246 225 246 204 276 c 1,82,83
 183 249 183 249 159 241 c 1,84,85
 146 263 146 263 131 274 c 128,-1,86
 116 285 116 285 106 286.5 c 128,-1,87
 96 288 96 288 78 288 c 1,88,-1
 78 263 l 1,89,90
 144 263 144 263 144 179 c 0,91,92
 144 103 144 103 112 84 c 0,93,94
 97 76 97 76 74 76 c 1,95,-1
 58 80 l 1,96,97
 78 30 78 30 121.5 30 c 128,-1,98
 165 30 165 30 201 61 c 1,99,-1
 207 61 l 1,66,67
EndSplineSet
EndChar

StartChar: G
Encoding: 71 71 42
Width: 763
GlyphClass: 2
Flags: W
LayerCount: 2
Fore
SplineSet
481 279 m 1,0,1
 491 287 491 287 504 303 c 1,2,-1
 530 303 l 1,3,4
 542 285 542 285 553 279 c 1,5,6
 571 301 571 301 594.5 306.5 c 128,-1,7
 618 312 618 312 667 312 c 1,8,-1
 717 252 l 1,9,-1
 717 179 l 1,10,11
 679 179 679 179 667 165 c 128,-1,12
 655 151 655 151 655 122 c 2,13,-1
 655 106 l 1,14,15
 662 107 662 107 667 113 c 1,16,-1
 694 95 l 1,17,-1
 744 35 l 1,18,19
 737 -12 737 -12 709 -36 c 128,-1,20
 681 -60 681 -60 637 -60 c 128,-1,21
 593 -60 593 -60 556 -21 c 1,22,23
 532 -39 532 -39 518.5 -47 c 128,-1,24
 505 -55 505 -55 470 -63.5 c 128,-1,25
 435 -72 435 -72 368 -72 c 128,-1,26
 301 -72 301 -72 231.5 -49.5 c 128,-1,27
 162 -27 162 -27 114 29 c 128,-1,28
 66 85 66 85 66 168 c 2,29,-1
 66 179 l 1,30,-1
 54 179 l 1,31,-1
 4 239 l 1,32,-1
 4 312 l 1,33,34
 48 312 48 312 66 309 c 1,35,-1
 66 531 l 2,36,37
 66 648 66 648 188 690 c 0,38,39
 250 712 250 712 324 712 c 128,-1,40
 398 712 398 712 453 698.5 c 128,-1,41
 508 685 508 685 554.5 657.5 c 128,-1,42
 601 630 601 630 628 582 c 128,-1,43
 655 534 655 534 655 471 c 2,44,-1
 655 370 l 1,45,-1
 461 370 l 1,46,-1
 411 430 l 1,47,-1
 411 502 l 1,48,-1
 410 518 l 1,49,50
 401 521 401 521 384 521 c 0,51,52
 310 521 310 521 310 442 c 2,53,-1
 310 308 l 1,54,-1
 357 252 l 1,55,-1
 357 179 l 1,56,57
 340 178 340 178 329.5 176.5 c 128,-1,58
 319 175 319 175 308 166 c 128,-1,59
 297 157 297 157 297 140 c 1,60,-1
 298 125 l 1,61,62
 314 119 314 119 342.5 119 c 128,-1,63
 371 119 371 119 393.5 135 c 128,-1,64
 416 151 416 151 422 179 c 1,65,-1
 415 179 l 1,66,-1
 365 239 l 1,67,-1
 365 312 l 1,68,69
 399 312 399 312 415 311 c 0,70,71
 459 308 459 308 481 279 c 1,0,1
118 279 m 1,72,73
 130 286 130 286 141 303 c 1,74,-1
 168 303 l 1,75,76
 181 285 181 285 191 279 c 1,77,78
 209 300 209 300 232 306 c 1,79,-1
 232 503 l 2,80,81
 232 555 232 555 259 583 c 128,-1,82
 286 611 286 611 335 611 c 128,-1,83
 384 611 384 611 412 583.5 c 128,-1,84
 440 556 440 556 440 503 c 2,85,-1
 440 458 l 1,86,-1
 577 458 l 1,87,-1
 577 529 l 2,88,89
 577 584 577 584 539.5 620 c 128,-1,90
 502 656 502 656 450 669.5 c 128,-1,91
 398 683 398 683 343 683 c 128,-1,92
 288 683 288 683 247.5 675 c 128,-1,93
 207 667 207 667 171.5 650 c 128,-1,94
 136 633 136 633 115 602 c 128,-1,95
 94 571 94 571 94 529 c 2,96,-1
 94 300 l 1,97,98
 108 292 108 292 118 279 c 1,72,73
336 90 m 128,-1,100
 283 90 283 90 251.5 120 c 128,-1,101
 220 150 220 150 220 205 c 0,102,103
 220 224 220 224 234 243 c 128,-1,104
 248 262 248 262 281 262 c 1,105,-1
 281 286 l 1,106,107
 262 286 262 286 252.5 284.5 c 128,-1,108
 243 283 243 283 228.5 272.5 c 128,-1,109
 214 262 214 262 201 241 c 1,110,111
 176 246 176 246 154 275 c 1,112,113
 136 249 136 249 110 241 c 1,114,115
 97 262 97 262 82 272.5 c 128,-1,116
 67 283 67 283 57.5 284.5 c 128,-1,117
 48 286 48 286 30 286 c 1,118,-1
 30 262 l 1,119,120
 94 262 94 262 94 169 c 0,121,122
 94 115 94 115 132 80 c 0,123,124
 199 17 199 17 336 17 c 0,125,126
 384 17 384 17 418.5 26.5 c 128,-1,127
 453 36 453 36 466.5 45 c 128,-1,128
 480 54 480 54 502 73 c 1,129,-1
 510 73 l 1,130,131
 532 49 532 49 549.5 38 c 128,-1,132
 567 27 567 27 590 27 c 0,133,134
 639 27 639 27 663 79 c 1,135,136
 657 77 657 77 646 77 c 0,137,138
 616 77 616 77 600.5 93 c 128,-1,139
 585 109 585 109 581.5 128 c 128,-1,140
 578 147 578 147 578 179 c 0,141,142
 578 262 578 262 642 262 c 1,143,-1
 642 286 l 1,144,145
 624 286 624 286 614 284.5 c 128,-1,146
 604 283 604 283 589 272.5 c 128,-1,147
 574 262 574 262 561 241 c 1,148,149
 539 246 539 246 517 275 c 1,150,151
 499 249 499 249 472 241 c 1,152,153
 459 262 459 262 444 272.5 c 128,-1,154
 429 283 429 283 419 284.5 c 128,-1,155
 409 286 409 286 391 286 c 1,156,-1
 391 262 l 1,157,158
 424 262 424 262 438.5 242.5 c 128,-1,159
 453 223 453 223 453 205 c 0,160,161
 453 150 453 150 421 120 c 128,-1,99
 389 90 389 90 336 90 c 128,-1,100
EndSplineSet
EndChar

StartChar: H
Encoding: 72 72 43
Width: 855
GlyphClass: 2
Flags: W
LayerCount: 2
Fore
SplineSet
54 312 m 1,0,1
 95 312 95 312 112 309 c 1,2,-1
 112 499 l 1,3,-1
 104 499 l 1,4,-1
 54 559 l 1,5,-1
 54 700 l 1,6,-1
 358 700 l 1,7,-1
 408 640 l 1,8,-1
 408 499 l 1,9,-1
 348 499 l 1,10,-1
 348 439 l 1,11,-1
 506 439 l 1,12,-1
 506 499 l 1,13,-1
 498 499 l 1,14,-1
 448 559 l 1,15,-1
 448 700 l 1,16,-1
 752 700 l 1,17,-1
 802 640 l 1,18,-1
 802 499 l 1,19,-1
 742 499 l 1,20,-1
 742 312 l 1,21,-1
 750 312 l 1,22,-1
 800 252 l 1,23,-1
 800 179 l 1,24,25
 761 179 761 179 749.5 165 c 128,-1,26
 738 151 738 151 738 120 c 2,27,-1
 738 105 l 1,28,29
 745 105 745 105 750 113 c 1,30,-1
 778 95 l 1,31,-1
 828 35 l 1,32,33
 822 -12 822 -12 794 -36 c 128,-1,34
 766 -60 766 -60 726.5 -60 c 128,-1,35
 687 -60 687 -60 649 -33 c 1,36,37
 611 -60 611 -60 570.5 -60 c 128,-1,38
 530 -60 530 -60 478 -12 c 128,-1,39
 426 36 426 36 420 95 c 1,40,-1
 448 113 l 1,41,42
 452 104 452 104 467 104 c 0,43,44
 510 104 510 104 510 179 c 1,45,-1
 498 179 l 1,46,-1
 448 239 l 1,47,-1
 448 265 l 1,48,-1
 395 265 l 1,49,-1
 406 252 l 1,50,-1
 406 179 l 1,51,52
 367 179 367 179 355.5 165 c 128,-1,53
 344 151 344 151 344 120 c 2,54,-1
 344 105 l 1,55,56
 351 105 351 105 356 113 c 1,57,-1
 384 95 l 1,58,-1
 434 35 l 1,59,60
 428 -12 428 -12 400 -36 c 128,-1,61
 372 -60 372 -60 332.5 -60 c 128,-1,62
 293 -60 293 -60 255 -33 c 1,63,64
 217 -60 217 -60 176.5 -60 c 128,-1,65
 136 -60 136 -60 84 -12 c 128,-1,66
 32 36 32 36 26 95 c 1,67,-1
 54 113 l 1,68,69
 58 104 58 104 73 104 c 0,70,71
 116 104 116 104 116 179 c 1,72,-1
 104 179 l 1,73,-1
 54 239 l 1,74,-1
 54 312 l 1,0,1
168 279 m 1,75,76
 178 285 178 285 192 303 c 1,77,-1
 218 303 l 1,78,79
 231 285 231 285 242 279 c 1,80,81
 252 293 252 293 268 301 c 1,82,-1
 268 352 l 1,83,-1
 536 352 l 1,84,-1
 536 301 l 1,85,86
 550 294 550 294 562 279 c 1,87,88
 572 285 572 285 586 303 c 1,89,-1
 612 303 l 1,90,91
 625 285 625 285 636 279 c 1,92,93
 646 293 646 293 662 301 c 1,94,-1
 662 587 l 1,95,-1
 724 587 l 1,96,-1
 724 672 l 1,97,-1
 476 672 l 1,98,-1
 476 587 l 1,99,-1
 536 587 l 1,100,-1
 536 412 l 1,101,-1
 268 412 l 1,102,-1
 268 587 l 1,103,-1
 330 587 l 1,104,-1
 330 672 l 1,105,-1
 82 672 l 1,106,-1
 82 587 l 1,107,-1
 142 587 l 1,108,-1
 142 301 l 1,109,110
 156 294 156 294 168 279 c 1,75,76
602 61 m 1,111,112
 638 30 638 30 681.5 30 c 128,-1,113
 725 30 725 30 745 80 c 1,114,115
 738 76 738 76 729 76 c 0,116,117
 659 76 659 76 659 179 c 0,118,119
 659 263 659 263 725 263 c 1,120,-1
 725 288 l 1,121,122
 706 288 706 288 696 286.5 c 128,-1,123
 686 285 686 285 671 274 c 128,-1,124
 656 263 656 263 644 241 c 1,125,126
 620 246 620 246 599 276 c 1,127,128
 578 249 578 249 554 241 c 1,129,130
 541 263 541 263 526 274 c 128,-1,131
 511 285 511 285 501 286.5 c 128,-1,132
 491 288 491 288 473 288 c 1,133,-1
 473 263 l 1,134,135
 539 263 539 263 539 179 c 0,136,137
 539 103 539 103 507 84 c 0,138,139
 492 76 492 76 469 76 c 1,140,-1
 453 80 l 1,141,142
 473 30 473 30 516.5 30 c 128,-1,143
 560 30 560 30 596 61 c 1,144,-1
 602 61 l 1,111,112
208 61 m 1,145,146
 244 30 244 30 287.5 30 c 128,-1,147
 331 30 331 30 351 80 c 1,148,149
 344 76 344 76 335 76 c 0,150,151
 265 76 265 76 265 179 c 0,152,153
 265 263 265 263 331 263 c 1,154,-1
 331 288 l 1,155,156
 312 288 312 288 302 286.5 c 128,-1,157
 292 285 292 285 277 274 c 128,-1,158
 262 263 262 263 250 241 c 1,159,160
 226 246 226 246 205 276 c 1,161,162
 184 249 184 249 160 241 c 1,163,164
 147 263 147 263 132 274 c 128,-1,165
 117 285 117 285 107 286.5 c 128,-1,166
 97 288 97 288 79 288 c 1,167,-1
 79 263 l 1,168,169
 145 263 145 263 145 179 c 0,170,171
 145 103 145 103 113 84 c 0,172,173
 98 76 98 76 75 76 c 1,174,-1
 59 80 l 1,175,176
 79 30 79 30 122.5 30 c 128,-1,177
 166 30 166 30 202 61 c 1,178,-1
 208 61 l 1,145,146
EndSplineSet
EndChar

StartChar: I
Encoding: 73 73 44
Width: 463
GlyphClass: 2
Flags: W
LayerCount: 2
Fore
SplineSet
410 499 m 1,0,-1
 350 499 l 1,1,-1
 350 312 l 1,2,-1
 358 312 l 1,3,-1
 408 252 l 1,4,-1
 408 179 l 1,5,6
 369 179 369 179 357.5 165 c 128,-1,7
 346 151 346 151 346 120 c 2,8,-1
 346 105 l 1,9,10
 353 105 353 105 358 113 c 1,11,-1
 386 95 l 1,12,-1
 436 35 l 1,13,14
 430 -12 430 -12 402 -36 c 128,-1,15
 374 -60 374 -60 334.5 -60 c 128,-1,16
 295 -60 295 -60 257 -33 c 1,17,18
 219 -60 219 -60 178.5 -60 c 128,-1,19
 138 -60 138 -60 86 -12 c 128,-1,20
 34 36 34 36 28 95 c 1,21,-1
 56 113 l 1,22,23
 60 104 60 104 75 104 c 0,24,25
 118 104 118 104 118 179 c 1,26,-1
 106 179 l 1,27,-1
 56 239 l 1,28,-1
 56 312 l 1,29,30
 97 312 97 312 114 309 c 1,31,-1
 114 499 l 1,32,-1
 106 499 l 1,33,-1
 56 559 l 1,34,-1
 56 700 l 1,35,-1
 360 700 l 1,36,-1
 410 640 l 1,37,-1
 410 499 l 1,0,-1
170 279 m 1,38,39
 180 285 180 285 194 303 c 1,40,-1
 220 303 l 1,41,42
 233 285 233 285 244 279 c 1,43,44
 254 293 254 293 270 301 c 1,45,-1
 270 587 l 1,46,-1
 332 587 l 1,47,-1
 332 672 l 1,48,-1
 84 672 l 1,49,-1
 84 587 l 1,50,-1
 144 587 l 1,51,-1
 144 301 l 1,52,53
 158 294 158 294 170 279 c 1,38,39
210 61 m 1,54,55
 246 30 246 30 289.5 30 c 128,-1,56
 333 30 333 30 353 80 c 1,57,58
 346 76 346 76 337 76 c 0,59,60
 267 76 267 76 267 179 c 0,61,62
 267 263 267 263 333 263 c 1,63,-1
 333 288 l 1,64,65
 314 288 314 288 304 286.5 c 128,-1,66
 294 285 294 285 279 274 c 128,-1,67
 264 263 264 263 252 241 c 1,68,69
 228 246 228 246 207 276 c 1,70,71
 186 249 186 249 162 241 c 1,72,73
 149 263 149 263 134 274 c 128,-1,74
 119 285 119 285 109 286.5 c 128,-1,75
 99 288 99 288 81 288 c 1,76,-1
 81 263 l 1,77,78
 147 263 147 263 147 179 c 0,79,80
 147 103 147 103 115 84 c 0,81,82
 100 76 100 76 77 76 c 1,83,-1
 61 80 l 1,84,85
 81 30 81 30 124.5 30 c 128,-1,86
 168 30 168 30 204 61 c 1,87,-1
 210 61 l 1,54,55
EndSplineSet
EndChar

StartChar: J
Encoding: 74 74 45
Width: 656
GlyphClass: 2
Flags: W
LayerCount: 2
Fore
SplineSet
335 499 m 1,0,-1
 327 499 l 1,1,-1
 277 559 l 1,2,-1
 277 700 l 1,3,-1
 581 700 l 1,4,-1
 631 640 l 1,5,-1
 631 499 l 1,6,-1
 571 499 l 1,7,-1
 571 312 l 1,8,-1
 581 312 l 1,9,-1
 631 252 l 1,10,-1
 631 179 l 1,11,12
 593 179 593 179 581.5 164.5 c 128,-1,13
 570 150 570 150 570 121 c 2,14,-1
 570 106 l 2,15,16
 570 55 570 55 547.5 18 c 128,-1,17
 525 -19 525 -19 486 -38 c 0,18,19
 412 -72 412 -72 325.5 -72 c 128,-1,20
 239 -72 239 -72 168.5 -43.5 c 128,-1,21
 98 -15 98 -15 49 41 c 128,-1,22
 0 97 0 97 0 166 c 2,23,-1
 0 220 l 1,24,-1
 110 220 l 1,25,26
 124 193 124 193 134 187 c 1,27,28
 154 216 154 216 198 219 c 0,29,30
 213 220 213 220 246 220 c 1,31,-1
 296 160 l 1,32,-1
 296 108 l 1,33,34
 319 117 319 117 331 138 c 1,35,-1
 299 177 l 1,36,-1
 299 246 l 1,37,38
 314 247 314 247 335 251 c 1,39,-1
 335 499 l 1,0,-1
490 181 m 2,40,41
 490 262 490 262 556 262 c 1,42,-1
 556 286 l 1,43,44
 513 286 513 286 493 263 c 0,45,46
 485 253 485 253 478 241 c 1,47,48
 454 247 454 247 432 271 c 1,49,50
 421 256 421 256 391.5 241.5 c 128,-1,51
 362 227 362 227 330 224 c 1,52,-1
 330 203 l 1,53,-1
 366 203 l 1,54,-1
 366 174 l 2,55,56
 366 124 366 124 334.5 98.5 c 128,-1,57
 303 73 303 73 268 73 c 128,-1,58
 233 73 233 73 209.5 88.5 c 128,-1,59
 186 104 186 104 186 135 c 0,60,61
 186 151 186 151 196.5 160.5 c 128,-1,62
 207 170 207 170 221 170 c 1,63,-1
 221 194 l 1,64,65
 203 194 203 194 193 192.5 c 128,-1,66
 183 191 183 191 167.5 180.5 c 128,-1,67
 152 170 152 170 140 149 c 1,68,69
 114 156 114 156 97 191 c 1,70,-1
 28 191 l 1,71,-1
 28 167 l 2,72,73
 28 113 28 113 63.5 78 c 128,-1,74
 99 43 99 43 149 30 c 128,-1,75
 199 17 199 17 262 17 c 0,76,77
 359 17 359 17 424.5 52.5 c 128,-1,78
 490 88 490 88 490 167 c 2,79,-1
 490 181 l 2,40,41
365 587 m 1,80,-1
 365 261 l 1,81,82
 403 276 403 276 428 303 c 1,83,-1
 445 303 l 1,84,85
 459 285 459 285 469 279 c 1,86,-1
 478 289 l 1,87,88
 484 294 484 294 491 299 c 1,89,-1
 491 587 l 1,90,-1
 553 587 l 1,91,-1
 553 672 l 1,92,-1
 305 672 l 1,93,-1
 305 587 l 1,94,-1
 365 587 l 1,80,-1
EndSplineSet
EndChar

StartChar: K
Encoding: 75 75 46
Width: 730
GlyphClass: 2
Flags: W
LayerCount: 2
Fore
SplineSet
411 179 m 1,0,-1
 399 179 l 2,1,2
 360 179 360 179 349.5 165 c 128,-1,3
 339 151 339 151 339 120 c 2,4,-1
 339 105 l 1,5,6
 345 108 345 108 349 113 c 1,7,-1
 427 35 l 1,8,9
 421 -12 421 -12 393 -36 c 128,-1,10
 365 -60 365 -60 327 -60 c 128,-1,11
 289 -60 289 -60 249 -33 c 1,12,13
 209 -60 209 -60 171 -60 c 0,14,15
 117 -60 117 -60 72 -9.5 c 128,-1,16
 27 41 27 41 20 95 c 1,17,-1
 48 113 l 1,18,19
 53 104 53 104 70 104 c 128,-1,20
 87 104 87 104 96.5 117.5 c 128,-1,21
 106 131 106 131 107.5 144 c 128,-1,22
 109 157 109 157 109 179 c 1,23,-1
 98 179 l 1,24,-1
 48 239 l 1,25,-1
 48 312 l 1,26,27
 89 312 89 312 106 309 c 1,28,-1
 106 499 l 1,29,-1
 98 499 l 1,30,-1
 48 559 l 1,31,-1
 48 700 l 1,32,-1
 332 700 l 1,33,-1
 382 640 l 1,34,-1
 382 518 l 1,35,-1
 407 547 l 1,36,-1
 391 559 l 1,37,-1
 391 700 l 1,38,-1
 651 700 l 1,39,-1
 701 640 l 1,40,-1
 701 499 l 1,41,-1
 649 499 l 1,42,-1
 499 324 l 1,43,-1
 522 299 l 1,44,45
 577 286 577 286 607 234.5 c 128,-1,46
 637 183 637 183 637 119 c 2,47,-1
 637 105 l 1,48,49
 644 108 644 108 648 113 c 1,50,-1
 675 95 l 1,51,-1
 725 35 l 1,52,53
 720 -15 720 -15 688 -37.5 c 128,-1,54
 656 -60 656 -60 588 -60 c 128,-1,55
 520 -60 520 -60 465.5 -1.5 c 128,-1,56
 411 57 411 57 411 148 c 2,57,-1
 411 179 l 1,0,-1
162 279 m 1,58,59
 172 285 172 285 186 303 c 1,60,-1
 212 303 l 1,61,62
 225 285 225 285 237 279 c 1,63,64
 259 308 259 308 300 311 c 0,65,66
 315 312 315 312 349.5 312 c 128,-1,67
 384 312 384 312 400 311 c 0,68,69
 443 308 443 308 465 279 c 1,70,71
 474 283 474 283 486 298 c 1,72,-1
 408 379 l 1,73,-1
 585 587 l 1,74,-1
 623 587 l 1,75,-1
 623 672 l 1,76,-1
 418 672 l 1,77,-1
 418 587 l 1,78,-1
 477 587 l 1,79,-1
 299 381 l 1,80,-1
 262 381 l 1,81,-1
 262 587 l 1,82,-1
 304 587 l 1,83,-1
 304 672 l 1,84,-1
 76 672 l 1,85,-1
 76 587 l 1,86,-1
 136 587 l 1,87,-1
 136 301 l 1,88,89
 151 293 151 293 162 279 c 1,58,59
324 288 m 2,90,91
 306 288 306 288 296.5 286.5 c 128,-1,92
 287 285 287 285 272 274 c 128,-1,93
 257 263 257 263 245 241 c 1,94,95
 220 246 220 246 199 276 c 1,96,97
 178 249 178 249 153 241 c 1,98,99
 141 263 141 263 126 274 c 128,-1,100
 111 285 111 285 101.5 286.5 c 128,-1,101
 92 288 92 288 75 288 c 1,102,-1
 75 263 l 1,103,104
 139 263 139 263 139 179 c 0,105,106
 139 148 139 148 135.5 128.5 c 128,-1,107
 132 109 132 109 116 92.5 c 128,-1,108
 100 76 100 76 70 76 c 1,109,-1
 55 80 l 1,110,111
 75 30 75 30 118 30 c 128,-1,112
 161 30 161 30 196 61 c 1,113,-1
 202 61 l 1,114,115
 237 30 237 30 279.5 30 c 128,-1,116
 322 30 322 30 344 80 c 1,117,118
 339 76 339 76 322 76 c 128,-1,119
 305 76 305 76 290.5 84.5 c 128,-1,120
 276 93 276 93 270 109 c 0,121,122
 260 136 260 136 260 179 c 0,123,124
 260 263 260 263 324 263 c 2,125,-1
 376 263 l 2,126,127
 441 263 441 263 441 179 c 2,128,-1
 441 153 l 2,129,130
 441 30 441 30 545 30 c 0,131,132
 598 30 598 30 619 48 c 0,133,134
 639 64 639 64 642 80 c 1,135,136
 636 76 636 76 627 76 c 0,137,138
 586 76 586 76 573 104 c 128,-1,139
 560 132 560 132 560 183 c 0,140,141
 560 257 560 257 501 276 c 1,142,143
 482 249 482 249 457 241 c 1,144,145
 444 263 444 263 429 274 c 128,-1,146
 414 285 414 285 404 286.5 c 128,-1,147
 394 288 394 288 376 288 c 2,148,-1
 324 288 l 2,90,91
EndSplineSet
EndChar

StartChar: L
Encoding: 76 76 47
Width: 636
GlyphClass: 2
Flags: W
LayerCount: 2
Fore
SplineSet
404 499 m 1,0,-1
 344 499 l 1,1,-1
 344 312 l 1,2,-1
 351 312 l 1,3,-1
 401 252 l 1,4,-1
 401 179 l 1,5,6
 385 178 385 178 375 176.5 c 128,-1,7
 365 175 365 175 354 166 c 128,-1,8
 343 157 343 157 343 140 c 2,9,-1
 343 136 l 1,10,11
 357 131 357 131 383 131 c 128,-1,12
 409 131 409 131 432 147 c 128,-1,13
 455 163 455 163 455 192 c 0,14,15
 455 197 455 197 449 221 c 1,16,-1
 449 253 l 1,17,-1
 565 253 l 1,18,-1
 615 193 l 1,19,-1
 615 13 l 2,20,21
 615 -22 615 -22 633 -33 c 1,22,-1
 615 -60 l 1,23,24
 589 -60 589 -60 560.5 -47 c 128,-1,25
 532 -34 532 -34 516 -19 c 1,26,27
 499 -34 499 -34 458.5 -47 c 128,-1,28
 418 -60 418 -60 382 -60 c 0,29,30
 309 -60 309 -60 263 -21 c 1,31,32
 222 -60 222 -60 169.5 -60 c 128,-1,33
 117 -60 117 -60 72.5 -9.5 c 128,-1,34
 28 41 28 41 21 95 c 1,35,-1
 49 113 l 1,36,37
 54 105 54 105 69 105 c 0,38,39
 109 105 109 105 109 179 c 1,40,-1
 99 179 l 1,41,-1
 49 239 l 1,42,-1
 49 312 l 1,43,44
 91 312 91 312 108 309 c 1,45,-1
 108 499 l 1,46,-1
 100 499 l 1,47,-1
 50 559 l 1,48,-1
 50 700 l 1,49,-1
 354 700 l 1,50,-1
 404 640 l 1,51,-1
 404 499 l 1,0,-1
482 188 m 0,52,53
 482 148 482 148 451.5 125 c 128,-1,54
 421 102 421 102 377 102 c 128,-1,55
 333 102 333 102 298.5 127.5 c 128,-1,56
 264 153 264 153 264 205 c 0,57,58
 264 223 264 223 278.5 242.5 c 128,-1,59
 293 262 293 262 325 262 c 1,60,-1
 325 286 l 1,61,62
 307 286 307 286 297.5 284.5 c 128,-1,63
 288 283 288 283 273 272.5 c 128,-1,64
 258 262 258 262 246 241 c 1,65,66
 222 246 222 246 200 275 c 1,67,68
 182 249 182 249 155 241 c 1,69,70
 142 262 142 262 127 272.5 c 128,-1,71
 112 283 112 283 102.5 284.5 c 128,-1,72
 93 286 93 286 75 286 c 1,73,-1
 75 262 l 1,74,75
 109 262 109 262 124.5 238.5 c 128,-1,76
 140 215 140 215 140 173 c 128,-1,77
 140 131 140 131 126.5 104 c 128,-1,78
 113 77 113 77 70 77 c 1,79,-1
 56 79 l 1,80,81
 74 28 74 28 119 28 c 128,-1,82
 164 28 164 28 207 73 c 1,83,-1
 216 73 l 1,84,-1
 220 69 l 1,85,86
 268 29 268 29 336.5 29 c 128,-1,87
 405 29 405 29 466 76 c 1,88,89
 475 67 475 67 503 50.5 c 128,-1,90
 531 34 531 34 547 31 c 1,91,92
 538 41 538 41 538 83 c 2,93,-1
 538 223 l 1,94,-1
 477 223 l 1,95,96
 482 206 482 206 482 188 c 0,52,53
163 279 m 1,97,98
 173 285 173 285 187 303 c 1,99,-1
 214 303 l 1,100,101
 227 285 227 285 237 279 c 1,102,103
 248 293 248 293 264 301 c 1,104,-1
 264 587 l 1,105,-1
 326 587 l 1,106,-1
 326 672 l 1,107,-1
 78 672 l 1,108,-1
 78 587 l 1,109,-1
 138 587 l 1,110,-1
 138 300 l 1,111,112
 151 293 151 293 163 279 c 1,97,98
EndSplineSet
EndChar

StartChar: M
Encoding: 77 77 48
Width: 914
GlyphClass: 2
Flags: W
LayerCount: 2
Fore
SplineSet
337 312 m 1,0,-1
 345 312 l 1,1,-1
 395 252 l 1,2,-1
 395 179 l 1,3,4
 356 179 356 179 344.5 165 c 128,-1,5
 333 151 333 151 333 120 c 2,6,-1
 333 105 l 1,7,8
 340 105 340 105 345 113 c 1,9,-1
 373 95 l 1,10,-1
 423 35 l 1,11,12
 417 -12 417 -12 389 -36 c 128,-1,13
 361 -60 361 -60 321.5 -60 c 128,-1,14
 282 -60 282 -60 244 -33 c 1,15,16
 206 -60 206 -60 165.5 -60 c 128,-1,17
 125 -60 125 -60 73 -12 c 128,-1,18
 21 36 21 36 15 95 c 1,19,-1
 43 113 l 1,20,21
 47 104 47 104 62 104 c 0,22,23
 105 104 105 104 105 179 c 1,24,-1
 93 179 l 1,25,-1
 43 239 l 1,26,-1
 43 312 l 1,27,28
 84 312 84 312 101 309 c 1,29,-1
 101 499 l 1,30,-1
 93 499 l 1,31,-1
 43 559 l 1,32,-1
 43 700 l 1,33,-1
 282 700 l 1,34,-1
 443 505 l 1,35,-1
 606 700 l 1,36,-1
 824 700 l 1,37,-1
 874 640 l 1,38,-1
 874 499 l 1,39,-1
 814 499 l 1,40,-1
 814 312 l 1,41,-1
 822 312 l 1,42,-1
 872 252 l 1,43,-1
 872 179 l 1,44,45
 833 179 833 179 821.5 165 c 128,-1,46
 810 151 810 151 810 120 c 2,47,-1
 810 105 l 1,48,49
 817 105 817 105 822 113 c 1,50,-1
 850 95 l 1,51,-1
 900 35 l 1,52,53
 894 -12 894 -12 866 -36 c 128,-1,54
 838 -60 838 -60 798.5 -60 c 128,-1,55
 759 -60 759 -60 721 -33 c 1,56,57
 683 -60 683 -60 642.5 -60 c 128,-1,58
 602 -60 602 -60 550 -12 c 128,-1,59
 498 36 498 36 492 95 c 1,60,-1
 520 113 l 1,61,62
 524 104 524 104 539 104 c 0,63,64
 582 104 582 104 582 179 c 1,65,-1
 570 179 l 1,66,-1
 520 239 l 1,67,-1
 520 256 l 1,68,-1
 494 224 l 1,69,-1
 471 224 l 1,70,-1
 421 283 l 1,71,-1
 337 389 l 1,72,-1
 337 312 l 1,0,-1
634 279 m 1,73,74
 644 285 644 285 658 303 c 1,75,-1
 684 303 l 1,76,77
 697 285 697 285 708 279 c 1,78,79
 718 293 718 293 734 301 c 1,80,-1
 734 587 l 1,81,-1
 796 587 l 1,82,-1
 796 672 l 1,83,-1
 620 672 l 1,84,-1
 444 465 l 1,85,-1
 421 465 l 1,86,-1
 246 672 l 1,87,-1
 71 672 l 1,88,-1
 71 587 l 1,89,-1
 131 587 l 1,90,-1
 131 301 l 1,91,92
 145 294 145 294 157 279 c 1,93,94
 167 285 167 285 181 303 c 1,95,-1
 207 303 l 1,96,97
 220 285 220 285 231 279 c 1,98,99
 242 294 242 294 260 302 c 1,100,-1
 260 492 l 1,101,-1
 287 492 l 1,102,-1
 432 311 l 1,103,-1
 578 492 l 1,104,-1
 605 492 l 1,105,-1
 605 302 l 1,106,107
 621 295 621 295 634 279 c 1,73,74
197 61 m 1,108,109
 233 30 233 30 276.5 30 c 128,-1,110
 320 30 320 30 340 80 c 1,111,112
 333 76 333 76 324 76 c 0,113,114
 254 76 254 76 254 179 c 0,115,116
 254 263 254 263 320 263 c 1,117,-1
 320 288 l 1,118,119
 301 288 301 288 291 286.5 c 128,-1,120
 281 285 281 285 266 274 c 128,-1,121
 251 263 251 263 239 241 c 1,122,123
 215 246 215 246 194 276 c 1,124,125
 173 249 173 249 149 241 c 1,126,127
 136 263 136 263 121 274 c 128,-1,128
 106 285 106 285 96 286.5 c 128,-1,129
 86 288 86 288 68 288 c 1,130,-1
 68 263 l 1,131,132
 134 263 134 263 134 179 c 0,133,134
 134 103 134 103 102 84 c 0,135,136
 87 76 87 76 64 76 c 1,137,-1
 48 80 l 1,138,139
 68 30 68 30 111.5 30 c 128,-1,140
 155 30 155 30 191 61 c 1,141,-1
 197 61 l 1,108,109
674 61 m 1,142,143
 710 30 710 30 753.5 30 c 128,-1,144
 797 30 797 30 817 80 c 1,145,146
 810 76 810 76 801 76 c 0,147,148
 731 76 731 76 731 179 c 0,149,150
 731 263 731 263 797 263 c 1,151,-1
 797 288 l 1,152,153
 778 288 778 288 768 286.5 c 128,-1,154
 758 285 758 285 743 274 c 128,-1,155
 728 263 728 263 716 241 c 1,156,157
 692 246 692 246 671 276 c 1,158,159
 650 249 650 249 626 241 c 1,160,161
 599 287 599 287 554 287 c 2,162,-1
 545 287 l 1,163,-1
 545 263 l 1,164,165
 611 263 611 263 611 179 c 0,166,167
 611 103 611 103 579 84 c 0,168,169
 564 76 564 76 541 76 c 1,170,-1
 525 80 l 1,171,172
 545 30 545 30 588.5 30 c 128,-1,173
 632 30 632 30 668 61 c 1,174,-1
 674 61 l 1,142,143
EndSplineSet
EndChar

StartChar: N
Encoding: 78 78 49
Width: 834
GlyphClass: 2
Flags: W
LayerCount: 2
Fore
SplineSet
624 -30 m 1,0,1
 611 -36 611 -36 607 -60 c 1,2,3
 561 -60 561 -60 505 -12 c 0,4,5
 478 11 478 11 459.5 53.5 c 128,-1,6
 441 96 441 96 441 148 c 2,7,-1
 441 179 l 1,8,-1
 429 179 l 1,9,-1
 395 220 l 1,10,-1
 395 179 l 1,11,12
 356 179 356 179 344.5 165 c 128,-1,13
 333 151 333 151 333 120 c 2,14,-1
 333 105 l 1,15,16
 340 105 340 105 345 113 c 1,17,-1
 373 95 l 1,18,-1
 423 35 l 1,19,20
 417 -12 417 -12 389 -36 c 128,-1,21
 361 -60 361 -60 321.5 -60 c 128,-1,22
 282 -60 282 -60 244 -33 c 1,23,24
 206 -60 206 -60 165.5 -60 c 128,-1,25
 125 -60 125 -60 73 -12 c 128,-1,26
 21 36 21 36 15 95 c 1,27,-1
 43 113 l 1,28,29
 47 104 47 104 62 104 c 0,30,31
 105 104 105 104 105 179 c 1,32,-1
 93 179 l 1,33,-1
 43 239 l 1,34,-1
 43 312 l 1,35,36
 83 312 83 312 99 310 c 1,37,-1
 99 499 l 1,38,-1
 91 499 l 1,39,-1
 41 559 l 1,40,-1
 41 700 l 1,41,-1
 275 700 l 1,42,-1
 499 433 l 1,43,-1
 499 499 l 1,44,-1
 488 499 l 1,45,-1
 438 559 l 1,46,-1
 438 700 l 1,47,-1
 742 700 l 1,48,-1
 792 640 l 1,49,-1
 792 499 l 1,50,-1
 732 499 l 1,51,-1
 732 312 l 1,52,-1
 741 312 l 1,53,-1
 791 252 l 1,54,-1
 791 179 l 1,55,56
 752 179 752 179 741 165 c 128,-1,57
 730 151 730 151 730 120 c 2,58,-1
 730 105 l 1,59,60
 737 107 737 107 741 113 c 1,61,-1
 819 35 l 1,62,63
 813 -12 813 -12 784.5 -36 c 128,-1,64
 756 -60 756 -60 726 -60 c 128,-1,65
 696 -60 696 -60 668 -51.5 c 128,-1,66
 640 -43 640 -43 624 -30 c 1,0,1
157 279 m 1,67,68
 167 285 167 285 181 303 c 1,69,-1
 207 303 l 1,70,71
 220 285 220 285 231 279 c 1,72,73
 242 293 242 293 258 301 c 1,74,-1
 258 492 l 1,75,-1
 286 492 l 1,76,-1
 432 310 l 1,77,78
 473 305 473 305 494 279 c 1,79,80
 504 285 504 285 518 303 c 1,81,-1
 601 303 l 1,82,83
 614 285 614 285 626 279 c 1,84,85
 639 293 639 293 652 300 c 1,86,-1
 652 587 l 1,87,-1
 714 587 l 1,88,-1
 714 672 l 1,89,-1
 466 672 l 1,90,-1
 466 587 l 1,91,-1
 526 587 l 1,92,-1
 526 377 l 1,93,-1
 492 377 l 1,94,-1
 244 672 l 1,95,-1
 69 672 l 1,96,-1
 69 587 l 1,97,-1
 129 587 l 1,98,-1
 129 302 l 1,99,100
 145 294 145 294 157 279 c 1,67,68
667 30 m 0,101,102
 716 30 716 30 735 80 c 1,103,104
 729 76 729 76 720 76 c 0,105,106
 690 76 690 76 673.5 92.5 c 128,-1,107
 657 109 657 109 653.5 128.5 c 128,-1,108
 650 148 650 148 650 179 c 0,109,110
 650 263 650 263 715 263 c 1,111,-1
 715 288 l 1,112,113
 697 288 697 288 687.5 286.5 c 128,-1,114
 678 285 678 285 662.5 274 c 128,-1,115
 647 263 647 263 634 241 c 1,116,117
 610 246 610 246 589 276 c 1,118,-1
 530 276 l 1,119,120
 509 248 509 248 485 241 c 1,121,122
 472 263 472 263 457 274 c 128,-1,123
 442 285 442 285 432.5 286.5 c 128,-1,124
 423 288 423 288 405 288 c 1,125,-1
 405 263 l 1,126,127
 469 263 469 263 469 179 c 2,128,-1
 469 153 l 2,129,130
 469 75 469 75 520 42 c 0,131,132
 530 36 530 36 538 34 c 1,133,134
 546 62 546 62 571 62 c 1,135,136
 588 48 588 48 618 39 c 128,-1,137
 648 30 648 30 667 30 c 0,101,102
197 61 m 1,138,139
 233 30 233 30 276.5 30 c 128,-1,140
 320 30 320 30 340 80 c 1,141,142
 333 76 333 76 324 76 c 0,143,144
 254 76 254 76 254 179 c 0,145,146
 254 263 254 263 320 263 c 1,147,-1
 320 288 l 1,148,149
 301 288 301 288 291 286.5 c 128,-1,150
 281 285 281 285 266 274 c 128,-1,151
 251 263 251 263 239 241 c 1,152,153
 215 246 215 246 194 276 c 1,154,155
 173 249 173 249 149 241 c 1,156,157
 136 263 136 263 121 274 c 128,-1,158
 106 285 106 285 96 286.5 c 128,-1,159
 86 288 86 288 68 288 c 1,160,-1
 68 263 l 1,161,162
 134 263 134 263 134 179 c 0,163,164
 134 103 134 103 102 84 c 0,165,166
 87 76 87 76 64 76 c 1,167,-1
 48 80 l 1,168,169
 68 30 68 30 111.5 30 c 128,-1,170
 155 30 155 30 191 61 c 1,171,-1
 197 61 l 1,138,139
335 312 m 1,172,-1
 345 312 l 1,173,-1
 379 271 l 1,174,-1
 379 312 l 1,175,-1
 393 312 l 1,176,-1
 335 385 l 1,177,-1
 335 312 l 1,172,-1
EndSplineSet
EndChar

StartChar: O
Encoding: 79 79 50
Width: 753
GlyphClass: 2
Flags: W
LayerCount: 2
Fore
SplineSet
399 -72 m 0,0,1
 255 -72 255 -72 163 -3.5 c 128,-1,2
 71 65 71 65 71 168 c 2,3,-1
 71 179 l 1,4,-1
 61 179 l 1,5,-1
 11 239 l 1,6,-1
 11 312 l 1,7,8
 55 312 55 312 72 309 c 1,9,-1
 72 531 l 2,10,11
 72 583 72 583 97.5 620.5 c 128,-1,12
 123 658 123 658 166 677 c 0,13,14
 245 712 245 712 349 712 c 0,15,16
 495 712 495 712 585.5 645.5 c 128,-1,17
 676 579 676 579 676 471 c 2,18,-1
 676 312 l 1,19,-1
 687 312 l 1,20,-1
 737 252 l 1,21,-1
 737 179 l 1,22,23
 699 179 699 179 688 165 c 128,-1,24
 677 151 677 151 677 121 c 2,25,-1
 677 108 l 2,26,27
 677 56 677 56 651.5 19 c 128,-1,28
 626 -18 626 -18 582 -37 c 0,29,30
 502 -72 502 -72 399 -72 c 0,0,1
124 279 m 1,31,32
 136 286 136 286 149 303 c 1,33,-1
 174 303 l 1,34,35
 187 285 187 285 198 279 c 1,36,37
 216 300 216 300 239 306 c 1,38,-1
 239 503 l 2,39,40
 239 554 239 554 270 582.5 c 128,-1,41
 301 611 301 611 350 611 c 128,-1,42
 399 611 399 611 429 583 c 128,-1,43
 459 555 459 555 459 503 c 2,44,-1
 459 306 l 1,45,46
 482 300 482 300 500 279 c 1,47,48
 510 285 510 285 524 303 c 1,49,-1
 549 303 l 1,50,51
 562 285 562 285 574 279 c 1,52,53
 584 292 584 292 597 299 c 1,54,-1
 597 529 l 2,55,56
 597 571 597 571 575 602 c 128,-1,57
 553 633 553 633 516 650 c 128,-1,58
 479 667 479 667 437 675 c 128,-1,59
 395 683 395 683 349 683 c 128,-1,60
 303 683 303 683 261.5 675 c 128,-1,61
 220 667 220 667 182.5 650 c 128,-1,62
 145 633 145 633 123 602 c 128,-1,63
 101 571 101 571 101 529 c 2,64,-1
 101 299 l 1,65,66
 115 290 115 290 124 279 c 1,31,32
349 18 m 128,-1,68
 412 18 412 18 465 31 c 128,-1,69
 518 44 518 44 557.5 79.5 c 128,-1,70
 597 115 597 115 597 169 c 2,71,-1
 597 179 l 2,72,73
 597 262 597 262 662 262 c 1,74,-1
 662 286 l 1,75,76
 644 286 644 286 634.5 284.5 c 128,-1,77
 625 283 625 283 609.5 272.5 c 128,-1,78
 594 262 594 262 581 241 c 1,79,80
 559 246 559 246 537 275 c 1,81,82
 519 249 519 249 491 241 c 1,83,84
 479 262 479 262 464 272.5 c 128,-1,85
 449 283 449 283 439 284.5 c 128,-1,86
 429 286 429 286 411 286 c 1,87,-1
 411 262 l 1,88,89
 444 262 444 262 458 243 c 128,-1,90
 472 224 472 224 472 205 c 0,91,92
 472 151 472 151 437 120.5 c 128,-1,93
 402 90 402 90 349 90 c 128,-1,94
 296 90 296 90 261 120.5 c 128,-1,95
 226 151 226 151 226 205 c 0,96,97
 226 224 226 224 240 243 c 128,-1,98
 254 262 254 262 287 262 c 1,99,-1
 287 286 l 1,100,101
 269 286 269 286 259 284.5 c 128,-1,102
 249 283 249 283 234 272.5 c 128,-1,103
 219 262 219 262 207 241 c 1,104,105
 181 246 181 246 161 275 c 1,106,107
 141 249 141 249 117 241 c 1,108,109
 104 262 104 262 88.5 272.5 c 128,-1,110
 73 283 73 283 63.5 284.5 c 128,-1,111
 54 286 54 286 36 286 c 1,112,-1
 36 262 l 1,113,114
 101 262 101 262 101 179 c 2,115,-1
 101 169 l 2,116,117
 101 115 101 115 140.5 79.5 c 128,-1,118
 180 44 180 44 233 31 c 128,-1,67
 286 18 286 18 349 18 c 128,-1,68
318 442 m 2,119,-1
 318 307 l 1,120,-1
 364 252 l 1,121,-1
 364 179 l 1,122,123
 347 178 347 178 337 176.5 c 128,-1,124
 327 175 327 175 315.5 166 c 128,-1,125
 304 157 304 157 304 140 c 0,126,127
 304 119 304 119 344 119 c 128,-1,128
 384 119 384 119 408.5 135.5 c 128,-1,129
 433 152 433 152 441 179 c 1,130,-1
 434 179 l 1,131,-1
 384 239 l 1,132,-1
 384 312 l 1,133,134
 416 312 416 312 430 311 c 1,135,-1
 430 502 l 2,136,137
 430 510 430 510 419 515.5 c 128,-1,138
 408 521 408 521 399 521 c 0,139,140
 362 521 362 521 340 500.5 c 128,-1,141
 318 480 318 480 318 442 c 2,119,-1
EndSplineSet
EndChar

StartChar: P
Encoding: 80 80 51
Width: 699
GlyphClass: 2
Flags: W
LayerCount: 2
Fore
SplineSet
690 425 m 128,-1,1
 690 308 690 308 628.5 250.5 c 128,-1,2
 567 193 567 193 460 193 c 2,3,-1
 410 193 l 1,4,-1
 410 179 l 1,5,6
 371 179 371 179 359.5 165 c 128,-1,7
 348 151 348 151 348 120 c 2,8,-1
 348 105 l 1,9,10
 355 105 355 105 360 113 c 1,11,-1
 388 95 l 1,12,-1
 438 35 l 1,13,14
 432 -12 432 -12 404 -36 c 128,-1,15
 376 -60 376 -60 336.5 -60 c 128,-1,16
 297 -60 297 -60 259 -33 c 1,17,18
 221 -60 221 -60 180.5 -60 c 128,-1,19
 140 -60 140 -60 88 -12 c 128,-1,20
 36 36 36 36 30 95 c 1,21,-1
 58 113 l 1,22,23
 62 104 62 104 77 104 c 0,24,25
 120 104 120 104 120 179 c 1,26,-1
 108 179 l 1,27,-1
 58 239 l 1,28,-1
 58 312 l 1,29,30
 99 312 99 312 116 309 c 1,31,-1
 116 499 l 1,32,-1
 88 499 l 1,33,-1
 38 559 l 1,34,-1
 38 700 l 1,35,-1
 397 700 l 2,36,37
 534 700 534 700 612 621 c 128,-1,0
 690 542 690 542 690 425 c 128,-1,1
172 279 m 1,38,39
 182 285 182 285 196 303 c 1,40,-1
 222 303 l 1,41,42
 235 285 235 285 246 279 c 1,43,44
 263 302 263 302 286.5 307 c 128,-1,45
 310 312 310 312 360 312 c 1,46,-1
 386 281 l 1,47,-1
 401 281 l 2,48,49
 610 281 610 281 610 485 c 0,50,51
 610 547 610 547 576 601 c 0,52,53
 555 633 555 633 507.5 652.5 c 128,-1,54
 460 672 460 672 390 672 c 2,55,-1
 66 672 l 1,56,-1
 66 587 l 1,57,-1
 146 587 l 1,58,-1
 146 301 l 1,59,60
 160 294 160 294 172 279 c 1,38,39
274 587 m 1,61,-1
 337 587 l 2,62,63
 480 587 480 587 480 476 c 0,64,65
 480 417 480 417 445.5 379 c 128,-1,66
 411 341 411 341 338 341 c 2,67,-1
 274 341 l 1,68,-1
 274 587 l 1,61,-1
212 61 m 1,69,70
 248 30 248 30 291.5 30 c 128,-1,71
 335 30 335 30 355 80 c 1,72,73
 348 76 348 76 339 76 c 0,74,75
 269 76 269 76 269 179 c 0,76,77
 269 263 269 263 335 263 c 1,78,-1
 335 288 l 1,79,80
 316 288 316 288 306 286.5 c 128,-1,81
 296 285 296 285 281 274 c 128,-1,82
 266 263 266 263 254 241 c 1,83,84
 230 246 230 246 209 276 c 1,85,86
 188 249 188 249 164 241 c 1,87,88
 151 263 151 263 136 274 c 128,-1,89
 121 285 121 285 111 286.5 c 128,-1,90
 101 288 101 288 83 288 c 1,91,-1
 83 263 l 1,92,93
 149 263 149 263 149 179 c 0,94,95
 149 103 149 103 117 84 c 0,96,97
 102 76 102 76 79 76 c 1,98,-1
 63 80 l 1,99,100
 83 30 83 30 126.5 30 c 128,-1,101
 170 30 170 30 206 61 c 1,102,-1
 212 61 l 1,69,70
384 500 m 2,103,-1
 352 500 l 1,104,-1
 352 370 l 1,105,106
 452 378 452 378 452 476 c 1,107,-1
 451 491 l 1,108,109
 432 500 432 500 384 500 c 2,103,-1
EndSplineSet
EndChar

StartChar: Q
Encoding: 81 81 52
Width: 774
GlyphClass: 2
Flags: W
LayerCount: 2
Fore
SplineSet
658 471 m 2,0,-1
 658 312 l 1,1,-1
 669 312 l 1,2,-1
 719 252 l 1,3,-1
 719 179 l 1,4,5
 681 179 681 179 669 165 c 128,-1,6
 657 151 657 151 657 122 c 2,7,-1
 657 106 l 1,8,9
 664 107 664 107 669 113 c 1,10,-1
 696 95 l 1,11,-1
 746 35 l 1,12,13
 739 -12 739 -12 711 -36 c 128,-1,14
 683 -60 683 -60 639 -60 c 128,-1,15
 595 -60 595 -60 558 -21 c 1,16,17
 534 -39 534 -39 520.5 -47 c 128,-1,18
 507 -55 507 -55 472 -63.5 c 128,-1,19
 437 -72 437 -72 370 -72 c 128,-1,20
 303 -72 303 -72 233.5 -49.5 c 128,-1,21
 164 -27 164 -27 116 29 c 128,-1,22
 68 85 68 85 68 168 c 2,23,-1
 68 179 l 1,24,-1
 56 179 l 1,25,-1
 6 239 l 1,26,-1
 6 312 l 1,27,28
 51 312 51 312 69 309 c 1,29,-1
 69 531 l 2,30,31
 69 583 69 583 93.5 620 c 128,-1,32
 118 657 118 657 160 676 c 0,33,34
 238 712 238 712 338 712 c 0,35,36
 457 712 457 712 550 662 c 0,37,38
 599 635 599 635 628.5 586 c 128,-1,39
 658 537 658 537 658 471 c 2,0,-1
483 279 m 1,40,41
 493 287 493 287 506 303 c 1,42,-1
 532 303 l 1,43,44
 539 290 539 290 555 279 c 1,45,46
 565 292 565 292 580 300 c 1,47,-1
 580 530 l 2,48,49
 580 584 580 584 542 620 c 128,-1,50
 504 656 504 656 452.5 669 c 128,-1,51
 401 682 401 682 338.5 682 c 128,-1,52
 276 682 276 682 224.5 669 c 128,-1,53
 173 656 173 656 135 620 c 128,-1,54
 97 584 97 584 97 530 c 2,55,-1
 97 299 l 1,56,57
 111 290 111 290 120 279 c 1,58,59
 130 284 130 284 143 303 c 1,60,-1
 170 303 l 1,61,62
 183 285 183 285 193 279 c 1,63,64
 212 302 212 302 237 308 c 1,65,-1
 237 491 l 2,66,67
 237 544 237 544 264 572 c 128,-1,68
 291 600 291 600 339 600 c 128,-1,69
 387 600 387 600 414.5 572.5 c 128,-1,70
 442 545 442 545 442 491 c 2,71,-1
 442 306 l 1,72,73
 465 300 465 300 483 279 c 1,40,41
393 286 m 1,74,-1
 393 240 l 1,75,76
 427 237 427 237 441 219.5 c 128,-1,77
 455 202 455 202 455 185 c 0,78,79
 455 131 455 131 425 110.5 c 128,-1,80
 395 90 395 90 340 90 c 128,-1,81
 285 90 285 90 253.5 120 c 128,-1,82
 222 150 222 150 222 205 c 0,83,84
 222 224 222 224 236 243 c 128,-1,85
 250 262 250 262 283 262 c 1,86,-1
 283 286 l 1,87,88
 264 286 264 286 254.5 284.5 c 128,-1,89
 245 283 245 283 230.5 272.5 c 128,-1,90
 216 262 216 262 203 241 c 1,91,92
 178 246 178 246 156 275 c 1,93,94
 137 249 137 249 112 241 c 1,95,96
 99 262 99 262 84 272.5 c 128,-1,97
 69 283 69 283 59.5 284.5 c 128,-1,98
 50 286 50 286 32 286 c 1,99,-1
 32 262 l 1,100,101
 96 262 96 262 96 169 c 0,102,103
 96 115 96 115 134 80 c 0,104,105
 201 17 201 17 338 17 c 0,106,107
 386 17 386 17 420.5 26.5 c 128,-1,108
 455 36 455 36 468.5 45 c 128,-1,109
 482 54 482 54 504 73 c 1,110,-1
 512 73 l 1,111,112
 534 49 534 49 551.5 38 c 128,-1,113
 569 27 569 27 592 27 c 0,114,115
 641 27 641 27 665 79 c 1,116,117
 659 77 659 77 648 77 c 0,118,119
 618 77 618 77 602.5 93 c 128,-1,120
 587 109 587 109 583.5 128 c 128,-1,121
 580 147 580 147 580 179 c 0,122,123
 580 262 580 262 644 262 c 1,124,-1
 644 286 l 1,125,126
 626 286 626 286 616 284.5 c 128,-1,127
 606 283 606 283 591 272.5 c 128,-1,128
 576 262 576 262 563 241 c 1,129,130
 542 248 542 248 519 275 c 1,131,132
 501 249 501 249 474 241 c 1,133,134
 461 262 461 262 446 272.5 c 128,-1,135
 431 283 431 283 421 284.5 c 128,-1,136
 411 286 411 286 393 286 c 1,74,-1
315 429 m 2,137,-1
 315 296 l 1,138,-1
 359 252 l 1,139,-1
 359 179 l 1,140,141
 342 178 342 178 331.5 176.5 c 128,-1,142
 321 175 321 175 310 166 c 128,-1,143
 299 157 299 157 299 140 c 1,144,-1
 301 123 l 1,145,146
 317 117 317 117 338 117 c 0,147,148
 409 117 409 117 423 157 c 1,149,-1
 417 157 l 1,150,-1
 367 227 l 1,151,-1
 367 312 l 1,152,153
 400 312 400 312 414 311 c 1,154,-1
 414 489 l 1,155,-1
 413 506 l 1,156,157
 406 509 406 509 388 509 c 0,158,159
 315 509 315 509 315 429 c 2,137,-1
EndSplineSet
EndChar

StartChar: R
Encoding: 82 82 53
Width: 741
GlyphClass: 2
Flags: W
LayerCount: 2
Fore
SplineSet
420 179 m 1,0,-1
 408 179 l 2,1,2
 369 179 369 179 358.5 165 c 128,-1,3
 348 151 348 151 348 120 c 2,4,-1
 348 105 l 1,5,6
 354 108 354 108 358 113 c 1,7,-1
 436 35 l 1,8,9
 430 -12 430 -12 402 -36 c 128,-1,10
 374 -60 374 -60 336 -60 c 128,-1,11
 298 -60 298 -60 258 -33 c 1,12,13
 218 -60 218 -60 180 -60 c 0,14,15
 126 -60 126 -60 81 -9.5 c 128,-1,16
 36 41 36 41 29 95 c 1,17,-1
 57 113 l 1,18,19
 62 104 62 104 79 104 c 128,-1,20
 96 104 96 104 105.5 117.5 c 128,-1,21
 115 131 115 131 116.5 144 c 128,-1,22
 118 157 118 157 118 179 c 1,23,-1
 107 179 l 1,24,-1
 57 239 l 1,25,-1
 57 312 l 1,26,27
 98 312 98 312 115 309 c 1,28,-1
 115 499 l 1,29,-1
 87 499 l 1,30,-1
 37 559 l 1,31,-1
 37 700 l 1,32,-1
 396 700 l 2,33,34
 533 700 533 700 611 621 c 128,-1,35
 689 542 689 542 689 420 c 128,-1,36
 689 298 689 298 613 239 c 1,37,38
 646 188 646 188 646 119 c 2,39,-1
 646 105 l 1,40,41
 653 108 653 108 657 113 c 1,42,-1
 684 95 l 1,43,-1
 734 35 l 1,44,45
 729 -15 729 -15 697 -37.5 c 128,-1,46
 665 -60 665 -60 597 -60 c 128,-1,47
 529 -60 529 -60 474.5 -1.5 c 128,-1,48
 420 57 420 57 420 148 c 2,49,-1
 420 179 l 1,0,-1
474 279 m 1,50,51
 486 286 486 286 499 303 c 1,52,53
 509 303 509 303 513 302 c 1,54,55
 609 346 609 346 609 485 c 0,56,57
 609 534 609 534 592.5 569.5 c 128,-1,58
 576 605 576 605 553.5 624.5 c 128,-1,59
 531 644 531 644 488.5 658 c 128,-1,60
 446 672 446 672 389 672 c 2,61,-1
 65 672 l 1,62,-1
 65 587 l 1,63,-1
 145 587 l 1,64,-1
 145 301 l 1,65,66
 160 293 160 293 171 279 c 1,67,68
 181 285 181 285 195 303 c 1,69,-1
 221 303 l 1,70,71
 234 285 234 285 246 279 c 1,72,73
 268 308 268 308 309 311 c 0,74,75
 324 312 324 312 366 312 c 128,-1,76
 408 312 408 312 432 306.5 c 128,-1,77
 456 301 456 301 474 279 c 1,50,51
333 288 m 2,78,79
 315 288 315 288 305.5 286.5 c 128,-1,80
 296 285 296 285 281 274 c 128,-1,81
 266 263 266 263 254 241 c 1,82,83
 229 246 229 246 208 276 c 1,84,85
 187 249 187 249 162 241 c 1,86,87
 150 263 150 263 135 274 c 128,-1,88
 120 285 120 285 110.5 286.5 c 128,-1,89
 101 288 101 288 84 288 c 1,90,-1
 84 263 l 1,91,92
 148 263 148 263 148 179 c 0,93,94
 148 148 148 148 144.5 128.5 c 128,-1,95
 141 109 141 109 125 92.5 c 128,-1,96
 109 76 109 76 79 76 c 1,97,-1
 64 80 l 1,98,99
 84 30 84 30 127 30 c 128,-1,100
 170 30 170 30 205 61 c 1,101,-1
 211 61 l 1,102,103
 246 30 246 30 288.5 30 c 128,-1,104
 331 30 331 30 353 80 c 1,105,106
 348 76 348 76 331 76 c 128,-1,107
 314 76 314 76 299.5 84.5 c 128,-1,108
 285 93 285 93 279 109 c 0,109,110
 269 136 269 136 269 179 c 0,111,112
 269 263 269 263 333 263 c 2,113,-1
 385 263 l 2,114,115
 450 263 450 263 450 179 c 2,116,-1
 450 153 l 2,117,118
 450 30 450 30 554 30 c 0,119,120
 607 30 607 30 628 48 c 0,121,122
 648 64 648 64 651 80 c 1,123,124
 645 76 645 76 636 76 c 0,125,126
 595 76 595 76 582 104 c 128,-1,127
 569 132 569 132 569 183 c 0,128,129
 569 257 569 257 510 276 c 1,130,131
 491 249 491 249 466 241 c 1,132,133
 453 263 453 263 438 274 c 128,-1,134
 423 285 423 285 413 286.5 c 128,-1,135
 403 288 403 288 385 288 c 2,136,-1
 333 288 l 2,78,79
273 587 m 1,137,-1
 336 587 l 2,138,139
 479 587 479 587 479 476 c 0,140,141
 479 417 479 417 444.5 379 c 128,-1,142
 410 341 410 341 337 341 c 2,143,-1
 273 341 l 1,144,-1
 273 587 l 1,137,-1
383 500 m 2,145,-1
 351 500 l 1,146,-1
 351 370 l 1,147,148
 451 378 451 378 451 476 c 1,149,-1
 450 491 l 1,150,151
 431 500 431 500 383 500 c 2,145,-1
EndSplineSet
EndChar

StartChar: S
Encoding: 83 83 54
Width: 656
GlyphClass: 2
Flags: W
LayerCount: 2
Fore
SplineSet
602 161 m 2,0,-1
 604 119 l 1,1,2
 604 25 604 25 539.5 -23.5 c 128,-1,3
 475 -72 475 -72 387 -72 c 0,4,5
 360 -72 360 -72 333 -65 c 128,-1,6
 306 -58 306 -58 292 -50.5 c 128,-1,7
 278 -43 278 -43 258.5 -31.5 c 128,-1,8
 239 -20 239 -20 237 -19 c 2,9,-1
 213 -5 l 1,10,11
 192 -26 192 -26 157.5 -43 c 128,-1,12
 123 -60 123 -60 96 -60 c 1,13,-1
 46 0 l 1,14,-1
 28 28 l 1,15,16
 46 38 46 38 46 72 c 2,17,-1
 46 252 l 1,18,-1
 162 252 l 1,19,-1
 212 192 l 1,20,-1
 212 161 l 1,21,-1
 216 132 l 1,22,23
 237 119 237 119 281.5 119 c 128,-1,24
 326 119 326 119 336 161 c 1,25,26
 320 152 320 152 314 146 c 1,27,-1
 217 262 l 1,28,-1
 234 277 l 1,29,30
 191 304 191 304 165.5 323 c 128,-1,31
 140 342 140 342 105 376 c 0,32,33
 35 442 35 442 35 530.5 c 128,-1,34
 35 619 35 619 102.5 665.5 c 128,-1,35
 170 712 170 712 259 712 c 0,36,37
 307 712 307 712 345 697.5 c 128,-1,38
 383 683 383 683 397 668 c 2,39,-1
 411 654 l 1,40,-1
 411 700 l 1,41,-1
 535 700 l 1,42,-1
 585 640 l 1,43,-1
 585 416 l 1,44,-1
 468 416 l 1,45,-1
 418 476 l 1,46,-1
 404 522 l 1,47,48
 387 531 387 531 364 531 c 128,-1,49
 341 531 341 531 325.5 515 c 128,-1,50
 310 499 310 499 310 471 c 1,51,-1
 311 462 l 1,52,53
 314 459 314 459 366.5 434.5 c 128,-1,54
 419 410 419 410 467 376.5 c 128,-1,55
 515 343 515 343 527 310 c 1,56,57
 542 312 542 312 581 312 c 1,58,-1
 631 252 l 1,59,-1
 631 179 l 1,60,61
 602 179 602 179 602 161 c 2,0,-1
65 538 m 0,62,63
 65 489 65 489 90.5 450.5 c 128,-1,64
 116 412 116 412 146 392.5 c 128,-1,65
 176 373 176 373 223 347 c 128,-1,66
 270 321 270 321 289 307 c 1,67,68
 307 312 307 312 325 312 c 0,69,70
 364 312 364 312 400 282 c 1,71,-1
 418 302 l 1,72,-1
 443 302 l 1,73,74
 456 285 456 285 466 279 c 1,75,76
 478 294 478 294 496 302 c 1,77,78
 475 339 475 339 428 369.5 c 128,-1,79
 381 400 381 400 338.5 417 c 128,-1,80
 296 434 296 434 262.5 463.5 c 128,-1,81
 229 493 229 493 229 531 c 0,82,83
 229 556 229 556 240 577 c 0,84,85
 263 619 263 619 316 619 c 0,86,87
 404 619 404 619 441 504 c 1,88,-1
 512 504 l 1,89,-1
 512 672 l 1,90,-1
 436 672 l 1,91,-1
 436 602 l 1,92,-1
 430 602 l 1,93,94
 365 683 365 683 260 683 c 0,95,96
 181 683 181 683 123 643.5 c 128,-1,97
 65 604 65 604 65 538 c 0,62,63
525 177 m 1,98,-1
 523 221 l 1,99,100
 523 263 523 263 556 263 c 1,101,-1
 556 288 l 1,102,103
 537 288 537 288 527.5 286.5 c 128,-1,104
 518 285 518 285 503 274 c 128,-1,105
 488 263 488 263 475 241 c 1,106,107
 451 245 451 245 431 275 c 1,108,109
 412 252 412 252 391 246 c 1,110,111
 363 288 363 288 315 288 c 0,112,113
 284 288 284 288 254 260 c 1,114,-1
 269 241 l 1,115,116
 288 256 288 256 308 256 c 128,-1,117
 328 256 328 256 343.5 244 c 128,-1,118
 359 232 359 232 362.5 216 c 128,-1,119
 366 200 366 200 366 180.5 c 128,-1,120
 366 161 366 161 360.5 143 c 128,-1,121
 355 125 355 125 334 107.5 c 128,-1,122
 313 90 313 90 279 90 c 0,123,124
 222 90 222 90 181 124 c 128,-1,125
 140 158 140 158 134 223 c 1,126,-1
 75 223 l 1,127,-1
 75 82 l 2,128,129
 75 41 75 41 65 32 c 1,130,131
 84 35 84 35 116.5 55 c 128,-1,132
 149 75 149 75 157 90 c 1,133,134
 171 81 171 81 197 65 c 0,135,136
 276 16 276 16 335 16 c 0,137,138
 415 16 415 16 470 57.5 c 128,-1,139
 525 99 525 99 525 177 c 1,98,-1
EndSplineSet
EndChar

StartChar: T
Encoding: 84 84 55
Width: 646
GlyphClass: 2
Flags: W
LayerCount: 2
Fore
SplineSet
443 499 m 1,0,-1
 443 312 l 1,1,-1
 451 312 l 1,2,-1
 501 252 l 1,3,-1
 501 179 l 1,4,5
 462 179 462 179 450.5 165 c 128,-1,6
 439 151 439 151 439 120 c 2,7,-1
 439 105 l 1,8,9
 446 105 446 105 451 113 c 1,10,-1
 479 95 l 1,11,-1
 529 35 l 1,12,13
 523 -12 523 -12 495 -36 c 128,-1,14
 467 -60 467 -60 427.5 -60 c 128,-1,15
 388 -60 388 -60 350 -33 c 1,16,17
 312 -60 312 -60 271.5 -60 c 128,-1,18
 231 -60 231 -60 179 -12 c 128,-1,19
 127 36 127 36 121 95 c 1,20,-1
 149 113 l 1,21,22
 153 104 153 104 168 104 c 0,23,24
 211 104 211 104 211 179 c 1,25,-1
 199 179 l 1,26,-1
 149 239 l 1,27,-1
 149 312 l 1,28,29
 190 312 190 312 207 309 c 1,30,-1
 207 499 l 1,31,-1
 178 499 l 1,32,-1
 178 396 l 1,33,-1
 62 396 l 1,34,-1
 12 456 l 1,35,-1
 12 700 l 1,36,-1
 588 700 l 1,37,-1
 638 640 l 1,38,-1
 638 396 l 1,39,-1
 528 396 l 1,40,-1
 478 456 l 1,41,-1
 478 499 l 1,42,-1
 443 499 l 1,0,-1
263 279 m 1,43,44
 273 285 273 285 287 303 c 1,45,-1
 313 303 l 1,46,47
 326 285 326 285 337 279 c 1,48,49
 347 293 347 293 363 301 c 1,50,-1
 363 587 l 1,51,-1
 503 587 l 1,52,-1
 503 484 l 1,53,-1
 560 484 l 1,54,-1
 560 672 l 1,55,-1
 40 672 l 1,56,-1
 40 484 l 1,57,-1
 100 484 l 1,58,-1
 100 587 l 1,59,-1
 237 587 l 1,60,-1
 237 301 l 1,61,62
 251 294 251 294 263 279 c 1,43,44
303 61 m 1,63,64
 339 30 339 30 382.5 30 c 128,-1,65
 426 30 426 30 446 80 c 1,66,67
 439 76 439 76 430 76 c 0,68,69
 360 76 360 76 360 179 c 0,70,71
 360 263 360 263 426 263 c 1,72,-1
 426 288 l 1,73,74
 407 288 407 288 397 286.5 c 128,-1,75
 387 285 387 285 372 274 c 128,-1,76
 357 263 357 263 345 241 c 1,77,78
 321 246 321 246 300 276 c 1,79,80
 279 249 279 249 255 241 c 1,81,82
 242 263 242 263 227 274 c 128,-1,83
 212 285 212 285 202 286.5 c 128,-1,84
 192 288 192 288 174 288 c 1,85,-1
 174 263 l 1,86,87
 240 263 240 263 240 179 c 0,88,89
 240 103 240 103 208 84 c 0,90,91
 193 76 193 76 170 76 c 1,92,-1
 154 80 l 1,93,94
 174 30 174 30 217.5 30 c 128,-1,95
 261 30 261 30 297 61 c 1,96,-1
 303 61 l 1,63,64
EndSplineSet
EndChar

StartChar: U
Encoding: 85 85 56
Width: 774
GlyphClass: 2
Flags: W
LayerCount: 2
Fore
SplineSet
751 499 m 1,0,-1
 691 499 l 1,1,-1
 691 312 l 1,2,-1
 698 312 l 1,3,-1
 748 252 l 1,4,-1
 748 179 l 1,5,6
 710 179 710 179 699 165 c 128,-1,7
 688 151 688 151 688 121 c 2,8,-1
 688 108 l 2,9,10
 688 56 688 56 662.5 19 c 128,-1,11
 637 -18 637 -18 594 -37 c 0,12,13
 513 -72 513 -72 410 -72 c 0,14,15
 266 -72 266 -72 174 -3.5 c 128,-1,16
 82 65 82 65 82 168 c 2,17,-1
 82 179 l 1,18,-1
 72 179 l 1,19,-1
 22 239 l 1,20,-1
 22 312 l 1,21,22
 63 312 63 312 80 309 c 1,23,-1
 80 499 l 1,24,-1
 72 499 l 1,25,-1
 22 559 l 1,26,-1
 22 700 l 1,27,-1
 326 700 l 1,28,-1
 376 640 l 1,29,-1
 376 499 l 1,30,-1
 316 499 l 1,31,-1
 316 312 l 1,32,-1
 325 312 l 1,33,-1
 375 252 l 1,34,-1
 375 179 l 1,35,36
 358 178 358 178 348 176.5 c 128,-1,37
 338 175 338 175 326.5 166 c 128,-1,38
 315 157 315 157 315 140 c 0,39,40
 315 119 315 119 355 119 c 128,-1,41
 395 119 395 119 419.5 135.5 c 128,-1,42
 444 152 444 152 452 179 c 1,43,-1
 445 179 l 1,44,-1
 395 239 l 1,45,-1
 395 312 l 1,46,47
 438 312 438 312 455 309 c 1,48,-1
 455 499 l 1,49,-1
 447 499 l 1,50,-1
 397 559 l 1,51,-1
 397 700 l 1,52,-1
 701 700 l 1,53,-1
 751 640 l 1,54,-1
 751 499 l 1,0,-1
360 18 m 128,-1,56
 423 18 423 18 476 31 c 128,-1,57
 529 44 529 44 568.5 79.5 c 128,-1,58
 608 115 608 115 608 169 c 2,59,-1
 608 179 l 2,60,61
 608 262 608 262 673 262 c 1,62,-1
 673 286 l 1,63,64
 655 286 655 286 645.5 284.5 c 128,-1,65
 636 283 636 283 620.5 272.5 c 128,-1,66
 605 262 605 262 592 241 c 1,67,68
 570 246 570 246 548 275 c 1,69,70
 530 249 530 249 502 241 c 1,71,72
 490 262 490 262 475 272.5 c 128,-1,73
 460 283 460 283 450 284.5 c 128,-1,74
 440 286 440 286 422 286 c 1,75,-1
 422 262 l 1,76,77
 455 262 455 262 469 243 c 128,-1,78
 483 224 483 224 483 205 c 0,79,80
 483 151 483 151 448 120.5 c 128,-1,81
 413 90 413 90 360 90 c 128,-1,82
 307 90 307 90 272 120.5 c 128,-1,83
 237 151 237 151 237 205 c 0,84,85
 237 224 237 224 251 243 c 128,-1,86
 265 262 265 262 298 262 c 1,87,-1
 298 286 l 1,88,89
 280 286 280 286 270 284.5 c 128,-1,90
 260 283 260 283 245 272.5 c 128,-1,91
 230 262 230 262 218 241 c 1,92,93
 192 246 192 246 172 275 c 1,94,95
 152 249 152 249 128 241 c 1,96,97
 115 262 115 262 99.5 272.5 c 128,-1,98
 84 283 84 283 74.5 284.5 c 128,-1,99
 65 286 65 286 47 286 c 1,100,-1
 47 262 l 1,101,102
 112 262 112 262 112 179 c 2,103,-1
 112 169 l 2,104,105
 112 115 112 115 151.5 79.5 c 128,-1,106
 191 44 191 44 244 31 c 128,-1,55
 297 18 297 18 360 18 c 128,-1,56
511 279 m 1,107,108
 521 285 521 285 535 303 c 1,109,-1
 560 303 l 1,110,111
 573 285 573 285 585 279 c 1,112,113
 596 292 596 292 611 300 c 1,114,-1
 611 587 l 1,115,-1
 673 587 l 1,116,-1
 673 672 l 1,117,-1
 425 672 l 1,118,-1
 425 587 l 1,119,-1
 485 587 l 1,120,-1
 485 300 l 1,121,122
 499 292 499 292 511 279 c 1,107,108
135 279 m 1,123,124
 147 286 147 286 160 303 c 1,125,-1
 185 303 l 1,126,127
 198 285 198 285 209 279 c 1,128,129
 220 293 220 293 236 301 c 1,130,-1
 236 587 l 1,131,-1
 298 587 l 1,132,-1
 298 672 l 1,133,-1
 50 672 l 1,134,-1
 50 587 l 1,135,-1
 110 587 l 1,136,-1
 110 300 l 1,137,138
 123 293 123 293 135 279 c 1,123,124
EndSplineSet
EndChar

StartChar: V
Encoding: 86 86 57
Width: 732
GlyphClass: 2
Flags: W
LayerCount: 2
Fore
SplineSet
544 70 m 0,0,1
 544 17 544 17 582 11 c 1,2,-1
 582 -60 l 1,3,4
 531 -60 531 -60 509 -55 c 128,-1,5
 487 -50 487 -50 471 -30 c 1,6,7
 463 -35 463 -35 446 -63 c 1,8,-1
 440 -72 l 1,9,-1
 345 -72 l 1,10,11
 325 -37 325 -37 314 -30 c 1,12,13
 299 -50 299 -50 278 -55 c 128,-1,14
 257 -60 257 -60 204 -60 c 1,15,-1
 154 10 l 1,16,-1
 154 71 l 1,17,18
 192 77 192 77 192 130 c 0,19,20
 192 152 192 152 185 175 c 1,21,22
 174 180 174 180 160 180 c 1,23,-1
 110 240 l 1,24,-1
 110 312 l 1,25,-1
 135 312 l 1,26,-1
 94 499 l 1,27,-1
 66 499 l 1,28,-1
 16 559 l 1,29,-1
 16 700 l 1,30,-1
 294 700 l 1,31,-1
 344 640 l 1,32,-1
 344 499 l 1,33,-1
 293 499 l 1,34,-1
 335 299 l 1,35,-1
 360 269 l 1,36,-1
 360 312 l 1,37,-1
 390 312 l 1,38,-1
 431 510 l 1,39,-1
 390 559 l 1,40,-1
 390 700 l 1,41,-1
 668 700 l 1,42,-1
 718 640 l 1,43,-1
 718 499 l 1,44,-1
 653 499 l 1,45,-1
 604 279 l 1,46,-1
 627 252 l 1,47,-1
 627 180 l 1,48,49
 588 179 588 179 566 145 c 128,-1,50
 544 111 544 111 544 70 c 0,0,1
551 289 m 1,51,52
 499 289 499 289 472 242 c 1,53,54
 447 260 447 260 426 286 c 1,55,-1
 386 286 l 1,56,-1
 386 266 l 1,57,58
 406 254 406 254 406 225 c 128,-1,59
 406 196 406 196 381 157.5 c 128,-1,60
 356 119 356 119 342 111 c 1,61,62
 329 119 329 119 304 157.5 c 128,-1,63
 279 196 279 196 279 224.5 c 128,-1,64
 279 253 279 253 299 266 c 1,65,-1
 299 286 l 1,66,-1
 259 286 l 1,67,68
 244 264 244 264 216 242 c 1,69,70
 186 289 186 289 136 289 c 1,71,-1
 136 264 l 1,72,73
 174 259 174 259 198 216.5 c 128,-1,74
 222 174 222 174 222 131 c 0,75,76
 222 63 222 63 181 55 c 1,77,-1
 181 25 l 1,78,79
 228 25 228 25 249 44 c 0,80,81
 260 53 260 53 269 69 c 1,82,83
 293 42 293 42 314 13 c 1,84,-1
 370 13 l 1,85,-1
 416 69 l 1,86,87
 436 37 436 37 462 30 c 0,88,89
 484 25 484 25 506 25 c 1,90,-1
 506 55 l 1,91,92
 466 63 466 63 466 131 c 0,93,94
 466 174 466 174 490 216.5 c 128,-1,95
 514 259 514 259 551 264 c 1,96,-1
 551 289 l 1,51,52
640 587 m 1,97,-1
 640 672 l 1,98,-1
 418 672 l 1,99,-1
 418 587 l 1,100,-1
 474 587 l 1,101,-1
 418 312 l 1,102,-1
 439 312 l 1,103,104
 458 286 458 286 469 280 c 1,105,106
 487 303 487 303 517 309 c 1,107,-1
 580 587 l 1,108,-1
 640 587 l 1,97,-1
218 280 m 1,109,110
 228 288 228 288 247 312 c 1,111,-1
 265 312 l 1,112,-1
 210 587 l 1,113,-1
 266 587 l 1,114,-1
 266 672 l 1,115,-1
 44 672 l 1,116,-1
 44 587 l 1,117,-1
 104 587 l 1,118,-1
 166 309 l 1,119,120
 197 305 197 305 218 280 c 1,109,110
EndSplineSet
EndChar

StartChar: W
Encoding: 87 87 58
Width: 990
GlyphClass: 2
Flags: W
LayerCount: 2
Fore
SplineSet
343 499 m 1,0,-1
 292 499 l 1,1,-1
 332 304 l 1,2,-1
 363 266 l 1,3,-1
 363 312 l 1,4,-1
 392 312 l 1,5,-1
 441 536 l 1,6,-1
 511 536 l 1,7,-1
 561 476 l 1,8,-1
 604 288 l 1,9,-1
 622 266 l 1,10,-1
 622 312 l 1,11,-1
 656 312 l 1,12,-1
 697 510 l 1,13,-1
 656 559 l 1,14,-1
 656 700 l 1,15,-1
 934 700 l 1,16,-1
 984 640 l 1,17,-1
 984 499 l 1,18,-1
 919 499 l 1,19,-1
 869 274 l 1,20,-1
 888 252 l 1,21,-1
 888 180 l 1,22,23
 850 179 850 179 828 145 c 128,-1,24
 806 111 806 111 806 70 c 0,25,26
 806 17 806 17 845 11 c 1,27,-1
 845 -60 l 1,28,29
 791 -60 791 -60 769.5 -55 c 128,-1,30
 748 -50 748 -50 732 -30 c 1,31,32
 722 -36 722 -36 708 -63 c 1,33,-1
 704 -72 l 1,34,-1
 588 -72 l 1,35,-1
 538 -12 l 1,36,-1
 518 25 l 1,37,-1
 464 -72 l 1,38,-1
 347 -72 l 1,39,40
 327 -37 327 -37 316 -30 c 1,41,42
 299 -51 299 -51 278.5 -55.5 c 128,-1,43
 258 -60 258 -60 208 -60 c 1,44,-1
 158 0 l 1,45,-1
 158 71 l 1,46,47
 195 78 195 78 195 130 c 0,48,49
 195 154 195 154 188 175 c 1,50,-1
 162 180 l 1,51,-1
 112 240 l 1,52,-1
 112 312 l 1,53,-1
 135 312 l 1,54,-1
 93 499 l 1,55,-1
 65 499 l 1,56,-1
 15 559 l 1,57,-1
 15 700 l 1,58,-1
 293 700 l 1,59,-1
 343 640 l 1,60,-1
 343 499 l 1,0,-1
524 286 m 1,61,62
 505 261 505 261 477 242 c 1,63,64
 450 260 450 260 429 286 c 1,65,-1
 390 286 l 1,66,-1
 390 266 l 1,67,68
 397 261 397 261 403.5 247.5 c 128,-1,69
 410 234 410 234 410 215.5 c 128,-1,70
 410 197 410 197 384.5 157.5 c 128,-1,71
 359 118 359 118 345 110 c 1,72,73
 332 119 332 119 307 158 c 128,-1,74
 282 197 282 197 282 225 c 128,-1,75
 282 253 282 253 302 266 c 1,76,-1
 302 286 l 1,77,-1
 262 286 l 1,78,79
 245 264 245 264 217 242 c 1,80,81
 190 289 190 289 138 289 c 1,82,-1
 138 264 l 1,83,84
 175 259 175 259 199 216.5 c 128,-1,85
 223 174 223 174 223 131 c 0,86,87
 223 63 223 63 183 55 c 1,88,-1
 183 25 l 1,89,90
 230 25 230 25 251 44 c 0,91,92
 262 53 262 53 272 69 c 1,93,94
 296 42 296 42 317 13 c 1,95,-1
 397 13 l 1,96,-1
 464 128 l 1,97,-1
 492 128 l 1,98,-1
 553 13 l 1,99,-1
 634 13 l 1,100,-1
 676 69 l 1,101,102
 696 37 696 37 722 30 c 0,103,104
 744 25 744 25 768 25 c 1,105,-1
 768 55 l 1,106,107
 727 63 727 63 727 131 c 0,108,109
 727 174 727 174 751.5 216.5 c 128,-1,110
 776 259 776 259 814 264 c 1,111,-1
 814 289 l 1,112,113
 762 289 762 289 732 242 c 1,114,115
 708 260 708 260 686 286 c 1,116,-1
 648 286 l 1,117,-1
 648 266 l 1,118,119
 669 252 669 252 669 224 c 128,-1,120
 669 196 669 196 644 157 c 128,-1,121
 619 118 619 118 605 110 c 1,122,123
 592 118 592 118 567 157.5 c 128,-1,124
 542 197 542 197 542 226 c 128,-1,125
 542 255 542 255 561 266 c 1,126,-1
 561 286 l 1,127,-1
 524 286 l 1,61,62
220 280 m 1,128,129
 230 288 230 288 249 312 c 1,130,-1
 264 312 l 1,131,-1
 209 587 l 1,132,-1
 265 587 l 1,133,-1
 265 672 l 1,134,-1
 43 672 l 1,135,-1
 43 587 l 1,136,-1
 103 587 l 1,137,-1
 165 310 l 1,138,139
 200 305 200 305 220 280 c 1,128,129
906 587 m 1,140,-1
 906 672 l 1,141,-1
 684 672 l 1,142,-1
 684 587 l 1,143,-1
 740 587 l 1,144,-1
 684 312 l 1,145,-1
 698 312 l 1,146,147
 718 286 718 286 730 280 c 1,148,149
 750 306 750 306 783 310 c 1,150,-1
 846 587 l 1,151,-1
 906 587 l 1,140,-1
477 276 m 1,152,153
 487 282 487 282 513 312 c 1,154,-1
 535 312 l 1,155,-1
 490 509 l 1,156,-1
 462 509 l 1,157,-1
 419 312 l 1,158,-1
 443 312 l 1,159,160
 467 282 467 282 477 276 c 1,152,153
EndSplineSet
EndChar

StartChar: X
Encoding: 88 88 59
Width: 828
GlyphClass: 2
Flags: W
LayerCount: 2
Fore
SplineSet
54 700 m 1,0,-1
 360 700 l 1,1,-1
 408 642 l 1,2,-1
 408 700 l 1,3,-1
 713 700 l 1,4,-1
 763 640 l 1,5,-1
 763 499 l 1,6,-1
 695 499 l 1,7,-1
 580 289 l 1,8,-1
 586 279 l 1,9,10
 608 312 608 312 692 312 c 1,11,-1
 742 252 l 1,12,-1
 754 180 l 1,13,14
 700 180 700 180 700 132 c 0,15,16
 700 103 700 103 707 103 c 0,17,18
 724 103 724 103 726 113 c 1,19,-1
 758 94 l 1,20,-1
 808 34 l 1,21,22
 808 -14 808 -14 784.5 -37 c 128,-1,23
 761 -60 761 -60 724.5 -60 c 128,-1,24
 688 -60 688 -60 641 -35 c 1,25,26
 604 -60 604 -60 569 -60 c 0,27,28
 514 -60 514 -60 465.5 -11 c 128,-1,29
 417 38 417 38 400 94 c 1,30,-1
 424 113 l 1,31,32
 432 103 432 103 447 103 c 0,33,34
 480 103 480 103 480 142 c 1,35,-1
 477 165 l 1,36,37
 458 175 458 175 430.5 175 c 128,-1,38
 403 175 403 175 378 159 c 128,-1,39
 353 143 353 143 344 113 c 1,40,-1
 368 94 l 1,41,-1
 418 34 l 1,42,43
 404 -13 404 -13 371.5 -36.5 c 128,-1,44
 339 -60 339 -60 302.5 -60 c 128,-1,45
 266 -60 266 -60 226 -35 c 1,46,47
 181 -60 181 -60 143 -60 c 0,48,49
 91 -60 91 -60 51.5 -10 c 128,-1,50
 12 40 12 40 12 94 c 1,51,-1
 43 113 l 1,52,53
 45 103 45 103 62.5 103 c 128,-1,54
 80 103 80 103 96.5 127 c 128,-1,55
 113 151 113 151 117 180 c 1,56,-1
 64 240 l 1,57,-1
 76 312 l 1,58,59
 161 312 161 312 184 278 c 1,60,61
 197 284 197 284 210 301 c 1,62,-1
 238 350 l 1,63,-1
 155 499 l 1,64,-1
 104 499 l 1,65,-1
 54 559 l 1,66,-1
 54 700 l 1,0,-1
685 587 m 1,67,-1
 685 672 l 1,68,-1
 435 672 l 1,69,-1
 435 587 l 1,70,-1
 499 587 l 1,71,-1
 397 401 l 1,72,-1
 372 401 l 1,73,-1
 268 587 l 1,74,-1
 332 587 l 1,75,-1
 332 672 l 1,76,-1
 82 672 l 1,77,-1
 82 587 l 1,78,-1
 141 587 l 1,79,-1
 272 349 l 1,80,-1
 242 295 l 1,81,82
 249 281 249 281 255 278 c 1,83,84
 293 316 293 316 383.5 316 c 128,-1,85
 474 316 474 316 510 278 c 1,86,87
 521 284 521 284 525 295 c 1,88,-1
 496 349 l 1,89,-1
 625 587 l 1,90,-1
 685 587 l 1,67,-1
588 61 m 1,91,92
 632 27 632 27 672.5 27 c 128,-1,93
 713 27 713 27 726 79 c 1,94,95
 721 75 721 75 712 75 c 0,96,97
 674 75 674 75 647.5 112.5 c 128,-1,98
 621 150 621 150 621 184 c 0,99,100
 621 255 621 255 676 263 c 1,101,-1
 672 287 l 1,102,103
 653 287 653 287 643.5 285.5 c 128,-1,104
 634 284 634 284 621 273.5 c 128,-1,105
 608 263 608 263 599 241 c 1,106,107
 576 245 576 245 547 275 c 1,108,109
 540 262 540 262 530.5 253.5 c 128,-1,110
 521 245 521 245 509 241 c 1,111,112
 470 289 470 289 383 289 c 128,-1,113
 296 289 296 289 259 241 c 1,114,115
 236 245 236 245 220 275 c 1,116,117
 196 249 196 249 170 241 c 1,118,119
 161 263 161 263 147.5 273.5 c 128,-1,120
 134 284 134 284 124 285.5 c 128,-1,121
 114 287 114 287 96 287 c 1,122,-1
 92 263 l 1,123,124
 120 259 120 259 133.5 239.5 c 128,-1,125
 147 220 147 220 147 185 c 128,-1,126
 147 150 147 150 120.5 112.5 c 128,-1,127
 94 75 94 75 57 75 c 1,128,-1
 43 79 l 1,129,130
 56 27 56 27 95.5 27 c 128,-1,131
 135 27 135 27 180 61 c 1,132,-1
 186 61 l 1,133,134
 220 27 220 27 254 27 c 0,135,136
 299 27 299 27 332 79 c 1,137,138
 324 75 324 75 314 75 c 0,139,140
 258 75 258 75 258 133 c 128,-1,141
 258 191 258 191 296 224.5 c 128,-1,142
 334 258 334 258 384 258 c 128,-1,143
 434 258 434 258 472 224.5 c 128,-1,144
 510 191 510 191 510 133 c 128,-1,145
 510 75 510 75 454 75 c 1,146,-1
 435 79 l 1,147,148
 467 27 467 27 514 27 c 0,149,150
 549 27 549 27 582 61 c 1,151,-1
 588 61 l 1,91,92
410 499 m 1,152,-1
 366 499 l 1,153,-1
 394 443 l 1,154,-1
 436 526 l 1,155,-1
 410 556 l 1,156,-1
 410 499 l 1,152,-1
EndSplineSet
EndChar

StartChar: Y
Encoding: 89 89 60
Width: 689
GlyphClass: 2
Flags: W
LayerCount: 2
Fore
SplineSet
169 312 m 1,0,-1
 198 312 l 1,1,-1
 99 499 l 1,2,-1
 50 499 l 1,3,-1
 0 559 l 1,4,-1
 0 700 l 1,5,-1
 296 700 l 1,6,-1
 344 642 l 1,7,-1
 344 700 l 1,8,-1
 639 700 l 1,9,-1
 689 640 l 1,10,-1
 689 499 l 1,11,-1
 621 499 l 1,12,-1
 502 275 l 1,13,-1
 521 252 l 1,14,-1
 521 179 l 1,15,16
 482 179 482 179 470.5 165 c 128,-1,17
 459 151 459 151 459 120 c 2,18,-1
 459 105 l 1,19,20
 466 105 466 105 471 113 c 1,21,-1
 499 95 l 1,22,-1
 549 35 l 1,23,24
 543 -12 543 -12 515 -36 c 128,-1,25
 487 -60 487 -60 447.5 -60 c 128,-1,26
 408 -60 408 -60 370 -33 c 1,27,28
 332 -60 332 -60 291.5 -60 c 128,-1,29
 251 -60 251 -60 199 -12 c 128,-1,30
 147 36 147 36 141 95 c 1,31,-1
 169 113 l 1,32,33
 173 104 173 104 188 104 c 0,34,35
 231 104 231 104 231 179 c 1,36,-1
 219 179 l 1,37,-1
 169 239 l 1,38,-1
 169 312 l 1,0,-1
283 279 m 1,39,40
 293 285 293 285 307 303 c 1,41,-1
 333 303 l 1,42,43
 346 285 346 285 357 279 c 1,44,45
 374 303 374 303 407 309 c 1,46,-1
 551 587 l 1,47,-1
 611 587 l 1,48,-1
 611 672 l 1,49,-1
 372 672 l 1,50,-1
 372 587 l 1,51,-1
 433 587 l 1,52,-1
 338 381 l 1,53,-1
 302 381 l 1,54,-1
 206 587 l 1,55,-1
 268 587 l 1,56,-1
 268 672 l 1,57,-1
 28 672 l 1,58,-1
 28 587 l 1,59,-1
 88 587 l 1,60,-1
 231 309 l 1,61,62
 265 303 265 303 283 279 c 1,39,40
323 61 m 1,63,64
 359 30 359 30 402.5 30 c 128,-1,65
 446 30 446 30 466 80 c 1,66,67
 459 76 459 76 450 76 c 0,68,69
 380 76 380 76 380 179 c 0,70,71
 380 263 380 263 446 263 c 1,72,-1
 446 288 l 1,73,74
 427 288 427 288 417 286.5 c 128,-1,75
 407 285 407 285 392 274 c 128,-1,76
 377 263 377 263 365 241 c 1,77,78
 341 246 341 246 320 276 c 1,79,80
 299 249 299 249 275 241 c 1,81,82
 262 263 262 263 247 274 c 128,-1,83
 232 285 232 285 222 286.5 c 128,-1,84
 212 288 212 288 194 288 c 1,85,-1
 194 263 l 1,86,87
 260 263 260 263 260 179 c 0,88,89
 260 103 260 103 228 84 c 0,90,91
 213 76 213 76 190 76 c 1,92,-1
 174 80 l 1,93,94
 194 30 194 30 237.5 30 c 128,-1,95
 281 30 281 30 317 61 c 1,96,-1
 323 61 l 1,63,64
346 499 m 1,97,-1
 303 499 l 1,98,-1
 332 431 l 1,99,-1
 372 525 l 1,100,-1
 346 556 l 1,101,-1
 346 499 l 1,97,-1
EndSplineSet
EndChar

StartChar: Z
Encoding: 90 90 61
Width: 707
GlyphClass: 2
Flags: W
LayerCount: 2
Fore
SplineSet
212 499 m 1,0,-1
 212 396 l 1,1,-1
 96 396 l 1,2,-1
 46 456 l 1,3,-1
 46 700 l 1,4,-1
 586 700 l 1,5,-1
 636 640 l 1,6,-1
 636 499 l 1,7,-1
 569 499 l 1,8,-1
 436 266 l 1,9,-1
 448 252 l 1,10,-1
 448 180 l 1,11,12
 431 179 431 179 421 177.5 c 128,-1,13
 411 176 411 176 400.5 166.5 c 128,-1,14
 390 157 390 157 390 140 c 2,15,-1
 390 134 l 1,16,17
 403 129 403 129 429.5 129 c 128,-1,18
 456 129 456 129 479 145.5 c 128,-1,19
 502 162 502 162 502 192 c 0,20,21
 502 206 502 206 498 221 c 1,22,-1
 498 252 l 1,23,-1
 613 252 l 1,24,-1
 663 192 l 1,25,-1
 663 11 l 2,26,27
 663 -22 663 -22 681 -34 c 1,28,-1
 663 -60 l 1,29,30
 636 -60 636 -60 608.5 -47.5 c 128,-1,31
 581 -35 581 -35 566 -20 c 1,32,33
 511 -60 511 -60 437.5 -60 c 128,-1,34
 364 -60 364 -60 314 -24 c 1,35,36
 270 -60 270 -60 205.5 -60 c 128,-1,37
 141 -60 141 -60 87 -11.5 c 128,-1,38
 33 37 33 37 33 94 c 1,39,-1
 65 113 l 1,40,41
 67 103 67 103 86 103 c 128,-1,42
 105 103 105 103 121.5 127 c 128,-1,43
 138 151 138 151 139 180 c 1,44,-1
 89 240 l 1,45,-1
 100 312 l 1,46,47
 161 312 161 312 182 302 c 1,48,-1
 287 499 l 1,49,-1
 212 499 l 1,0,-1
208 278 m 1,50,51
 222 285 222 285 238 303 c 1,52,-1
 263 303 l 1,53,54
 274 283 274 283 287 278 c 1,55,56
 310 308 310 308 347 311 c 1,57,-1
 500 587 l 1,58,-1
 557 587 l 1,59,-1
 557 672 l 1,60,-1
 74 672 l 1,61,-1
 74 484 l 1,62,-1
 134 484 l 1,63,-1
 134 587 l 1,64,-1
 367 587 l 1,65,-1
 205 283 l 1,66,-1
 208 278 l 1,50,51
526 224 m 1,67,-1
 531 187 l 1,68,69
 531 147 531 147 500 124 c 128,-1,70
 469 101 469 101 424 101 c 128,-1,71
 379 101 379 101 346.5 126 c 128,-1,72
 314 151 314 151 314 205 c 0,73,74
 314 233 314 233 331.5 248 c 128,-1,75
 349 263 349 263 371 263 c 1,76,-1
 371 287 l 1,77,78
 354 287 354 287 345 285.5 c 128,-1,79
 336 284 336 284 321.5 273 c 128,-1,80
 307 262 307 262 296 241 c 1,81,82
 262 249 262 249 246 275 c 1,83,84
 222 249 222 249 193 241 c 1,85,86
 185 262 185 262 172 273 c 128,-1,87
 159 284 159 284 149.5 285.5 c 128,-1,88
 140 287 140 287 122 287 c 1,89,-1
 117 263 l 1,90,91
 173 254 173 254 173 192 c 0,92,93
 173 149 173 149 146 112 c 128,-1,94
 119 75 119 75 80 75 c 1,95,-1
 65 79 l 1,96,97
 69 58 69 58 97.5 42.5 c 128,-1,98
 126 27 126 27 155 27 c 0,99,100
 214 27 214 27 262 75 c 1,101,-1
 270 68 l 2,102,103
 317 27 317 27 385 27 c 128,-1,104
 453 27 453 27 516 75 c 1,105,106
 524 66 524 66 550.5 49.5 c 128,-1,107
 577 33 577 33 593 31 c 1,108,109
 585 39 585 39 585 82 c 2,110,-1
 585 224 l 1,111,-1
 526 224 l 1,67,-1
EndSplineSet
EndChar

StartChar: bracketleft
Encoding: 91 91 62
Width: 360
GlyphClass: 2
Flags: W
LayerCount: 2
Fore
SplineSet
71 712 m 1,0,-1
 294 712 l 1,1,-1
 344 652 l 1,2,-1
 344 538 l 1,3,-1
 251 538 l 1,4,-1
 251 102 l 1,5,-1
 294 102 l 1,6,-1
 344 42 l 1,7,-1
 344 -72 l 1,8,-1
 121 -72 l 1,9,-1
 71 -12 l 1,10,-1
 71 712 l 1,0,-1
99 685 m 1,11,-1
 99 15 l 1,12,-1
 264 15 l 1,13,-1
 264 75 l 1,14,-1
 173 75 l 1,15,-1
 173 625 l 1,16,-1
 264 625 l 1,17,-1
 264 685 l 1,18,-1
 99 685 l 1,11,-1
EndSplineSet
EndChar

StartChar: backslash
Encoding: 92 92 63
Width: 419
GlyphClass: 2
Flags: W
LayerCount: 2
Fore
SplineSet
369 -60 m 1,0,-1
 206 -60 l 1,1,-1
 156 0 l 1,2,-1
 51 699 l 1,3,-1
 214 699 l 1,4,-1
 264 639 l 1,5,-1
 369 -60 l 1,0,-1
185 27 m 1,6,-1
 281 27 l 1,7,-1
 185 672 l 1,8,-1
 88 672 l 1,9,-1
 185 27 l 1,6,-1
EndSplineSet
EndChar

StartChar: bracketright
Encoding: 93 93 64
Width: 366
GlyphClass: 2
Flags: W
LayerCount: 2
Fore
SplineSet
33 712 m 1,0,-1
 256 712 l 1,1,-1
 306 652 l 1,2,-1
 306 -72 l 1,3,-1
 83 -72 l 1,4,-1
 33 -12 l 1,5,-1
 33 102 l 1,6,-1
 126 102 l 1,7,-1
 126 538 l 1,8,-1
 83 538 l 1,9,-1
 33 598 l 1,10,-1
 33 712 l 1,0,-1
228 15 m 1,11,-1
 228 685 l 1,12,-1
 63 685 l 1,13,-1
 63 625 l 1,14,-1
 154 625 l 1,15,-1
 154 75 l 1,16,-1
 63 75 l 1,17,-1
 63 15 l 1,18,-1
 228 15 l 1,11,-1
EndSplineSet
EndChar

StartChar: asciicircum
Encoding: 94 94 65
Width: 468
GlyphClass: 2
Flags: W
LayerCount: 2
Fore
SplineSet
305 639 m 1,0,-1
 425 453 l 1,1,-1
 321 453 l 1,2,-1
 243 523 l 1,3,-1
 165 453 l 1,4,-1
 61 453 l 1,5,-1
 11 513 l 1,6,-1
 131 699 l 1,7,-1
 255 699 l 1,8,-1
 305 639 l 1,0,-1
152 672 m 1,9,-1
 61 540 l 1,10,-1
 103 540 l 1,11,-1
 184 610 l 1,12,-1
 202 610 l 1,13,-1
 283 540 l 1,14,-1
 325 540 l 1,15,-1
 234 672 l 1,16,-1
 152 672 l 1,9,-1
EndSplineSet
EndChar

StartChar: underscore
Encoding: 95 95 66
Width: 562
GlyphClass: 2
Flags: W
LayerCount: 2
Fore
SplineSet
563 -250 m 1,0,-1
 50 -250 l 1,1,-1
 0 -190 l 1,2,-1
 0 -46 l 1,3,-1
 513 -46 l 1,4,-1
 563 -106 l 1,5,-1
 563 -250 l 1,0,-1
30 -163 m 1,6,-1
 483 -163 l 1,7,-1
 483 -73 l 1,8,-1
 30 -73 l 1,9,-1
 30 -163 l 1,6,-1
EndSplineSet
EndChar

StartChar: grave
Encoding: 96 96 67
Width: 223
GlyphClass: 2
Flags: W
LayerCount: 2
Fore
SplineSet
211 523 m 1,0,-1
 125 523 l 1,1,-1
 75 583 l 1,2,-1
 15 743 l 1,3,-1
 151 743 l 1,4,-1
 201 683 l 1,5,-1
 211 523 l 1,0,-1
96 609 m 1,6,-1
 132 609 l 1,7,-1
 122 718 l 1,8,-1
 54 718 l 1,9,-1
 96 609 l 1,6,-1
EndSplineSet
EndChar

StartChar: a
Encoding: 97 97 68
Width: 806
GlyphClass: 2
Flags: W
LayerCount: 2
Fore
SplineSet
133 700 m 1,0,-1
 623 700 l 1,1,-1
 673 640 l 1,2,-1
 673 501 l 1,3,-1
 621 501 l 1,4,-1
 658 311 l 1,5,6
 667 312 667 312 686 312 c 1,7,-1
 736 252 l 1,8,-1
 748 180 l 1,9,10
 694 180 694 180 694 132 c 0,11,12
 694 103 694 103 701 103 c 0,13,14
 718 103 718 103 720 113 c 1,15,-1
 752 94 l 1,16,-1
 802 34 l 1,17,18
 802 -14 802 -14 778.5 -37 c 128,-1,19
 755 -60 755 -60 718.5 -60 c 128,-1,20
 682 -60 682 -60 635 -35 c 1,21,22
 598 -60 598 -60 563 -60 c 0,23,24
 508 -60 508 -60 459.5 -11 c 128,-1,25
 411 38 411 38 394 94 c 1,26,-1
 418 113 l 1,27,28
 426 103 426 103 441 103 c 0,29,30
 474 103 474 103 474 142 c 1,31,-1
 471 165 l 1,32,33
 452 175 452 175 424.5 175 c 128,-1,34
 397 175 397 175 372 159 c 128,-1,35
 347 143 347 143 338 113 c 1,36,-1
 362 94 l 1,37,-1
 412 34 l 1,38,39
 398 -13 398 -13 365.5 -36.5 c 128,-1,40
 333 -60 333 -60 296.5 -60 c 128,-1,41
 260 -60 260 -60 220 -35 c 1,42,43
 175 -60 175 -60 137 -60 c 0,44,45
 85 -60 85 -60 45.5 -10 c 128,-1,46
 6 40 6 40 6 94 c 1,47,-1
 37 113 l 1,48,49
 39 103 39 103 56.5 103 c 128,-1,50
 74 103 74 103 90.5 127 c 128,-1,51
 107 151 107 151 111 180 c 1,52,-1
 58 240 l 1,53,-1
 70 312 l 1,54,55
 113 312 113 312 135 306 c 1,56,-1
 175 510 l 1,57,-1
 133 561 l 1,58,-1
 133 700 l 1,0,-1
504 278 m 1,59,60
 513 285 513 285 524 303 c 1,61,-1
 550 303 l 1,62,63
 566 284 566 284 579 278 c 1,64,65
 583 285 583 285 595 295 c 1,66,-1
 538 590 l 1,67,-1
 595 590 l 1,68,-1
 595 672 l 1,69,-1
 161 672 l 1,70,-1
 161 590 l 1,71,-1
 218 590 l 1,72,-1
 160 295 l 1,73,74
 172 286 172 286 178 278 c 1,75,76
 190 285 190 285 206 303 c 1,77,-1
 232 303 l 1,78,79
 240 284 240 284 249 278 c 1,80,81
 287 316 287 316 377.5 316 c 128,-1,82
 468 316 468 316 504 278 c 1,59,60
582 61 m 1,83,84
 626 27 626 27 666.5 27 c 128,-1,85
 707 27 707 27 720 79 c 1,86,87
 715 75 715 75 706 75 c 0,88,89
 668 75 668 75 641.5 112.5 c 128,-1,90
 615 150 615 150 615 184 c 0,91,92
 615 255 615 255 670 263 c 1,93,-1
 666 287 l 1,94,95
 647 287 647 287 637.5 285.5 c 128,-1,96
 628 284 628 284 615 273.5 c 128,-1,97
 602 263 602 263 593 241 c 1,98,99
 570 245 570 245 541 275 c 1,100,101
 534 262 534 262 524.5 253.5 c 128,-1,102
 515 245 515 245 503 241 c 1,103,104
 464 289 464 289 377 289 c 128,-1,105
 290 289 290 289 253 241 c 1,106,107
 230 245 230 245 214 275 c 1,108,109
 190 249 190 249 164 241 c 1,110,111
 155 263 155 263 141.5 273.5 c 128,-1,112
 128 284 128 284 118 285.5 c 128,-1,113
 108 287 108 287 90 287 c 1,114,-1
 86 263 l 1,115,116
 114 259 114 259 127.5 239.5 c 128,-1,117
 141 220 141 220 141 185 c 128,-1,118
 141 150 141 150 114.5 112.5 c 128,-1,119
 88 75 88 75 51 75 c 1,120,-1
 37 79 l 1,121,122
 50 27 50 27 89.5 27 c 128,-1,123
 129 27 129 27 174 61 c 1,124,-1
 180 61 l 1,125,126
 214 27 214 27 248 27 c 0,127,128
 293 27 293 27 326 79 c 1,129,130
 318 75 318 75 308 75 c 0,131,132
 252 75 252 75 252 133 c 128,-1,133
 252 191 252 191 290 224.5 c 128,-1,134
 328 258 328 258 378 258 c 128,-1,135
 428 258 428 258 466 224.5 c 128,-1,136
 504 191 504 191 504 133 c 128,-1,137
 504 75 504 75 448 75 c 1,138,-1
 429 79 l 1,139,140
 461 27 461 27 508 27 c 0,141,142
 543 27 543 27 576 61 c 1,143,-1
 582 61 l 1,83,84
287 340 m 1,144,-1
 341 590 l 1,145,-1
 415 590 l 1,146,-1
 471 340 l 1,147,-1
 287 340 l 1,144,-1
410 485 m 1,148,-1
 384 366 l 1,149,-1
 437 366 l 1,150,-1
 410 485 l 1,148,-1
EndSplineSet
EndChar

StartChar: b
Encoding: 98 98 69
Width: 752
GlyphClass: 2
Flags: W
LayerCount: 2
Fore
SplineSet
752 179 m 1,0,1
 712 179 712 179 701 163 c 128,-1,2
 690 147 690 147 690 108 c 0,3,4
 690 -60 690 -60 420 -60 c 0,5,6
 347 -60 347 -60 313 -51 c 128,-1,7
 279 -42 279 -42 250 -21 c 1,8,9
 213 -60 213 -60 168 -60 c 0,10,11
 109 -60 109 -60 64.5 -10 c 128,-1,12
 20 40 20 40 12 95 c 1,13,-1
 39 113 l 1,14,15
 45 105 45 105 61 105 c 128,-1,16
 77 105 77 105 87 117.5 c 128,-1,17
 97 130 97 130 99 143.5 c 128,-1,18
 101 157 101 157 101 179 c 1,19,-1
 89 179 l 1,20,-1
 39 239 l 1,21,-1
 39 312 l 1,22,23
 83 312 83 312 101 309 c 1,24,-1
 101 499 l 1,25,-1
 90 499 l 1,26,-1
 40 559 l 1,27,-1
 40 700 l 1,28,-1
 402 700 l 2,29,30
 518 700 518 700 587.5 638.5 c 128,-1,31
 657 577 657 577 657 458 c 0,32,33
 657 391 657 391 620 340 c 1,34,35
 632 327 632 327 645 310 c 1,36,37
 661 312 661 312 702 312 c 1,38,-1
 752 252 l 1,39,-1
 752 179 l 1,0,1
153 279 m 1,40,41
 161 284 161 284 176 303 c 1,42,-1
 202 303 l 1,43,44
 215 285 215 285 225 279 c 1,45,46
 239 296 239 296 256 303 c 1,47,-1
 256 355 l 1,48,-1
 375 355 l 2,49,50
 447 355 447 355 470 307 c 1,51,52
 497 301 497 301 515 279 c 1,53,54
 525 287 525 287 538 303 c 1,55,-1
 565 303 l 1,56,57
 576 285 576 285 588 279 c 1,58,59
 595 289 595 289 607 297 c 1,60,61
 586 349 586 349 523 388 c 1,62,63
 579 439 579 439 579 517 c 0,64,65
 579 672 579 672 392 672 c 2,66,-1
 68 672 l 1,67,-1
 68 587 l 1,68,-1
 131 587 l 1,69,-1
 131 298 l 1,70,71
 141 293 141 293 153 279 c 1,40,41
486 205 m 0,72,73
 486 102 486 102 369.5 102 c 128,-1,74
 253 102 253 102 253 205 c 0,75,76
 253 223 253 223 267.5 242.5 c 128,-1,77
 282 262 282 262 315 262 c 1,78,-1
 315 286 l 1,79,80
 297 286 297 286 287 284.5 c 128,-1,81
 277 283 277 283 262 272.5 c 128,-1,82
 247 262 247 262 234 241 c 1,83,84
 210 246 210 246 189 275 c 1,85,86
 169 249 169 249 145 241 c 1,87,88
 132 262 132 262 117 272.5 c 128,-1,89
 102 283 102 283 92 284.5 c 128,-1,90
 82 286 82 286 64 286 c 1,91,-1
 64 262 l 1,92,93
 128 262 128 262 128 179 c 0,94,95
 128 147 128 147 124.5 128 c 128,-1,96
 121 109 121 109 105.5 93 c 128,-1,97
 90 77 90 77 60 77 c 1,98,-1
 43 79 l 1,99,100
 67 27 67 27 116 27 c 0,101,102
 139 27 139 27 156.5 38 c 128,-1,103
 174 49 174 49 196 73 c 1,104,-1
 204 73 l 1,105,106
 231 49 231 49 264.5 39 c 128,-1,107
 298 29 298 29 370 29 c 0,108,109
 612 29 612 29 612 169 c 0,110,111
 612 262 612 262 676 262 c 1,112,-1
 676 286 l 1,113,114
 658 286 658 286 648.5 284.5 c 128,-1,115
 639 283 639 283 624 272.5 c 128,-1,116
 609 262 609 262 596 241 c 1,117,118
 573 246 573 246 552 275 c 1,119,120
 532 249 532 249 505 241 c 1,121,122
 492 262 492 262 477.5 272.5 c 128,-1,123
 463 283 463 283 453.5 284.5 c 128,-1,124
 444 286 444 286 425 286 c 1,125,-1
 425 262 l 1,126,127
 458 262 458 262 472 243 c 128,-1,128
 486 224 486 224 486 205 c 0,72,73
333 407 m 2,129,-1
 256 407 l 1,130,-1
 256 587 l 1,131,-1
 333 587 l 2,132,133
 400 587 400 587 423.5 568 c 128,-1,134
 447 549 447 549 447 499 c 0,135,136
 447 407 447 407 333 407 c 2,129,-1
399 268 m 1,137,-1
 377 268 l 1,138,-1
 391 252 l 1,139,-1
 391 179 l 1,140,141
 332 177 332 177 332 140 c 2,142,-1
 332 135 l 1,143,144
 348 131 348 131 370 131 c 0,145,146
 443 131 443 131 456 179 c 1,147,-1
 449 179 l 1,148,-1
 399 239 l 1,149,-1
 399 268 l 1,137,-1
334 500 m 1,150,-1
 334 434 l 1,151,152
 395 434 395 434 409 458 c 0,153,154
 419 475 419 475 419 498 c 1,155,156
 418 500 418 500 383 500 c 2,157,-1
 334 500 l 1,150,-1
EndSplineSet
EndChar

StartChar: c
Encoding: 99 99 70
Width: 731
GlyphClass: 2
Flags: W
LayerCount: 2
Fore
SplineSet
484 278 m 1,0,1
 495 285 495 285 508 303 c 1,2,-1
 534 303 l 1,3,4
 547 284 547 284 558 278 c 1,5,6
 576 301 576 301 599.5 306.5 c 128,-1,7
 623 312 623 312 672 312 c 1,8,-1
 722 252 l 1,9,-1
 722 180 l 1,10,11
 683 180 683 180 672 165 c 128,-1,12
 661 150 661 150 661 118 c 2,13,-1
 661 108 l 2,14,15
 661 56 661 56 636.5 19 c 128,-1,16
 612 -18 612 -18 570 -37 c 0,17,18
 493 -72 493 -72 391 -72 c 0,19,20
 266 -72 266 -72 175 -18 c 0,21,22
 128 9 128 9 99.5 57 c 128,-1,23
 71 105 71 105 71 168 c 2,24,-1
 71 180 l 1,25,-1
 60 180 l 1,26,-1
 10 240 l 1,27,-1
 10 312 l 1,28,29
 53 312 53 312 71 309 c 1,30,-1
 71 531 l 2,31,32
 71 648 71 648 193 690 c 0,33,34
 255 712 255 712 329 712 c 128,-1,35
 403 712 403 712 458 698.5 c 128,-1,36
 513 685 513 685 559.5 657.5 c 128,-1,37
 606 630 606 630 633 582 c 128,-1,38
 660 534 660 534 660 471 c 2,39,-1
 660 370 l 1,40,-1
 466 370 l 1,41,-1
 416 430 l 1,42,-1
 416 502 l 1,43,-1
 415 518 l 1,44,45
 406 521 406 521 389 521 c 0,46,47
 315 521 315 521 315 442 c 2,48,-1
 315 308 l 1,49,-1
 362 252 l 1,50,-1
 362 180 l 1,51,52
 303 178 303 178 303 140 c 2,53,-1
 303 132 l 1,54,55
 319 127 319 127 341 127 c 0,56,57
 415 127 415 127 427 180 c 1,58,-1
 420 180 l 1,59,-1
 370 240 l 1,60,-1
 370 312 l 1,61,62
 404 312 404 312 420 311 c 0,63,64
 459 308 459 308 484 278 c 1,0,1
124 278 m 1,65,66
 134 286 134 286 148 303 c 1,67,-1
 174 303 l 1,68,69
 186 284 186 284 198 278 c 1,70,71
 213 297 213 297 237 305 c 1,72,-1
 237 503 l 2,73,74
 237 555 237 555 264 583 c 128,-1,75
 291 611 291 611 340 611 c 128,-1,76
 389 611 389 611 417 583.5 c 128,-1,77
 445 556 445 556 445 503 c 2,78,-1
 445 458 l 1,79,-1
 582 458 l 1,80,-1
 582 529 l 2,81,82
 582 584 582 584 544.5 620 c 128,-1,83
 507 656 507 656 455 669.5 c 128,-1,84
 403 683 403 683 348 683 c 128,-1,85
 293 683 293 683 252.5 675 c 128,-1,86
 212 667 212 667 176.5 650 c 128,-1,87
 141 633 141 633 120 602 c 128,-1,88
 99 571 99 571 99 529 c 2,89,-1
 99 299 l 1,90,91
 112 292 112 292 124 278 c 1,65,66
582 169 m 2,92,-1
 582 178 l 2,93,94
 582 263 582 263 647 263 c 1,95,-1
 647 287 l 1,96,97
 606 287 606 287 586 267 c 0,98,99
 576 257 576 257 566 241 c 1,100,101
 545 245 545 245 522 275 c 1,102,103
 504 249 504 249 477 241 c 1,104,105
 464 262 464 262 448.5 273 c 128,-1,106
 433 284 433 284 423.5 285.5 c 128,-1,107
 414 287 414 287 397 287 c 1,108,-1
 397 263 l 1,109,110
 428 263 428 263 442 243 c 128,-1,111
 456 223 456 223 456 205 c 0,112,113
 456 99 456 99 341 99 c 128,-1,114
 226 99 226 99 226 205 c 0,115,116
 226 224 226 224 240 243.5 c 128,-1,117
 254 263 254 263 285 263 c 1,118,-1
 285 287 l 1,119,120
 267 287 267 287 257.5 285.5 c 128,-1,121
 248 284 248 284 233 273.5 c 128,-1,122
 218 263 218 263 205 241 c 1,123,124
 181 245 181 245 160 275 c 1,125,126
 140 249 140 249 116 241 c 1,127,128
 103 262 103 262 88 273 c 128,-1,129
 73 284 73 284 63 285.5 c 128,-1,130
 53 287 53 287 35 287 c 1,131,-1
 35 263 l 1,132,133
 100 263 100 263 100 178 c 2,134,-1
 100 169 l 2,135,136
 100 114 100 114 138 78 c 128,-1,137
 176 42 176 42 227.5 28.5 c 128,-1,138
 279 15 279 15 341 15 c 128,-1,139
 403 15 403 15 454.5 28.5 c 128,-1,140
 506 42 506 42 544 78 c 128,-1,141
 582 114 582 114 582 169 c 2,92,-1
EndSplineSet
EndChar

StartChar: d
Encoding: 100 100 71
Width: 763
GlyphClass: 2
Flags: W
LayerCount: 2
Fore
SplineSet
692 458 m 2,0,-1
 692 312 l 1,1,-1
 705 312 l 1,2,-1
 755 252 l 1,3,-1
 755 179 l 1,4,5
 715 179 715 179 704 163 c 128,-1,6
 693 147 693 147 693 108 c 0,7,8
 693 -60 693 -60 423 -60 c 0,9,10
 350 -60 350 -60 316 -51 c 128,-1,11
 282 -42 282 -42 253 -21 c 1,12,13
 216 -60 216 -60 171 -60 c 0,14,15
 112 -60 112 -60 67.5 -10 c 128,-1,16
 23 40 23 40 15 95 c 1,17,-1
 42 113 l 1,18,19
 48 105 48 105 64 105 c 128,-1,20
 80 105 80 105 90 117.5 c 128,-1,21
 100 130 100 130 102 143.5 c 128,-1,22
 104 157 104 157 104 179 c 1,23,-1
 92 179 l 1,24,-1
 42 239 l 1,25,-1
 42 312 l 1,26,27
 86 312 86 312 104 309 c 1,28,-1
 104 499 l 1,29,-1
 96 499 l 1,30,-1
 46 559 l 1,31,-1
 46 700 l 1,32,-1
 390 700 l 2,33,34
 510 700 510 700 597 646 c 0,35,36
 641 618 641 618 666.5 569.5 c 128,-1,37
 692 521 692 521 692 458 c 2,0,-1
518 279 m 1,38,39
 528 287 528 287 541 303 c 1,40,-1
 568 303 l 1,41,42
 579 285 579 285 591 279 c 1,43,44
 601 292 601 292 614 299 c 1,45,-1
 614 517 l 2,46,47
 614 597 614 597 550 634.5 c 128,-1,48
 486 672 486 672 390 672 c 2,49,-1
 74 672 l 1,50,-1
 74 587 l 1,51,-1
 134 587 l 1,52,-1
 134 298 l 1,53,54
 144 293 144 293 156 279 c 1,55,56
 164 284 164 284 179 303 c 1,57,-1
 205 303 l 1,58,59
 218 285 218 285 228 279 c 1,60,61
 243 297 243 297 262 304 c 1,62,-1
 262 587 l 1,63,-1
 372 587 l 2,64,65
 422 587 422 587 452 561 c 128,-1,66
 482 535 482 535 482 486 c 2,67,-1
 482 305 l 1,68,69
 503 297 503 297 518 279 c 1,38,39
489 205 m 0,70,71
 489 102 489 102 372.5 102 c 128,-1,72
 256 102 256 102 256 205 c 0,73,74
 256 223 256 223 270.5 242.5 c 128,-1,75
 285 262 285 262 318 262 c 1,76,-1
 318 286 l 1,77,78
 300 286 300 286 290 284.5 c 128,-1,79
 280 283 280 283 265 272.5 c 128,-1,80
 250 262 250 262 237 241 c 1,81,82
 213 246 213 246 192 275 c 1,83,84
 172 249 172 249 148 241 c 1,85,86
 135 262 135 262 120 272.5 c 128,-1,87
 105 283 105 283 95 284.5 c 128,-1,88
 85 286 85 286 67 286 c 1,89,-1
 67 262 l 1,90,91
 131 262 131 262 131 179 c 0,92,93
 131 147 131 147 127.5 128 c 128,-1,94
 124 109 124 109 108.5 93 c 128,-1,95
 93 77 93 77 63 77 c 1,96,-1
 46 79 l 1,97,98
 70 27 70 27 119 27 c 0,99,100
 142 27 142 27 159.5 38 c 128,-1,101
 177 49 177 49 199 73 c 1,102,-1
 207 73 l 1,103,104
 234 49 234 49 267.5 39 c 128,-1,105
 301 29 301 29 373 29 c 0,106,107
 615 29 615 29 615 169 c 0,108,109
 615 262 615 262 679 262 c 1,110,-1
 679 286 l 1,111,112
 661 286 661 286 651.5 284.5 c 128,-1,113
 642 283 642 283 627 272.5 c 128,-1,114
 612 262 612 262 599 241 c 1,115,116
 576 246 576 246 555 275 c 1,117,118
 535 249 535 249 508 241 c 1,119,120
 495 262 495 262 480.5 272.5 c 128,-1,121
 466 283 466 283 456.5 284.5 c 128,-1,122
 447 286 447 286 428 286 c 1,123,-1
 428 262 l 1,124,125
 461 262 461 262 475 243 c 128,-1,126
 489 224 489 224 489 205 c 0,70,71
402 312 m 1,127,128
 439 312 439 312 454 310 c 1,129,-1
 454 482 l 1,130,-1
 453 495 l 1,131,132
 441 499 441 499 422 499 c 2,133,-1
 340 499 l 1,134,-1
 340 312 l 1,135,-1
 344 312 l 1,136,-1
 394 252 l 1,137,-1
 394 179 l 1,138,139
 335 177 335 177 335 140 c 2,140,-1
 335 135 l 1,141,142
 351 131 351 131 373 131 c 0,143,144
 446 131 446 131 459 179 c 1,145,-1
 452 179 l 1,146,-1
 402 239 l 1,147,-1
 402 312 l 1,127,128
EndSplineSet
EndChar

StartChar: e
Encoding: 101 101 72
Width: 656
GlyphClass: 2
Flags: W
LayerCount: 2
Fore
SplineSet
618 13 m 2,0,1
 618 -22 618 -22 636 -33 c 1,2,-1
 618 -60 l 1,3,4
 592 -60 592 -60 563.5 -47 c 128,-1,5
 535 -34 535 -34 519 -19 c 1,6,7
 502 -34 502 -34 461.5 -47 c 128,-1,8
 421 -60 421 -60 385 -60 c 0,9,10
 312 -60 312 -60 266 -21 c 1,11,12
 225 -60 225 -60 172.5 -60 c 128,-1,13
 120 -60 120 -60 75.5 -9.5 c 128,-1,14
 31 41 31 41 24 95 c 1,15,-1
 52 113 l 1,16,17
 57 105 57 105 72 105 c 0,18,19
 112 105 112 105 112 179 c 1,20,-1
 102 179 l 1,21,-1
 52 239 l 1,22,-1
 52 312 l 1,23,24
 94 312 94 312 111 309 c 1,25,-1
 111 499 l 1,26,-1
 83 499 l 1,27,-1
 33 559 l 1,28,-1
 33 700 l 1,29,-1
 570 700 l 1,30,-1
 620 640 l 1,31,-1
 620 396 l 1,32,-1
 504 396 l 1,33,-1
 454 456 l 1,34,-1
 454 499 l 1,35,-1
 347 499 l 1,36,-1
 347 441 l 1,37,-1
 418 441 l 1,38,-1
 468 381 l 1,39,-1
 468 265 l 1,40,-1
 393 265 l 1,41,-1
 404 252 l 1,42,-1
 404 179 l 1,43,44
 388 178 388 178 378 176.5 c 128,-1,45
 368 175 368 175 357 166 c 128,-1,46
 346 157 346 157 346 140 c 2,47,-1
 346 136 l 1,48,49
 360 131 360 131 386 131 c 128,-1,50
 412 131 412 131 435 147 c 128,-1,51
 458 163 458 163 458 192 c 0,52,53
 458 197 458 197 452 221 c 1,54,-1
 452 253 l 1,55,-1
 568 253 l 1,56,-1
 618 193 l 1,57,-1
 618 13 l 2,0,1
166 279 m 1,58,59
 176 285 176 285 190 303 c 1,60,-1
 217 303 l 1,61,62
 230 285 230 285 240 279 c 1,63,64
 251 293 251 293 267 301 c 1,65,-1
 267 353 l 1,66,-1
 390 353 l 1,67,-1
 390 413 l 1,68,-1
 267 413 l 1,69,-1
 267 587 l 1,70,-1
 482 587 l 1,71,-1
 482 484 l 1,72,-1
 542 484 l 1,73,-1
 542 672 l 1,74,-1
 61 672 l 1,75,-1
 61 587 l 1,76,-1
 141 587 l 1,77,-1
 141 300 l 1,78,79
 154 293 154 293 166 279 c 1,58,59
485 188 m 0,80,81
 485 148 485 148 454.5 125 c 128,-1,82
 424 102 424 102 380 102 c 128,-1,83
 336 102 336 102 301.5 127.5 c 128,-1,84
 267 153 267 153 267 205 c 0,85,86
 267 223 267 223 281.5 242.5 c 128,-1,87
 296 262 296 262 328 262 c 1,88,-1
 328 286 l 1,89,90
 310 286 310 286 300.5 284.5 c 128,-1,91
 291 283 291 283 276 272.5 c 128,-1,92
 261 262 261 262 249 241 c 1,93,94
 225 246 225 246 203 275 c 1,95,96
 185 249 185 249 158 241 c 1,97,98
 145 262 145 262 130 272.5 c 128,-1,99
 115 283 115 283 105.5 284.5 c 128,-1,100
 96 286 96 286 78 286 c 1,101,-1
 78 262 l 1,102,103
 112 262 112 262 127.5 238.5 c 128,-1,104
 143 215 143 215 143 173 c 128,-1,105
 143 131 143 131 129.5 104 c 128,-1,106
 116 77 116 77 73 77 c 1,107,-1
 59 79 l 1,108,109
 77 28 77 28 122 28 c 128,-1,110
 167 28 167 28 210 73 c 1,111,-1
 219 73 l 1,112,-1
 223 69 l 1,113,114
 271 29 271 29 339.5 29 c 128,-1,115
 408 29 408 29 469 76 c 1,116,117
 478 67 478 67 506 50.5 c 128,-1,118
 534 34 534 34 550 31 c 1,119,120
 541 41 541 41 541 83 c 2,121,-1
 541 223 l 1,122,-1
 480 223 l 1,123,124
 485 206 485 206 485 188 c 0,80,81
EndSplineSet
EndChar

StartChar: f
Encoding: 102 102 73
Width: 636
GlyphClass: 2
Flags: W
LayerCount: 2
Fore
SplineSet
468 265 m 1,0,-1
 394 265 l 1,1,-1
 405 252 l 1,2,-1
 405 179 l 1,3,4
 366 179 366 179 354.5 165 c 128,-1,5
 343 151 343 151 343 120 c 2,6,-1
 343 105 l 1,7,8
 350 105 350 105 355 113 c 1,9,-1
 383 95 l 1,10,-1
 433 35 l 1,11,12
 427 -12 427 -12 399 -36 c 128,-1,13
 371 -60 371 -60 331.5 -60 c 128,-1,14
 292 -60 292 -60 254 -33 c 1,15,16
 216 -60 216 -60 175.5 -60 c 128,-1,17
 135 -60 135 -60 83 -12 c 128,-1,18
 31 36 31 36 25 95 c 1,19,-1
 53 113 l 1,20,21
 57 104 57 104 72 104 c 0,22,23
 115 104 115 104 115 179 c 1,24,-1
 103 179 l 1,25,-1
 53 239 l 1,26,-1
 53 312 l 1,27,28
 94 312 94 312 111 309 c 1,29,-1
 111 499 l 1,30,-1
 83 499 l 1,31,-1
 33 559 l 1,32,-1
 33 700 l 1,33,-1
 570 700 l 1,34,-1
 620 640 l 1,35,-1
 620 396 l 1,36,-1
 504 396 l 1,37,-1
 454 456 l 1,38,-1
 454 499 l 1,39,-1
 347 499 l 1,40,-1
 347 441 l 1,41,-1
 418 441 l 1,42,-1
 468 381 l 1,43,-1
 468 265 l 1,0,-1
167 279 m 1,44,45
 177 285 177 285 191 303 c 1,46,-1
 217 303 l 1,47,48
 230 285 230 285 241 279 c 1,49,50
 251 293 251 293 267 301 c 1,51,-1
 267 353 l 1,52,-1
 390 353 l 1,53,-1
 390 413 l 1,54,-1
 267 413 l 1,55,-1
 267 587 l 1,56,-1
 482 587 l 1,57,-1
 482 484 l 1,58,-1
 542 484 l 1,59,-1
 542 672 l 1,60,-1
 61 672 l 1,61,-1
 61 587 l 1,62,-1
 141 587 l 1,63,-1
 141 301 l 1,64,65
 155 294 155 294 167 279 c 1,44,45
207 61 m 1,66,67
 243 30 243 30 286.5 30 c 128,-1,68
 330 30 330 30 350 80 c 1,69,70
 343 76 343 76 334 76 c 0,71,72
 264 76 264 76 264 179 c 0,73,74
 264 263 264 263 330 263 c 1,75,-1
 330 288 l 1,76,77
 311 288 311 288 301 286.5 c 128,-1,78
 291 285 291 285 276 274 c 128,-1,79
 261 263 261 263 249 241 c 1,80,81
 225 246 225 246 204 276 c 1,82,83
 183 249 183 249 159 241 c 1,84,85
 146 263 146 263 131 274 c 128,-1,86
 116 285 116 285 106 286.5 c 128,-1,87
 96 288 96 288 78 288 c 1,88,-1
 78 263 l 1,89,90
 144 263 144 263 144 179 c 0,91,92
 144 103 144 103 112 84 c 0,93,94
 97 76 97 76 74 76 c 1,95,-1
 58 80 l 1,96,97
 78 30 78 30 121.5 30 c 128,-1,98
 165 30 165 30 201 61 c 1,99,-1
 207 61 l 1,66,67
EndSplineSet
EndChar

StartChar: g
Encoding: 103 103 74
Width: 763
GlyphClass: 2
Flags: W
LayerCount: 2
Fore
SplineSet
481 279 m 1,0,1
 491 287 491 287 504 303 c 1,2,-1
 530 303 l 1,3,4
 542 285 542 285 553 279 c 1,5,6
 571 301 571 301 594.5 306.5 c 128,-1,7
 618 312 618 312 667 312 c 1,8,-1
 717 252 l 1,9,-1
 717 179 l 1,10,11
 679 179 679 179 667 165 c 128,-1,12
 655 151 655 151 655 122 c 2,13,-1
 655 106 l 1,14,15
 662 107 662 107 667 113 c 1,16,-1
 694 95 l 1,17,-1
 744 35 l 1,18,19
 737 -12 737 -12 709 -36 c 128,-1,20
 681 -60 681 -60 637 -60 c 128,-1,21
 593 -60 593 -60 556 -21 c 1,22,23
 532 -39 532 -39 518.5 -47 c 128,-1,24
 505 -55 505 -55 470 -63.5 c 128,-1,25
 435 -72 435 -72 368 -72 c 128,-1,26
 301 -72 301 -72 231.5 -49.5 c 128,-1,27
 162 -27 162 -27 114 29 c 128,-1,28
 66 85 66 85 66 168 c 2,29,-1
 66 179 l 1,30,-1
 54 179 l 1,31,-1
 4 239 l 1,32,-1
 4 312 l 1,33,34
 48 312 48 312 66 309 c 1,35,-1
 66 531 l 2,36,37
 66 648 66 648 188 690 c 0,38,39
 250 712 250 712 324 712 c 128,-1,40
 398 712 398 712 453 698.5 c 128,-1,41
 508 685 508 685 554.5 657.5 c 128,-1,42
 601 630 601 630 628 582 c 128,-1,43
 655 534 655 534 655 471 c 2,44,-1
 655 370 l 1,45,-1
 461 370 l 1,46,-1
 411 430 l 1,47,-1
 411 502 l 1,48,-1
 410 518 l 1,49,50
 401 521 401 521 384 521 c 0,51,52
 310 521 310 521 310 442 c 2,53,-1
 310 308 l 1,54,-1
 357 252 l 1,55,-1
 357 179 l 1,56,57
 340 178 340 178 329.5 176.5 c 128,-1,58
 319 175 319 175 308 166 c 128,-1,59
 297 157 297 157 297 140 c 1,60,-1
 298 125 l 1,61,62
 314 119 314 119 342.5 119 c 128,-1,63
 371 119 371 119 393.5 135 c 128,-1,64
 416 151 416 151 422 179 c 1,65,-1
 415 179 l 1,66,-1
 365 239 l 1,67,-1
 365 312 l 1,68,69
 399 312 399 312 415 311 c 0,70,71
 459 308 459 308 481 279 c 1,0,1
118 279 m 1,72,73
 130 286 130 286 141 303 c 1,74,-1
 168 303 l 1,75,76
 181 285 181 285 191 279 c 1,77,78
 209 300 209 300 232 306 c 1,79,-1
 232 503 l 2,80,81
 232 555 232 555 259 583 c 128,-1,82
 286 611 286 611 335 611 c 128,-1,83
 384 611 384 611 412 583.5 c 128,-1,84
 440 556 440 556 440 503 c 2,85,-1
 440 458 l 1,86,-1
 577 458 l 1,87,-1
 577 529 l 2,88,89
 577 584 577 584 539.5 620 c 128,-1,90
 502 656 502 656 450 669.5 c 128,-1,91
 398 683 398 683 343 683 c 128,-1,92
 288 683 288 683 247.5 675 c 128,-1,93
 207 667 207 667 171.5 650 c 128,-1,94
 136 633 136 633 115 602 c 128,-1,95
 94 571 94 571 94 529 c 2,96,-1
 94 300 l 1,97,98
 108 292 108 292 118 279 c 1,72,73
336 90 m 128,-1,100
 283 90 283 90 251.5 120 c 128,-1,101
 220 150 220 150 220 205 c 0,102,103
 220 224 220 224 234 243 c 128,-1,104
 248 262 248 262 281 262 c 1,105,-1
 281 286 l 1,106,107
 262 286 262 286 252.5 284.5 c 128,-1,108
 243 283 243 283 228.5 272.5 c 128,-1,109
 214 262 214 262 201 241 c 1,110,111
 176 246 176 246 154 275 c 1,112,113
 136 249 136 249 110 241 c 1,114,115
 97 262 97 262 82 272.5 c 128,-1,116
 67 283 67 283 57.5 284.5 c 128,-1,117
 48 286 48 286 30 286 c 1,118,-1
 30 262 l 1,119,120
 94 262 94 262 94 169 c 0,121,122
 94 115 94 115 132 80 c 0,123,124
 199 17 199 17 336 17 c 0,125,126
 384 17 384 17 418.5 26.5 c 128,-1,127
 453 36 453 36 466.5 45 c 128,-1,128
 480 54 480 54 502 73 c 1,129,-1
 510 73 l 1,130,131
 532 49 532 49 549.5 38 c 128,-1,132
 567 27 567 27 590 27 c 0,133,134
 639 27 639 27 663 79 c 1,135,136
 657 77 657 77 646 77 c 0,137,138
 616 77 616 77 600.5 93 c 128,-1,139
 585 109 585 109 581.5 128 c 128,-1,140
 578 147 578 147 578 179 c 0,141,142
 578 262 578 262 642 262 c 1,143,-1
 642 286 l 1,144,145
 624 286 624 286 614 284.5 c 128,-1,146
 604 283 604 283 589 272.5 c 128,-1,147
 574 262 574 262 561 241 c 1,148,149
 539 246 539 246 517 275 c 1,150,151
 499 249 499 249 472 241 c 1,152,153
 459 262 459 262 444 272.5 c 128,-1,154
 429 283 429 283 419 284.5 c 128,-1,155
 409 286 409 286 391 286 c 1,156,-1
 391 262 l 1,157,158
 424 262 424 262 438.5 242.5 c 128,-1,159
 453 223 453 223 453 205 c 0,160,161
 453 150 453 150 421 120 c 128,-1,99
 389 90 389 90 336 90 c 128,-1,100
EndSplineSet
EndChar

StartChar: h
Encoding: 104 104 75
Width: 855
GlyphClass: 2
Flags: W
LayerCount: 2
Fore
SplineSet
54 312 m 1,0,1
 95 312 95 312 112 309 c 1,2,-1
 112 499 l 1,3,-1
 104 499 l 1,4,-1
 54 559 l 1,5,-1
 54 700 l 1,6,-1
 358 700 l 1,7,-1
 408 640 l 1,8,-1
 408 499 l 1,9,-1
 348 499 l 1,10,-1
 348 439 l 1,11,-1
 506 439 l 1,12,-1
 506 499 l 1,13,-1
 498 499 l 1,14,-1
 448 559 l 1,15,-1
 448 700 l 1,16,-1
 752 700 l 1,17,-1
 802 640 l 1,18,-1
 802 499 l 1,19,-1
 742 499 l 1,20,-1
 742 312 l 1,21,-1
 750 312 l 1,22,-1
 800 252 l 1,23,-1
 800 179 l 1,24,25
 761 179 761 179 749.5 165 c 128,-1,26
 738 151 738 151 738 120 c 2,27,-1
 738 105 l 1,28,29
 745 105 745 105 750 113 c 1,30,-1
 778 95 l 1,31,-1
 828 35 l 1,32,33
 822 -12 822 -12 794 -36 c 128,-1,34
 766 -60 766 -60 726.5 -60 c 128,-1,35
 687 -60 687 -60 649 -33 c 1,36,37
 611 -60 611 -60 570.5 -60 c 128,-1,38
 530 -60 530 -60 478 -12 c 128,-1,39
 426 36 426 36 420 95 c 1,40,-1
 448 113 l 1,41,42
 452 104 452 104 467 104 c 0,43,44
 510 104 510 104 510 179 c 1,45,-1
 498 179 l 1,46,-1
 448 239 l 1,47,-1
 448 265 l 1,48,-1
 395 265 l 1,49,-1
 406 252 l 1,50,-1
 406 179 l 1,51,52
 367 179 367 179 355.5 165 c 128,-1,53
 344 151 344 151 344 120 c 2,54,-1
 344 105 l 1,55,56
 351 105 351 105 356 113 c 1,57,-1
 384 95 l 1,58,-1
 434 35 l 1,59,60
 428 -12 428 -12 400 -36 c 128,-1,61
 372 -60 372 -60 332.5 -60 c 128,-1,62
 293 -60 293 -60 255 -33 c 1,63,64
 217 -60 217 -60 176.5 -60 c 128,-1,65
 136 -60 136 -60 84 -12 c 128,-1,66
 32 36 32 36 26 95 c 1,67,-1
 54 113 l 1,68,69
 58 104 58 104 73 104 c 0,70,71
 116 104 116 104 116 179 c 1,72,-1
 104 179 l 1,73,-1
 54 239 l 1,74,-1
 54 312 l 1,0,1
168 279 m 1,75,76
 178 285 178 285 192 303 c 1,77,-1
 218 303 l 1,78,79
 231 285 231 285 242 279 c 1,80,81
 252 293 252 293 268 301 c 1,82,-1
 268 352 l 1,83,-1
 536 352 l 1,84,-1
 536 301 l 1,85,86
 550 294 550 294 562 279 c 1,87,88
 572 285 572 285 586 303 c 1,89,-1
 612 303 l 1,90,91
 625 285 625 285 636 279 c 1,92,93
 646 293 646 293 662 301 c 1,94,-1
 662 587 l 1,95,-1
 724 587 l 1,96,-1
 724 672 l 1,97,-1
 476 672 l 1,98,-1
 476 587 l 1,99,-1
 536 587 l 1,100,-1
 536 412 l 1,101,-1
 268 412 l 1,102,-1
 268 587 l 1,103,-1
 330 587 l 1,104,-1
 330 672 l 1,105,-1
 82 672 l 1,106,-1
 82 587 l 1,107,-1
 142 587 l 1,108,-1
 142 301 l 1,109,110
 156 294 156 294 168 279 c 1,75,76
602 61 m 1,111,112
 638 30 638 30 681.5 30 c 128,-1,113
 725 30 725 30 745 80 c 1,114,115
 738 76 738 76 729 76 c 0,116,117
 659 76 659 76 659 179 c 0,118,119
 659 263 659 263 725 263 c 1,120,-1
 725 288 l 1,121,122
 706 288 706 288 696 286.5 c 128,-1,123
 686 285 686 285 671 274 c 128,-1,124
 656 263 656 263 644 241 c 1,125,126
 620 246 620 246 599 276 c 1,127,128
 578 249 578 249 554 241 c 1,129,130
 541 263 541 263 526 274 c 128,-1,131
 511 285 511 285 501 286.5 c 128,-1,132
 491 288 491 288 473 288 c 1,133,-1
 473 263 l 1,134,135
 539 263 539 263 539 179 c 0,136,137
 539 103 539 103 507 84 c 0,138,139
 492 76 492 76 469 76 c 1,140,-1
 453 80 l 1,141,142
 473 30 473 30 516.5 30 c 128,-1,143
 560 30 560 30 596 61 c 1,144,-1
 602 61 l 1,111,112
208 61 m 1,145,146
 244 30 244 30 287.5 30 c 128,-1,147
 331 30 331 30 351 80 c 1,148,149
 344 76 344 76 335 76 c 0,150,151
 265 76 265 76 265 179 c 0,152,153
 265 263 265 263 331 263 c 1,154,-1
 331 288 l 1,155,156
 312 288 312 288 302 286.5 c 128,-1,157
 292 285 292 285 277 274 c 128,-1,158
 262 263 262 263 250 241 c 1,159,160
 226 246 226 246 205 276 c 1,161,162
 184 249 184 249 160 241 c 1,163,164
 147 263 147 263 132 274 c 128,-1,165
 117 285 117 285 107 286.5 c 128,-1,166
 97 288 97 288 79 288 c 1,167,-1
 79 263 l 1,168,169
 145 263 145 263 145 179 c 0,170,171
 145 103 145 103 113 84 c 0,172,173
 98 76 98 76 75 76 c 1,174,-1
 59 80 l 1,175,176
 79 30 79 30 122.5 30 c 128,-1,177
 166 30 166 30 202 61 c 1,178,-1
 208 61 l 1,145,146
EndSplineSet
EndChar

StartChar: i
Encoding: 105 105 76
Width: 463
GlyphClass: 2
Flags: W
LayerCount: 2
Fore
SplineSet
410 499 m 1,0,-1
 350 499 l 1,1,-1
 350 312 l 1,2,-1
 358 312 l 1,3,-1
 408 252 l 1,4,-1
 408 179 l 1,5,6
 369 179 369 179 357.5 165 c 128,-1,7
 346 151 346 151 346 120 c 2,8,-1
 346 105 l 1,9,10
 353 105 353 105 358 113 c 1,11,-1
 386 95 l 1,12,-1
 436 35 l 1,13,14
 430 -12 430 -12 402 -36 c 128,-1,15
 374 -60 374 -60 334.5 -60 c 128,-1,16
 295 -60 295 -60 257 -33 c 1,17,18
 219 -60 219 -60 178.5 -60 c 128,-1,19
 138 -60 138 -60 86 -12 c 128,-1,20
 34 36 34 36 28 95 c 1,21,-1
 56 113 l 1,22,23
 60 104 60 104 75 104 c 0,24,25
 118 104 118 104 118 179 c 1,26,-1
 106 179 l 1,27,-1
 56 239 l 1,28,-1
 56 312 l 1,29,30
 97 312 97 312 114 309 c 1,31,-1
 114 499 l 1,32,-1
 106 499 l 1,33,-1
 56 559 l 1,34,-1
 56 700 l 1,35,-1
 360 700 l 1,36,-1
 410 640 l 1,37,-1
 410 499 l 1,0,-1
170 279 m 1,38,39
 180 285 180 285 194 303 c 1,40,-1
 220 303 l 1,41,42
 233 285 233 285 244 279 c 1,43,44
 254 293 254 293 270 301 c 1,45,-1
 270 587 l 1,46,-1
 332 587 l 1,47,-1
 332 672 l 1,48,-1
 84 672 l 1,49,-1
 84 587 l 1,50,-1
 144 587 l 1,51,-1
 144 301 l 1,52,53
 158 294 158 294 170 279 c 1,38,39
210 61 m 1,54,55
 246 30 246 30 289.5 30 c 128,-1,56
 333 30 333 30 353 80 c 1,57,58
 346 76 346 76 337 76 c 0,59,60
 267 76 267 76 267 179 c 0,61,62
 267 263 267 263 333 263 c 1,63,-1
 333 288 l 1,64,65
 314 288 314 288 304 286.5 c 128,-1,66
 294 285 294 285 279 274 c 128,-1,67
 264 263 264 263 252 241 c 1,68,69
 228 246 228 246 207 276 c 1,70,71
 186 249 186 249 162 241 c 1,72,73
 149 263 149 263 134 274 c 128,-1,74
 119 285 119 285 109 286.5 c 128,-1,75
 99 288 99 288 81 288 c 1,76,-1
 81 263 l 1,77,78
 147 263 147 263 147 179 c 0,79,80
 147 103 147 103 115 84 c 0,81,82
 100 76 100 76 77 76 c 1,83,-1
 61 80 l 1,84,85
 81 30 81 30 124.5 30 c 128,-1,86
 168 30 168 30 204 61 c 1,87,-1
 210 61 l 1,54,55
EndSplineSet
EndChar

StartChar: j
Encoding: 106 106 77
Width: 655
GlyphClass: 2
Flags: W
LayerCount: 2
Fore
SplineSet
335 499 m 1,0,-1
 327 499 l 1,1,-1
 277 559 l 1,2,-1
 277 700 l 1,3,-1
 581 700 l 1,4,-1
 631 640 l 1,5,-1
 631 499 l 1,6,-1
 571 499 l 1,7,-1
 571 312 l 1,8,-1
 581 312 l 1,9,-1
 631 252 l 1,10,-1
 631 179 l 1,11,12
 593 179 593 179 581.5 164.5 c 128,-1,13
 570 150 570 150 570 121 c 2,14,-1
 570 106 l 2,15,16
 570 55 570 55 547.5 18 c 128,-1,17
 525 -19 525 -19 486 -38 c 0,18,19
 412 -72 412 -72 325.5 -72 c 128,-1,20
 239 -72 239 -72 168.5 -43.5 c 128,-1,21
 98 -15 98 -15 49 41 c 128,-1,22
 0 97 0 97 0 166 c 2,23,-1
 0 220 l 1,24,-1
 110 220 l 1,25,26
 124 193 124 193 134 187 c 1,27,28
 154 216 154 216 198 219 c 0,29,30
 213 220 213 220 246 220 c 1,31,-1
 296 160 l 1,32,-1
 296 108 l 1,33,34
 319 117 319 117 331 138 c 1,35,-1
 299 177 l 1,36,-1
 299 246 l 1,37,38
 314 247 314 247 335 251 c 1,39,-1
 335 499 l 1,0,-1
490 181 m 2,40,41
 490 262 490 262 556 262 c 1,42,-1
 556 286 l 1,43,44
 513 286 513 286 493 263 c 0,45,46
 485 253 485 253 478 241 c 1,47,48
 454 247 454 247 432 271 c 1,49,50
 421 256 421 256 391.5 241.5 c 128,-1,51
 362 227 362 227 330 224 c 1,52,-1
 330 203 l 1,53,-1
 366 203 l 1,54,-1
 366 174 l 2,55,56
 366 124 366 124 334.5 98.5 c 128,-1,57
 303 73 303 73 268 73 c 128,-1,58
 233 73 233 73 209.5 88.5 c 128,-1,59
 186 104 186 104 186 135 c 0,60,61
 186 151 186 151 196.5 160.5 c 128,-1,62
 207 170 207 170 221 170 c 1,63,-1
 221 194 l 1,64,65
 203 194 203 194 193 192.5 c 128,-1,66
 183 191 183 191 167.5 180.5 c 128,-1,67
 152 170 152 170 140 149 c 1,68,69
 114 156 114 156 97 191 c 1,70,-1
 28 191 l 1,71,-1
 28 167 l 2,72,73
 28 113 28 113 63.5 78 c 128,-1,74
 99 43 99 43 149 30 c 128,-1,75
 199 17 199 17 262 17 c 0,76,77
 359 17 359 17 424.5 52.5 c 128,-1,78
 490 88 490 88 490 167 c 2,79,-1
 490 181 l 2,40,41
365 587 m 1,80,-1
 365 261 l 1,81,82
 403 276 403 276 428 303 c 1,83,-1
 445 303 l 1,84,85
 459 285 459 285 469 279 c 1,86,-1
 478 289 l 1,87,88
 484 294 484 294 491 299 c 1,89,-1
 491 587 l 1,90,-1
 553 587 l 1,91,-1
 553 672 l 1,92,-1
 305 672 l 1,93,-1
 305 587 l 1,94,-1
 365 587 l 1,80,-1
EndSplineSet
EndChar

StartChar: k
Encoding: 107 107 78
Width: 730
GlyphClass: 2
Flags: W
LayerCount: 2
Fore
SplineSet
411 179 m 1,0,-1
 399 179 l 2,1,2
 360 179 360 179 349.5 165 c 128,-1,3
 339 151 339 151 339 120 c 2,4,-1
 339 105 l 1,5,6
 345 108 345 108 349 113 c 1,7,-1
 427 35 l 1,8,9
 421 -12 421 -12 393 -36 c 128,-1,10
 365 -60 365 -60 327 -60 c 128,-1,11
 289 -60 289 -60 249 -33 c 1,12,13
 209 -60 209 -60 171 -60 c 0,14,15
 117 -60 117 -60 72 -9.5 c 128,-1,16
 27 41 27 41 20 95 c 1,17,-1
 48 113 l 1,18,19
 53 104 53 104 70 104 c 128,-1,20
 87 104 87 104 96.5 117.5 c 128,-1,21
 106 131 106 131 107.5 144 c 128,-1,22
 109 157 109 157 109 179 c 1,23,-1
 98 179 l 1,24,-1
 48 239 l 1,25,-1
 48 312 l 1,26,27
 89 312 89 312 106 309 c 1,28,-1
 106 499 l 1,29,-1
 98 499 l 1,30,-1
 48 559 l 1,31,-1
 48 700 l 1,32,-1
 332 700 l 1,33,-1
 382 640 l 1,34,-1
 382 518 l 1,35,-1
 407 547 l 1,36,-1
 391 559 l 1,37,-1
 391 700 l 1,38,-1
 651 700 l 1,39,-1
 701 640 l 1,40,-1
 701 499 l 1,41,-1
 649 499 l 1,42,-1
 499 324 l 1,43,-1
 522 299 l 1,44,45
 577 286 577 286 607 234.5 c 128,-1,46
 637 183 637 183 637 119 c 2,47,-1
 637 105 l 1,48,49
 644 108 644 108 648 113 c 1,50,-1
 675 95 l 1,51,-1
 725 35 l 1,52,53
 720 -15 720 -15 688 -37.5 c 128,-1,54
 656 -60 656 -60 588 -60 c 128,-1,55
 520 -60 520 -60 465.5 -1.5 c 128,-1,56
 411 57 411 57 411 148 c 2,57,-1
 411 179 l 1,0,-1
162 279 m 1,58,59
 172 285 172 285 186 303 c 1,60,-1
 212 303 l 1,61,62
 225 285 225 285 237 279 c 1,63,64
 259 308 259 308 300 311 c 0,65,66
 315 312 315 312 349.5 312 c 128,-1,67
 384 312 384 312 400 311 c 0,68,69
 443 308 443 308 465 279 c 1,70,71
 474 283 474 283 486 298 c 1,72,-1
 408 379 l 1,73,-1
 585 587 l 1,74,-1
 623 587 l 1,75,-1
 623 672 l 1,76,-1
 418 672 l 1,77,-1
 418 587 l 1,78,-1
 477 587 l 1,79,-1
 299 381 l 1,80,-1
 262 381 l 1,81,-1
 262 587 l 1,82,-1
 304 587 l 1,83,-1
 304 672 l 1,84,-1
 76 672 l 1,85,-1
 76 587 l 1,86,-1
 136 587 l 1,87,-1
 136 301 l 1,88,89
 151 293 151 293 162 279 c 1,58,59
324 288 m 2,90,91
 306 288 306 288 296.5 286.5 c 128,-1,92
 287 285 287 285 272 274 c 128,-1,93
 257 263 257 263 245 241 c 1,94,95
 220 246 220 246 199 276 c 1,96,97
 178 249 178 249 153 241 c 1,98,99
 141 263 141 263 126 274 c 128,-1,100
 111 285 111 285 101.5 286.5 c 128,-1,101
 92 288 92 288 75 288 c 1,102,-1
 75 263 l 1,103,104
 139 263 139 263 139 179 c 0,105,106
 139 148 139 148 135.5 128.5 c 128,-1,107
 132 109 132 109 116 92.5 c 128,-1,108
 100 76 100 76 70 76 c 1,109,-1
 55 80 l 1,110,111
 75 30 75 30 118 30 c 128,-1,112
 161 30 161 30 196 61 c 1,113,-1
 202 61 l 1,114,115
 237 30 237 30 279.5 30 c 128,-1,116
 322 30 322 30 344 80 c 1,117,118
 339 76 339 76 322 76 c 128,-1,119
 305 76 305 76 290.5 84.5 c 128,-1,120
 276 93 276 93 270 109 c 0,121,122
 260 136 260 136 260 179 c 0,123,124
 260 263 260 263 324 263 c 2,125,-1
 376 263 l 2,126,127
 441 263 441 263 441 179 c 2,128,-1
 441 153 l 2,129,130
 441 30 441 30 545 30 c 0,131,132
 598 30 598 30 619 48 c 0,133,134
 639 64 639 64 642 80 c 1,135,136
 636 76 636 76 627 76 c 0,137,138
 586 76 586 76 573 104 c 128,-1,139
 560 132 560 132 560 183 c 0,140,141
 560 257 560 257 501 276 c 1,142,143
 482 249 482 249 457 241 c 1,144,145
 444 263 444 263 429 274 c 128,-1,146
 414 285 414 285 404 286.5 c 128,-1,147
 394 288 394 288 376 288 c 2,148,-1
 324 288 l 2,90,91
EndSplineSet
EndChar

StartChar: l
Encoding: 108 108 79
Width: 634
GlyphClass: 2
Flags: W
LayerCount: 2
Fore
SplineSet
404 499 m 1,0,-1
 344 499 l 1,1,-1
 344 312 l 1,2,-1
 351 312 l 1,3,-1
 401 252 l 1,4,-1
 401 179 l 1,5,6
 385 178 385 178 375 176.5 c 128,-1,7
 365 175 365 175 354 166 c 128,-1,8
 343 157 343 157 343 140 c 2,9,-1
 343 136 l 1,10,11
 357 131 357 131 383 131 c 128,-1,12
 409 131 409 131 432 147 c 128,-1,13
 455 163 455 163 455 192 c 0,14,15
 455 197 455 197 449 221 c 1,16,-1
 449 253 l 1,17,-1
 565 253 l 1,18,-1
 615 193 l 1,19,-1
 615 13 l 2,20,21
 615 -22 615 -22 633 -33 c 1,22,-1
 615 -60 l 1,23,24
 589 -60 589 -60 560.5 -47 c 128,-1,25
 532 -34 532 -34 516 -19 c 1,26,27
 499 -34 499 -34 458.5 -47 c 128,-1,28
 418 -60 418 -60 382 -60 c 0,29,30
 309 -60 309 -60 263 -21 c 1,31,32
 222 -60 222 -60 169.5 -60 c 128,-1,33
 117 -60 117 -60 72.5 -9.5 c 128,-1,34
 28 41 28 41 21 95 c 1,35,-1
 49 113 l 1,36,37
 54 105 54 105 69 105 c 0,38,39
 109 105 109 105 109 179 c 1,40,-1
 99 179 l 1,41,-1
 49 239 l 1,42,-1
 49 312 l 1,43,44
 91 312 91 312 108 309 c 1,45,-1
 108 499 l 1,46,-1
 100 499 l 1,47,-1
 50 559 l 1,48,-1
 50 700 l 1,49,-1
 354 700 l 1,50,-1
 404 640 l 1,51,-1
 404 499 l 1,0,-1
482 188 m 0,52,53
 482 148 482 148 451.5 125 c 128,-1,54
 421 102 421 102 377 102 c 128,-1,55
 333 102 333 102 298.5 127.5 c 128,-1,56
 264 153 264 153 264 205 c 0,57,58
 264 223 264 223 278.5 242.5 c 128,-1,59
 293 262 293 262 325 262 c 1,60,-1
 325 286 l 1,61,62
 307 286 307 286 297.5 284.5 c 128,-1,63
 288 283 288 283 273 272.5 c 128,-1,64
 258 262 258 262 246 241 c 1,65,66
 222 246 222 246 200 275 c 1,67,68
 182 249 182 249 155 241 c 1,69,70
 142 262 142 262 127 272.5 c 128,-1,71
 112 283 112 283 102.5 284.5 c 128,-1,72
 93 286 93 286 75 286 c 1,73,-1
 75 262 l 1,74,75
 109 262 109 262 124.5 238.5 c 128,-1,76
 140 215 140 215 140 173 c 128,-1,77
 140 131 140 131 126.5 104 c 128,-1,78
 113 77 113 77 70 77 c 1,79,-1
 56 79 l 1,80,81
 74 28 74 28 119 28 c 128,-1,82
 164 28 164 28 207 73 c 1,83,-1
 216 73 l 1,84,-1
 220 69 l 1,85,86
 268 29 268 29 336.5 29 c 128,-1,87
 405 29 405 29 466 76 c 1,88,89
 475 67 475 67 503 50.5 c 128,-1,90
 531 34 531 34 547 31 c 1,91,92
 538 41 538 41 538 83 c 2,93,-1
 538 223 l 1,94,-1
 477 223 l 1,95,96
 482 206 482 206 482 188 c 0,52,53
163 279 m 1,97,98
 173 285 173 285 187 303 c 1,99,-1
 214 303 l 1,100,101
 227 285 227 285 237 279 c 1,102,103
 248 293 248 293 264 301 c 1,104,-1
 264 587 l 1,105,-1
 326 587 l 1,106,-1
 326 672 l 1,107,-1
 78 672 l 1,108,-1
 78 587 l 1,109,-1
 138 587 l 1,110,-1
 138 300 l 1,111,112
 151 293 151 293 163 279 c 1,97,98
EndSplineSet
EndChar

StartChar: m
Encoding: 109 109 80
Width: 914
GlyphClass: 2
Flags: W
LayerCount: 2
Fore
SplineSet
337 312 m 1,0,-1
 345 312 l 1,1,-1
 395 252 l 1,2,-1
 395 179 l 1,3,4
 356 179 356 179 344.5 165 c 128,-1,5
 333 151 333 151 333 120 c 2,6,-1
 333 105 l 1,7,8
 340 105 340 105 345 113 c 1,9,-1
 373 95 l 1,10,-1
 423 35 l 1,11,12
 417 -12 417 -12 389 -36 c 128,-1,13
 361 -60 361 -60 321.5 -60 c 128,-1,14
 282 -60 282 -60 244 -33 c 1,15,16
 206 -60 206 -60 165.5 -60 c 128,-1,17
 125 -60 125 -60 73 -12 c 128,-1,18
 21 36 21 36 15 95 c 1,19,-1
 43 113 l 1,20,21
 47 104 47 104 62 104 c 0,22,23
 105 104 105 104 105 179 c 1,24,-1
 93 179 l 1,25,-1
 43 239 l 1,26,-1
 43 312 l 1,27,28
 84 312 84 312 101 309 c 1,29,-1
 101 499 l 1,30,-1
 93 499 l 1,31,-1
 43 559 l 1,32,-1
 43 700 l 1,33,-1
 282 700 l 1,34,-1
 443 505 l 1,35,-1
 606 700 l 1,36,-1
 824 700 l 1,37,-1
 874 640 l 1,38,-1
 874 499 l 1,39,-1
 814 499 l 1,40,-1
 814 312 l 1,41,-1
 822 312 l 1,42,-1
 872 252 l 1,43,-1
 872 179 l 1,44,45
 833 179 833 179 821.5 165 c 128,-1,46
 810 151 810 151 810 120 c 2,47,-1
 810 105 l 1,48,49
 817 105 817 105 822 113 c 1,50,-1
 850 95 l 1,51,-1
 900 35 l 1,52,53
 894 -12 894 -12 866 -36 c 128,-1,54
 838 -60 838 -60 798.5 -60 c 128,-1,55
 759 -60 759 -60 721 -33 c 1,56,57
 683 -60 683 -60 642.5 -60 c 128,-1,58
 602 -60 602 -60 550 -12 c 128,-1,59
 498 36 498 36 492 95 c 1,60,-1
 520 113 l 1,61,62
 524 104 524 104 539 104 c 0,63,64
 582 104 582 104 582 179 c 1,65,-1
 570 179 l 1,66,-1
 520 239 l 1,67,-1
 520 256 l 1,68,-1
 494 224 l 1,69,-1
 471 224 l 1,70,-1
 421 283 l 1,71,-1
 337 389 l 1,72,-1
 337 312 l 1,0,-1
634 279 m 1,73,74
 644 285 644 285 658 303 c 1,75,-1
 684 303 l 1,76,77
 697 285 697 285 708 279 c 1,78,79
 718 293 718 293 734 301 c 1,80,-1
 734 587 l 1,81,-1
 796 587 l 1,82,-1
 796 672 l 1,83,-1
 620 672 l 1,84,-1
 444 465 l 1,85,-1
 421 465 l 1,86,-1
 246 672 l 1,87,-1
 71 672 l 1,88,-1
 71 587 l 1,89,-1
 131 587 l 1,90,-1
 131 301 l 1,91,92
 145 294 145 294 157 279 c 1,93,94
 167 285 167 285 181 303 c 1,95,-1
 207 303 l 1,96,97
 220 285 220 285 231 279 c 1,98,99
 242 294 242 294 260 302 c 1,100,-1
 260 492 l 1,101,-1
 287 492 l 1,102,-1
 432 311 l 1,103,-1
 578 492 l 1,104,-1
 605 492 l 1,105,-1
 605 302 l 1,106,107
 621 295 621 295 634 279 c 1,73,74
197 61 m 1,108,109
 233 30 233 30 276.5 30 c 128,-1,110
 320 30 320 30 340 80 c 1,111,112
 333 76 333 76 324 76 c 0,113,114
 254 76 254 76 254 179 c 0,115,116
 254 263 254 263 320 263 c 1,117,-1
 320 288 l 1,118,119
 301 288 301 288 291 286.5 c 128,-1,120
 281 285 281 285 266 274 c 128,-1,121
 251 263 251 263 239 241 c 1,122,123
 215 246 215 246 194 276 c 1,124,125
 173 249 173 249 149 241 c 1,126,127
 136 263 136 263 121 274 c 128,-1,128
 106 285 106 285 96 286.5 c 128,-1,129
 86 288 86 288 68 288 c 1,130,-1
 68 263 l 1,131,132
 134 263 134 263 134 179 c 0,133,134
 134 103 134 103 102 84 c 0,135,136
 87 76 87 76 64 76 c 1,137,-1
 48 80 l 1,138,139
 68 30 68 30 111.5 30 c 128,-1,140
 155 30 155 30 191 61 c 1,141,-1
 197 61 l 1,108,109
674 61 m 1,142,143
 710 30 710 30 753.5 30 c 128,-1,144
 797 30 797 30 817 80 c 1,145,146
 810 76 810 76 801 76 c 0,147,148
 731 76 731 76 731 179 c 0,149,150
 731 263 731 263 797 263 c 1,151,-1
 797 288 l 1,152,153
 778 288 778 288 768 286.5 c 128,-1,154
 758 285 758 285 743 274 c 128,-1,155
 728 263 728 263 716 241 c 1,156,157
 692 246 692 246 671 276 c 1,158,159
 650 249 650 249 626 241 c 1,160,161
 599 287 599 287 554 287 c 2,162,-1
 545 287 l 1,163,-1
 545 263 l 1,164,165
 611 263 611 263 611 179 c 0,166,167
 611 103 611 103 579 84 c 0,168,169
 564 76 564 76 541 76 c 1,170,-1
 525 80 l 1,171,172
 545 30 545 30 588.5 30 c 128,-1,173
 632 30 632 30 668 61 c 1,174,-1
 674 61 l 1,142,143
EndSplineSet
EndChar

StartChar: n
Encoding: 110 110 81
Width: 834
GlyphClass: 2
Flags: W
LayerCount: 2
Fore
SplineSet
624 -30 m 1,0,1
 611 -36 611 -36 607 -60 c 1,2,3
 561 -60 561 -60 505 -12 c 0,4,5
 478 11 478 11 459.5 53.5 c 128,-1,6
 441 96 441 96 441 148 c 2,7,-1
 441 179 l 1,8,-1
 429 179 l 1,9,-1
 395 220 l 1,10,-1
 395 179 l 1,11,12
 356 179 356 179 344.5 165 c 128,-1,13
 333 151 333 151 333 120 c 2,14,-1
 333 105 l 1,15,16
 340 105 340 105 345 113 c 1,17,-1
 373 95 l 1,18,-1
 423 35 l 1,19,20
 417 -12 417 -12 389 -36 c 128,-1,21
 361 -60 361 -60 321.5 -60 c 128,-1,22
 282 -60 282 -60 244 -33 c 1,23,24
 206 -60 206 -60 165.5 -60 c 128,-1,25
 125 -60 125 -60 73 -12 c 128,-1,26
 21 36 21 36 15 95 c 1,27,-1
 43 113 l 1,28,29
 47 104 47 104 62 104 c 0,30,31
 105 104 105 104 105 179 c 1,32,-1
 93 179 l 1,33,-1
 43 239 l 1,34,-1
 43 312 l 1,35,36
 83 312 83 312 99 310 c 1,37,-1
 99 499 l 1,38,-1
 91 499 l 1,39,-1
 41 559 l 1,40,-1
 41 700 l 1,41,-1
 275 700 l 1,42,-1
 499 433 l 1,43,-1
 499 499 l 1,44,-1
 488 499 l 1,45,-1
 438 559 l 1,46,-1
 438 700 l 1,47,-1
 742 700 l 1,48,-1
 792 640 l 1,49,-1
 792 499 l 1,50,-1
 732 499 l 1,51,-1
 732 312 l 1,52,-1
 741 312 l 1,53,-1
 791 252 l 1,54,-1
 791 179 l 1,55,56
 752 179 752 179 741 165 c 128,-1,57
 730 151 730 151 730 120 c 2,58,-1
 730 105 l 1,59,60
 737 107 737 107 741 113 c 1,61,-1
 819 35 l 1,62,63
 813 -12 813 -12 784.5 -36 c 128,-1,64
 756 -60 756 -60 726 -60 c 128,-1,65
 696 -60 696 -60 668 -51.5 c 128,-1,66
 640 -43 640 -43 624 -30 c 1,0,1
157 279 m 1,67,68
 167 285 167 285 181 303 c 1,69,-1
 207 303 l 1,70,71
 220 285 220 285 231 279 c 1,72,73
 242 293 242 293 258 301 c 1,74,-1
 258 492 l 1,75,-1
 286 492 l 1,76,-1
 432 310 l 1,77,78
 473 305 473 305 494 279 c 1,79,80
 504 285 504 285 518 303 c 1,81,-1
 601 303 l 1,82,83
 614 285 614 285 626 279 c 1,84,85
 639 293 639 293 652 300 c 1,86,-1
 652 587 l 1,87,-1
 714 587 l 1,88,-1
 714 672 l 1,89,-1
 466 672 l 1,90,-1
 466 587 l 1,91,-1
 526 587 l 1,92,-1
 526 377 l 1,93,-1
 492 377 l 1,94,-1
 244 672 l 1,95,-1
 69 672 l 1,96,-1
 69 587 l 1,97,-1
 129 587 l 1,98,-1
 129 302 l 1,99,100
 145 294 145 294 157 279 c 1,67,68
667 30 m 0,101,102
 716 30 716 30 735 80 c 1,103,104
 729 76 729 76 720 76 c 0,105,106
 690 76 690 76 673.5 92.5 c 128,-1,107
 657 109 657 109 653.5 128.5 c 128,-1,108
 650 148 650 148 650 179 c 0,109,110
 650 263 650 263 715 263 c 1,111,-1
 715 288 l 1,112,113
 697 288 697 288 687.5 286.5 c 128,-1,114
 678 285 678 285 662.5 274 c 128,-1,115
 647 263 647 263 634 241 c 1,116,117
 610 246 610 246 589 276 c 1,118,-1
 530 276 l 1,119,120
 509 248 509 248 485 241 c 1,121,122
 472 263 472 263 457 274 c 128,-1,123
 442 285 442 285 432.5 286.5 c 128,-1,124
 423 288 423 288 405 288 c 1,125,-1
 405 263 l 1,126,127
 469 263 469 263 469 179 c 2,128,-1
 469 153 l 2,129,130
 469 75 469 75 520 42 c 0,131,132
 530 36 530 36 538 34 c 1,133,134
 546 62 546 62 571 62 c 1,135,136
 588 48 588 48 618 39 c 128,-1,137
 648 30 648 30 667 30 c 0,101,102
197 61 m 1,138,139
 233 30 233 30 276.5 30 c 128,-1,140
 320 30 320 30 340 80 c 1,141,142
 333 76 333 76 324 76 c 0,143,144
 254 76 254 76 254 179 c 0,145,146
 254 263 254 263 320 263 c 1,147,-1
 320 288 l 1,148,149
 301 288 301 288 291 286.5 c 128,-1,150
 281 285 281 285 266 274 c 128,-1,151
 251 263 251 263 239 241 c 1,152,153
 215 246 215 246 194 276 c 1,154,155
 173 249 173 249 149 241 c 1,156,157
 136 263 136 263 121 274 c 128,-1,158
 106 285 106 285 96 286.5 c 128,-1,159
 86 288 86 288 68 288 c 1,160,-1
 68 263 l 1,161,162
 134 263 134 263 134 179 c 0,163,164
 134 103 134 103 102 84 c 0,165,166
 87 76 87 76 64 76 c 1,167,-1
 48 80 l 1,168,169
 68 30 68 30 111.5 30 c 128,-1,170
 155 30 155 30 191 61 c 1,171,-1
 197 61 l 1,138,139
335 312 m 1,172,-1
 345 312 l 1,173,-1
 379 271 l 1,174,-1
 379 312 l 1,175,-1
 393 312 l 1,176,-1
 335 385 l 1,177,-1
 335 312 l 1,172,-1
EndSplineSet
EndChar

StartChar: o
Encoding: 111 111 82
Width: 745
GlyphClass: 2
Flags: W
LayerCount: 2
Fore
SplineSet
399 -72 m 0,0,1
 255 -72 255 -72 163 -3.5 c 128,-1,2
 71 65 71 65 71 168 c 2,3,-1
 71 179 l 1,4,-1
 61 179 l 1,5,-1
 11 239 l 1,6,-1
 11 312 l 1,7,8
 55 312 55 312 72 309 c 1,9,-1
 72 531 l 2,10,11
 72 583 72 583 97.5 620.5 c 128,-1,12
 123 658 123 658 166 677 c 0,13,14
 245 712 245 712 349 712 c 0,15,16
 495 712 495 712 585.5 645.5 c 128,-1,17
 676 579 676 579 676 471 c 2,18,-1
 676 312 l 1,19,-1
 687 312 l 1,20,-1
 737 252 l 1,21,-1
 737 179 l 1,22,23
 699 179 699 179 688 165 c 128,-1,24
 677 151 677 151 677 121 c 2,25,-1
 677 108 l 2,26,27
 677 56 677 56 651.5 19 c 128,-1,28
 626 -18 626 -18 582 -37 c 0,29,30
 502 -72 502 -72 399 -72 c 0,0,1
124 279 m 1,31,32
 136 286 136 286 149 303 c 1,33,-1
 174 303 l 1,34,35
 187 285 187 285 198 279 c 1,36,37
 216 300 216 300 239 306 c 1,38,-1
 239 503 l 2,39,40
 239 554 239 554 270 582.5 c 128,-1,41
 301 611 301 611 350 611 c 128,-1,42
 399 611 399 611 429 583 c 128,-1,43
 459 555 459 555 459 503 c 2,44,-1
 459 306 l 1,45,46
 482 300 482 300 500 279 c 1,47,48
 510 285 510 285 524 303 c 1,49,-1
 549 303 l 1,50,51
 562 285 562 285 574 279 c 1,52,53
 584 292 584 292 597 299 c 1,54,-1
 597 529 l 2,55,56
 597 571 597 571 575 602 c 128,-1,57
 553 633 553 633 516 650 c 128,-1,58
 479 667 479 667 437 675 c 128,-1,59
 395 683 395 683 349 683 c 128,-1,60
 303 683 303 683 261.5 675 c 128,-1,61
 220 667 220 667 182.5 650 c 128,-1,62
 145 633 145 633 123 602 c 128,-1,63
 101 571 101 571 101 529 c 2,64,-1
 101 299 l 1,65,66
 115 290 115 290 124 279 c 1,31,32
349 18 m 128,-1,68
 412 18 412 18 465 31 c 128,-1,69
 518 44 518 44 557.5 79.5 c 128,-1,70
 597 115 597 115 597 169 c 2,71,-1
 597 179 l 2,72,73
 597 262 597 262 662 262 c 1,74,-1
 662 286 l 1,75,76
 644 286 644 286 634.5 284.5 c 128,-1,77
 625 283 625 283 609.5 272.5 c 128,-1,78
 594 262 594 262 581 241 c 1,79,80
 559 246 559 246 537 275 c 1,81,82
 519 249 519 249 491 241 c 1,83,84
 479 262 479 262 464 272.5 c 128,-1,85
 449 283 449 283 439 284.5 c 128,-1,86
 429 286 429 286 411 286 c 1,87,-1
 411 262 l 1,88,89
 444 262 444 262 458 243 c 128,-1,90
 472 224 472 224 472 205 c 0,91,92
 472 151 472 151 437 120.5 c 128,-1,93
 402 90 402 90 349 90 c 128,-1,94
 296 90 296 90 261 120.5 c 128,-1,95
 226 151 226 151 226 205 c 0,96,97
 226 224 226 224 240 243 c 128,-1,98
 254 262 254 262 287 262 c 1,99,-1
 287 286 l 1,100,101
 269 286 269 286 259 284.5 c 128,-1,102
 249 283 249 283 234 272.5 c 128,-1,103
 219 262 219 262 207 241 c 1,104,105
 181 246 181 246 161 275 c 1,106,107
 141 249 141 249 117 241 c 1,108,109
 104 262 104 262 88.5 272.5 c 128,-1,110
 73 283 73 283 63.5 284.5 c 128,-1,111
 54 286 54 286 36 286 c 1,112,-1
 36 262 l 1,113,114
 101 262 101 262 101 179 c 2,115,-1
 101 169 l 2,116,117
 101 115 101 115 140.5 79.5 c 128,-1,118
 180 44 180 44 233 31 c 128,-1,67
 286 18 286 18 349 18 c 128,-1,68
318 442 m 2,119,-1
 318 307 l 1,120,-1
 364 252 l 1,121,-1
 364 179 l 1,122,123
 347 178 347 178 337 176.5 c 128,-1,124
 327 175 327 175 315.5 166 c 128,-1,125
 304 157 304 157 304 140 c 0,126,127
 304 119 304 119 344 119 c 128,-1,128
 384 119 384 119 408.5 135.5 c 128,-1,129
 433 152 433 152 441 179 c 1,130,-1
 434 179 l 1,131,-1
 384 239 l 1,132,-1
 384 312 l 1,133,134
 416 312 416 312 430 311 c 1,135,-1
 430 502 l 2,136,137
 430 510 430 510 419 515.5 c 128,-1,138
 408 521 408 521 399 521 c 0,139,140
 362 521 362 521 340 500.5 c 128,-1,141
 318 480 318 480 318 442 c 2,119,-1
EndSplineSet
EndChar

StartChar: p
Encoding: 112 112 83
Width: 690
GlyphClass: 2
Flags: W
LayerCount: 2
Fore
SplineSet
690 425 m 128,-1,1
 690 308 690 308 628.5 250.5 c 128,-1,2
 567 193 567 193 460 193 c 2,3,-1
 410 193 l 1,4,-1
 410 179 l 1,5,6
 371 179 371 179 359.5 165 c 128,-1,7
 348 151 348 151 348 120 c 2,8,-1
 348 105 l 1,9,10
 355 105 355 105 360 113 c 1,11,-1
 388 95 l 1,12,-1
 438 35 l 1,13,14
 432 -12 432 -12 404 -36 c 128,-1,15
 376 -60 376 -60 336.5 -60 c 128,-1,16
 297 -60 297 -60 259 -33 c 1,17,18
 221 -60 221 -60 180.5 -60 c 128,-1,19
 140 -60 140 -60 88 -12 c 128,-1,20
 36 36 36 36 30 95 c 1,21,-1
 58 113 l 1,22,23
 62 104 62 104 77 104 c 0,24,25
 120 104 120 104 120 179 c 1,26,-1
 108 179 l 1,27,-1
 58 239 l 1,28,-1
 58 312 l 1,29,30
 99 312 99 312 116 309 c 1,31,-1
 116 499 l 1,32,-1
 88 499 l 1,33,-1
 38 559 l 1,34,-1
 38 700 l 1,35,-1
 397 700 l 2,36,37
 534 700 534 700 612 621 c 128,-1,0
 690 542 690 542 690 425 c 128,-1,1
172 279 m 1,38,39
 182 285 182 285 196 303 c 1,40,-1
 222 303 l 1,41,42
 235 285 235 285 246 279 c 1,43,44
 263 302 263 302 286.5 307 c 128,-1,45
 310 312 310 312 360 312 c 1,46,-1
 386 281 l 1,47,-1
 401 281 l 2,48,49
 610 281 610 281 610 485 c 0,50,51
 610 547 610 547 576 601 c 0,52,53
 555 633 555 633 507.5 652.5 c 128,-1,54
 460 672 460 672 390 672 c 2,55,-1
 66 672 l 1,56,-1
 66 587 l 1,57,-1
 146 587 l 1,58,-1
 146 301 l 1,59,60
 160 294 160 294 172 279 c 1,38,39
274 587 m 1,61,-1
 337 587 l 2,62,63
 480 587 480 587 480 476 c 0,64,65
 480 417 480 417 445.5 379 c 128,-1,66
 411 341 411 341 338 341 c 2,67,-1
 274 341 l 1,68,-1
 274 587 l 1,61,-1
212 61 m 1,69,70
 248 30 248 30 291.5 30 c 128,-1,71
 335 30 335 30 355 80 c 1,72,73
 348 76 348 76 339 76 c 0,74,75
 269 76 269 76 269 179 c 0,76,77
 269 263 269 263 335 263 c 1,78,-1
 335 288 l 1,79,80
 316 288 316 288 306 286.5 c 128,-1,81
 296 285 296 285 281 274 c 128,-1,82
 266 263 266 263 254 241 c 1,83,84
 230 246 230 246 209 276 c 1,85,86
 188 249 188 249 164 241 c 1,87,88
 151 263 151 263 136 274 c 128,-1,89
 121 285 121 285 111 286.5 c 128,-1,90
 101 288 101 288 83 288 c 1,91,-1
 83 263 l 1,92,93
 149 263 149 263 149 179 c 0,94,95
 149 103 149 103 117 84 c 0,96,97
 102 76 102 76 79 76 c 1,98,-1
 63 80 l 1,99,100
 83 30 83 30 126.5 30 c 128,-1,101
 170 30 170 30 206 61 c 1,102,-1
 212 61 l 1,69,70
384 500 m 2,103,-1
 352 500 l 1,104,-1
 352 370 l 1,105,106
 452 378 452 378 452 476 c 1,107,-1
 451 491 l 1,108,109
 432 500 432 500 384 500 c 2,103,-1
EndSplineSet
EndChar

StartChar: q
Encoding: 113 113 84
Width: 774
GlyphClass: 2
Flags: W
LayerCount: 2
Fore
SplineSet
658 471 m 2,0,-1
 658 312 l 1,1,-1
 669 312 l 1,2,-1
 719 252 l 1,3,-1
 719 179 l 1,4,5
 681 179 681 179 669 165 c 128,-1,6
 657 151 657 151 657 122 c 2,7,-1
 657 106 l 1,8,9
 664 107 664 107 669 113 c 1,10,-1
 696 95 l 1,11,-1
 746 35 l 1,12,13
 739 -12 739 -12 711 -36 c 128,-1,14
 683 -60 683 -60 639 -60 c 128,-1,15
 595 -60 595 -60 558 -21 c 1,16,17
 534 -39 534 -39 520.5 -47 c 128,-1,18
 507 -55 507 -55 472 -63.5 c 128,-1,19
 437 -72 437 -72 370 -72 c 128,-1,20
 303 -72 303 -72 233.5 -49.5 c 128,-1,21
 164 -27 164 -27 116 29 c 128,-1,22
 68 85 68 85 68 168 c 2,23,-1
 68 179 l 1,24,-1
 56 179 l 1,25,-1
 6 239 l 1,26,-1
 6 312 l 1,27,28
 51 312 51 312 69 309 c 1,29,-1
 69 531 l 2,30,31
 69 583 69 583 93.5 620 c 128,-1,32
 118 657 118 657 160 676 c 0,33,34
 238 712 238 712 338 712 c 0,35,36
 457 712 457 712 550 662 c 0,37,38
 599 635 599 635 628.5 586 c 128,-1,39
 658 537 658 537 658 471 c 2,0,-1
483 279 m 1,40,41
 493 287 493 287 506 303 c 1,42,-1
 532 303 l 1,43,44
 539 290 539 290 555 279 c 1,45,46
 565 292 565 292 580 300 c 1,47,-1
 580 530 l 2,48,49
 580 584 580 584 542 620 c 128,-1,50
 504 656 504 656 452.5 669 c 128,-1,51
 401 682 401 682 338.5 682 c 128,-1,52
 276 682 276 682 224.5 669 c 128,-1,53
 173 656 173 656 135 620 c 128,-1,54
 97 584 97 584 97 530 c 2,55,-1
 97 299 l 1,56,57
 111 290 111 290 120 279 c 1,58,59
 130 284 130 284 143 303 c 1,60,-1
 170 303 l 1,61,62
 183 285 183 285 193 279 c 1,63,64
 212 302 212 302 237 308 c 1,65,-1
 237 491 l 2,66,67
 237 544 237 544 264 572 c 128,-1,68
 291 600 291 600 339 600 c 128,-1,69
 387 600 387 600 414.5 572.5 c 128,-1,70
 442 545 442 545 442 491 c 2,71,-1
 442 306 l 1,72,73
 465 300 465 300 483 279 c 1,40,41
393 286 m 1,74,-1
 393 240 l 1,75,76
 427 237 427 237 441 219.5 c 128,-1,77
 455 202 455 202 455 185 c 0,78,79
 455 131 455 131 425 110.5 c 128,-1,80
 395 90 395 90 340 90 c 128,-1,81
 285 90 285 90 253.5 120 c 128,-1,82
 222 150 222 150 222 205 c 0,83,84
 222 224 222 224 236 243 c 128,-1,85
 250 262 250 262 283 262 c 1,86,-1
 283 286 l 1,87,88
 264 286 264 286 254.5 284.5 c 128,-1,89
 245 283 245 283 230.5 272.5 c 128,-1,90
 216 262 216 262 203 241 c 1,91,92
 178 246 178 246 156 275 c 1,93,94
 137 249 137 249 112 241 c 1,95,96
 99 262 99 262 84 272.5 c 128,-1,97
 69 283 69 283 59.5 284.5 c 128,-1,98
 50 286 50 286 32 286 c 1,99,-1
 32 262 l 1,100,101
 96 262 96 262 96 169 c 0,102,103
 96 115 96 115 134 80 c 0,104,105
 201 17 201 17 338 17 c 0,106,107
 386 17 386 17 420.5 26.5 c 128,-1,108
 455 36 455 36 468.5 45 c 128,-1,109
 482 54 482 54 504 73 c 1,110,-1
 512 73 l 1,111,112
 534 49 534 49 551.5 38 c 128,-1,113
 569 27 569 27 592 27 c 0,114,115
 641 27 641 27 665 79 c 1,116,117
 659 77 659 77 648 77 c 0,118,119
 618 77 618 77 602.5 93 c 128,-1,120
 587 109 587 109 583.5 128 c 128,-1,121
 580 147 580 147 580 179 c 0,122,123
 580 262 580 262 644 262 c 1,124,-1
 644 286 l 1,125,126
 626 286 626 286 616 284.5 c 128,-1,127
 606 283 606 283 591 272.5 c 128,-1,128
 576 262 576 262 563 241 c 1,129,-1
 521 272 l 1,130,-1
 519 275 l 1,131,132
 501 249 501 249 474 241 c 1,133,134
 461 262 461 262 446 272.5 c 128,-1,135
 431 283 431 283 421 284.5 c 128,-1,136
 411 286 411 286 393 286 c 1,74,-1
315 429 m 2,137,-1
 315 296 l 1,138,-1
 359 252 l 1,139,-1
 359 179 l 1,140,141
 342 178 342 178 331.5 176.5 c 128,-1,142
 321 175 321 175 310 166 c 128,-1,143
 299 157 299 157 299 140 c 1,144,-1
 301 123 l 1,145,146
 317 117 317 117 338 117 c 0,147,148
 409 117 409 117 423 157 c 1,149,-1
 417 157 l 1,150,-1
 367 227 l 1,151,-1
 367 312 l 1,152,153
 400 312 400 312 414 311 c 1,154,-1
 414 489 l 1,155,-1
 413 506 l 1,156,157
 406 509 406 509 388 509 c 0,158,159
 315 509 315 509 315 429 c 2,137,-1
EndSplineSet
EndChar

StartChar: r
Encoding: 114 114 85
Width: 741
GlyphClass: 2
Flags: W
LayerCount: 2
Fore
SplineSet
421 179 m 1,0,-1
 409 179 l 2,1,2
 370 179 370 179 359.5 165 c 128,-1,3
 349 151 349 151 349 120 c 2,4,-1
 349 105 l 1,5,6
 355 108 355 108 359 113 c 1,7,-1
 437 35 l 1,8,9
 431 -12 431 -12 403 -36 c 128,-1,10
 375 -60 375 -60 337 -60 c 128,-1,11
 299 -60 299 -60 259 -33 c 1,12,13
 219 -60 219 -60 181 -60 c 0,14,15
 127 -60 127 -60 82 -9.5 c 128,-1,16
 37 41 37 41 30 95 c 1,17,-1
 58 113 l 1,18,19
 63 104 63 104 80 104 c 128,-1,20
 97 104 97 104 106.5 117.5 c 128,-1,21
 116 131 116 131 117.5 144 c 128,-1,22
 119 157 119 157 119 179 c 1,23,-1
 108 179 l 1,24,-1
 58 239 l 1,25,-1
 58 312 l 1,26,27
 99 312 99 312 116 309 c 1,28,-1
 116 499 l 1,29,-1
 88 499 l 1,30,-1
 38 559 l 1,31,-1
 38 700 l 1,32,-1
 397 700 l 2,33,34
 534 700 534 700 612 621 c 128,-1,35
 690 542 690 542 690 420 c 128,-1,36
 690 298 690 298 614 239 c 1,37,38
 647 188 647 188 647 119 c 2,39,-1
 647 105 l 1,40,41
 654 108 654 108 658 113 c 1,42,-1
 685 95 l 1,43,-1
 735 35 l 1,44,45
 730 -15 730 -15 698 -37.5 c 128,-1,46
 666 -60 666 -60 598 -60 c 128,-1,47
 530 -60 530 -60 475.5 -1.5 c 128,-1,48
 421 57 421 57 421 148 c 2,49,-1
 421 179 l 1,0,-1
475 279 m 1,50,51
 487 286 487 286 500 303 c 1,52,53
 510 303 510 303 514 302 c 1,54,55
 610 346 610 346 610 485 c 0,56,57
 610 534 610 534 593.5 569.5 c 128,-1,58
 577 605 577 605 554.5 624.5 c 128,-1,59
 532 644 532 644 489.5 658 c 128,-1,60
 447 672 447 672 390 672 c 2,61,-1
 66 672 l 1,62,-1
 66 587 l 1,63,-1
 146 587 l 1,64,-1
 146 301 l 1,65,66
 161 293 161 293 172 279 c 1,67,68
 182 285 182 285 196 303 c 1,69,-1
 222 303 l 1,70,71
 235 285 235 285 247 279 c 1,72,73
 269 308 269 308 310 311 c 0,74,75
 325 312 325 312 359.5 312 c 128,-1,76
 394 312 394 312 410 311 c 0,77,78
 453 308 453 308 475 279 c 1,50,51
334 288 m 2,79,80
 316 288 316 288 306.5 286.5 c 128,-1,81
 297 285 297 285 282 274 c 128,-1,82
 267 263 267 263 255 241 c 1,83,84
 230 246 230 246 209 276 c 1,85,86
 188 249 188 249 163 241 c 1,87,88
 151 263 151 263 136 274 c 128,-1,89
 121 285 121 285 111.5 286.5 c 128,-1,90
 102 288 102 288 85 288 c 1,91,-1
 85 263 l 1,92,93
 149 263 149 263 149 179 c 0,94,95
 149 148 149 148 145.5 128.5 c 128,-1,96
 142 109 142 109 126 92.5 c 128,-1,97
 110 76 110 76 80 76 c 1,98,-1
 65 80 l 1,99,100
 85 30 85 30 128 30 c 128,-1,101
 171 30 171 30 206 61 c 1,102,-1
 212 61 l 1,103,104
 247 30 247 30 289.5 30 c 128,-1,105
 332 30 332 30 354 80 c 1,106,107
 349 76 349 76 332 76 c 128,-1,108
 315 76 315 76 300.5 84.5 c 128,-1,109
 286 93 286 93 280 109 c 0,110,111
 270 136 270 136 270 179 c 0,112,113
 270 263 270 263 334 263 c 2,114,-1
 386 263 l 2,115,116
 451 263 451 263 451 179 c 2,117,-1
 451 153 l 2,118,119
 451 30 451 30 555 30 c 0,120,121
 608 30 608 30 629 48 c 0,122,123
 649 64 649 64 652 80 c 1,124,125
 646 76 646 76 637 76 c 0,126,127
 596 76 596 76 583 104 c 128,-1,128
 570 132 570 132 570 183 c 0,129,130
 570 257 570 257 511 276 c 1,131,132
 492 249 492 249 467 241 c 1,133,134
 454 263 454 263 439 274 c 128,-1,135
 424 285 424 285 414 286.5 c 128,-1,136
 404 288 404 288 386 288 c 2,137,-1
 334 288 l 2,79,80
274 587 m 1,138,-1
 337 587 l 2,139,140
 480 587 480 587 480 476 c 0,141,142
 480 417 480 417 445.5 379 c 128,-1,143
 411 341 411 341 338 341 c 2,144,-1
 274 341 l 1,145,-1
 274 587 l 1,138,-1
384 500 m 2,146,-1
 352 500 l 1,147,-1
 352 370 l 1,148,149
 452 378 452 378 452 476 c 1,150,-1
 451 491 l 1,151,152
 432 500 432 500 384 500 c 2,146,-1
EndSplineSet
EndChar

